<?xml version="1.0" encoding="utf-8"?>
<!-- Generator: Adobe Illustrator 25.2.3, SVG Export Plug-In . SVG Version: 6.00 Build 0)  -->
<svg version="1.1" id="Ebene_1" xmlns="http://www.w3.org/2000/svg" xmlns:xlink="http://www.w3.org/1999/xlink" x="0px" y="0px"
	 viewBox="0 0 275 105" style="enable-background:new 0 0 275 105;" xml:space="preserve">
<style type="text/css">
	.st0{clip-path:url(#SVGID_2_);fill:#59F500;}
	.st1{fill:#59F500;}
	.st2{clip-path:url(#SVGID_4_);fill:#F50003;}
	.st3{clip-path:url(#SVGID_4_);fill:#FFFFFF;}
</style>
<g>
	<defs>
		<rect id="SVGID_1_" x="2.1" y="1.9" width="271.3" height="98.5"/>
	</defs>
	<clipPath id="SVGID_2_">
		<use xlink:href="#SVGID_1_"  style="overflow:visible;"/>
	</clipPath>
	<path class="st0" d="M43.2,57.8v-1.7l-1.8-0.3v-7.8l0.1,0l6.3,9.8h2.8V45.6l1.5-0.3v-1.7h-1.5h-4.4v1.7l1.8,0.3v7.8l-0.1,0
		l-6.2-9.9h-2.9h-1.5v1.7l1.5,0.3v10.2l-1.5,0.3v1.7H43.2z M22.8,57.8l2.7-8.3l0.4-1.2H26l0.3,1.2l2.7,8.3h2.6L35,45.5l1.4-0.1v-1.7
		h-5.6v1.7l1.6,0.2l-1.7,7.2l-0.3,1.1h-0.1l-0.3-1.1L27,43.6h-2.1l-2.8,8.9l-0.4,1.3h-0.1l-0.3-1.3l-1.7-6.9l1.5-0.2v-1.7h-5.7v1.7
		l1.5,0.1l3.3,12.4H22.8z M6.8,55.2c-0.5-0.4-0.9-1-1.2-1.7c-0.3-0.7-0.4-1.6-0.4-2.6v-0.2c0-1,0.1-1.9,0.4-2.6
		c0.3-0.7,0.7-1.3,1.2-1.7c0.5-0.4,1.2-0.6,2-0.6c0.8,0,1.5,0.2,2,0.6c0.5,0.4,0.9,1,1.2,1.7s0.4,1.6,0.4,2.6v0.2
		c0,1-0.1,1.9-0.4,2.6c-0.3,0.7-0.7,1.3-1.2,1.7c-0.5,0.4-1.2,0.6-2,0.6C8,55.8,7.4,55.6,6.8,55.2 M11.4,57.5c0.8-0.4,1.5-0.9,2-1.5
		c0.6-0.6,1-1.4,1.3-2.3c0.3-0.9,0.5-1.8,0.5-2.9v-0.2c0-1-0.2-2-0.5-2.9s-0.8-1.6-1.3-2.3c-0.6-0.7-1.3-1.2-2.1-1.5
		c-0.8-0.4-1.7-0.5-2.6-0.5c-1,0-1.8,0.2-2.6,0.5c-0.8,0.4-1.5,0.9-2,1.5c-0.6,0.7-1,1.4-1.3,2.3s-0.5,1.8-0.5,2.9v0.2
		c0,1,0.2,2,0.5,2.9c0.3,0.9,0.7,1.6,1.3,2.3c0.6,0.6,1.2,1.2,2,1.5C7,57.8,7.9,58,8.8,58C9.8,58,10.7,57.8,11.4,57.5"/>
	<path class="st0" d="M49.6,25.8H52c0.8,0,1.4,0.2,1.8,0.6c0.4,0.4,0.6,0.9,0.6,1.6c0,0.7-0.2,1.2-0.6,1.5c-0.4,0.3-1,0.5-1.8,0.5
		h-2.3V25.8z M57.9,37.8v-1.7l-1.2-0.3L54.6,31L52,31.7l2.4,6.1H57.9z M51.1,37.8v-1.7l-1.5-0.3v-3.6h2.7c1,0,1.8-0.2,2.6-0.6
		c0.7-0.4,1.3-0.9,1.7-1.6c0.4-0.7,0.6-1.4,0.6-2.2c0-0.9-0.2-1.6-0.6-2.3c-0.4-0.6-1-1.1-1.8-1.5c-0.8-0.3-1.7-0.5-2.8-0.5h-6.7
		v1.7l1.5,0.3v10.2l-1.5,0.3v1.7H51.1z M40,37.4c0.9-0.4,1.5-1,2-1.7c0.5-0.7,0.7-1.6,0.7-2.7v-7.4l1.5-0.3v-1.7h-5.9v1.7l1.5,0.3
		V33c0,0.6-0.1,1.1-0.3,1.6c-0.2,0.4-0.6,0.7-1,0.9s-0.9,0.3-1.5,0.3c-0.6,0-1.1-0.1-1.5-0.3s-0.7-0.5-1-0.9
		c-0.2-0.4-0.3-0.9-0.3-1.6v-7.4l1.5-0.3v-1.7h-5.9v1.7l1.5,0.3V33c0,1.1,0.2,2,0.7,2.7c0.5,0.7,1.1,1.3,2,1.7
		c0.9,0.4,1.8,0.6,3,0.6C38.1,38,39.1,37.8,40,37.4 M20.8,35.2c-0.5-0.4-0.9-1-1.2-1.7c-0.3-0.7-0.4-1.6-0.4-2.6v-0.2
		c0-1,0.1-1.9,0.4-2.6c0.3-0.7,0.7-1.3,1.2-1.7c0.5-0.4,1.2-0.6,2-0.6c0.8,0,1.5,0.2,2,0.6c0.5,0.4,0.9,1,1.2,1.7
		c0.3,0.7,0.4,1.6,0.4,2.6v0.2c0,1-0.1,1.9-0.4,2.6c-0.3,0.7-0.7,1.3-1.2,1.7c-0.5,0.4-1.2,0.6-2,0.6C22,35.8,21.3,35.6,20.8,35.2
		 M25.4,37.5c0.8-0.4,1.5-0.9,2-1.5c0.6-0.6,1-1.4,1.3-2.3s0.5-1.8,0.5-2.9v-0.2c0-1-0.2-2-0.5-2.9c-0.3-0.9-0.7-1.6-1.3-2.3
		c-0.6-0.7-1.3-1.2-2.1-1.5c-0.8-0.4-1.7-0.5-2.6-0.5c-1,0-1.8,0.2-2.6,0.5c-0.8,0.4-1.5,0.9-2,1.5c-0.6,0.7-1,1.4-1.3,2.3
		c-0.3,0.9-0.5,1.8-0.5,2.9v0.2c0,1,0.2,2,0.5,2.9c0.3,0.9,0.7,1.6,1.3,2.3c0.6,0.6,1.2,1.2,2,1.5c0.8,0.4,1.7,0.5,2.6,0.5
		C23.7,38,24.6,37.8,25.4,37.5 M12.1,37.8v-1.7l-1.5-0.3v-3.1l4.2-7.2l1.4-0.2v-1.7h-5.6v1.7l1.6,0.2L9.5,30l-0.2,0.4l-0.1,0L9,30
		l-2.4-4.5l1.2-0.2v-1.7H2.1v1.7l1.4,0.2l4.2,7.4v2.9l-1.5,0.3v1.7H12.1z"/>
</g>
<path class="st1" d="M15.7,3.6L12,13.5h-0.1L8,3.6H3.8H2.3v1.7l1.5,0.3v10.2l-1.5,0.3v1.7h5.9v-1.7l-1.7-0.3v-3l-0.2-6l0.1,0
	l4.3,10.9h2.2l4.2-11l0.1,0l0,6.4v2.7l-1.6,0.3v1.7h5.9v-1.7l-1.5-0.3V5.6l1.5-0.3V3.6H15.7z M29.3,7l0.1-0.5h0.1L29.6,7l1.7,4.9
	h-3.7L29.3,7z M28,3.6L23.5,16l-1,0.1v1.7h4.8v-1.7l-1-0.2l0.6-2h5l0.6,2l-1,0.2v1.7h4.8v-1.7l-1-0.1L30.9,3.6H28z M45.3,3.6v1.7
	l1.4,0.1l0,0l-4.9,5V5.6l1.4-0.3V3.6h-5.8v1.7L39,5.6v10.2l-1.5,0.3v1.7h5.8v-1.7l-1.4-0.3v-2.1l2-2.1L47,16h0l-1.3,0.1v1.7h6v-1.7
	l-1.4-0.2l-4.6-6.1l4.1-4.2l1.3-0.3V3.6H45.3z M52.7,3.6v1.7l1.5,0.3v10.2l-1.5,0.3v1.7h11.2v-3.9h-2.2l-0.1,1.7h-4.6v-4.1h4.8V9.4
	h-4.8V5.8h4.4l0.1,1.6h2.2V3.6H52.7z"/>
<g>
	<defs>
		<rect id="SVGID_3_" x="2.1" y="1.9" width="271.3" height="98.5"/>
	</defs>
	<clipPath id="SVGID_4_">
		<use xlink:href="#SVGID_3_"  style="overflow:visible;"/>
	</clipPath>
	<path class="st2" d="M227.3,64.6c0.5-1.3,1-2.4,1.4-3.6c0-0.1,0.1-0.3,0.1-0.3c-0.8-0.7,0.1-1.4,0.2-2.1c0.1-0.7,0.4-1.5,0.7-2.2
		c0-0.3,0-0.5,0-0.8c0-0.4-0.2-0.9,0-1.1c0.4-0.5,0.4-1,0.4-1.5c0.2-0.8,0.4-1.6,0.5-2.4c0-0.1,0-0.2,0.1-0.3
		c0.9-0.5,0.5-1.3,0.3-1.8c-0.2-0.6,0-1,0.3-1.3c0.7-0.6,0.7-1.4,1.1-2.1c0.4-1.1,0.2-2.4,0.4-3.6c0.1-0.5,0.2-1.1,0.4-1.6
		c0.2-0.6,0.6-1.1,1-1.8c-0.1,0.4-0.2,0.6-0.2,0.7c-0.1,0.4-0.1,0.6,0,1.1c0.3,0.7,0.3,1.5,0.3,2.3c0,0.6-0.4,1.2-0.3,1.7
		c0.2,0.7,0,1.2,0,1.8c0,0.2,0,0.4-0.1,0.6c-0.2,0.4-0.3,0.7,0.1,1.1c0.3,0.4,0.6,1,0.2,1.6c-0.1,0.2,0,0.6,0,0.8
		c-0.1,0.6-0.4,1.2-0.4,1.8c0,0.2,0.1,0.5,0.2,0.7c0,0.1,0.2,0.3,0.2,0.4c-0.1,0.6-0.2,1.2,0.2,1.8c0,0.1-0.1,0.4-0.2,0.5
		c-0.3,0.4-0.6,0.7-0.2,1.3c0.3,0.4,0.1,1.2,0,1.7c-0.4,1,0,1.9,0.2,2.9c0.1,0.7,0.4,1.2-0.1,2c-0.3,0.4-0.1,1.2-0.1,1.8
		c0,0.5-0.1,1-0.2,1.5c0,0.2,0.2,0.4,0.3,0.7c0.1,0.4,0.1,0.7,0.1,1.1c0,0.3-0.2,0.6-0.2,0.9c0,0.7-0.8,1.3-1.6,1.1
		c-0.2-0.1-0.5,0-0.8,0c-0.5,0-1-0.1-1.4-0.3c-0.4-0.1-0.7-0.3-1.2,0.1c-0.4,0.4-2.4,0.2-2.6-0.3c-0.1-0.2,0-0.7,0.2-0.8
		c0.5-0.3,0.6-0.7,0.4-1.2c-0.1-0.6-0.2-1.2,0.4-1.7C227.7,65.5,227.8,64.9,227.3,64.6 M114.1,39.1c-0.1,0.1-0.3,0.3-0.3,0.4
		c0,0.7-0.4,1.3-0.1,2c0.2,0.4-0.1,1.1-0.1,1.6c0,0.4,0.4,0.7,0.3,1.1c-0.2,0.7-0.3,1.3,0.1,1.9c0,0,0,0.2,0,0.3
		c-0.1,0.6-0.2,1.2-0.3,1.8c0,0.2,0.2,0.5,0.3,0.7c0.1,0.8-0.2,1.5-0.3,2.3c0,0.3,0.2,0.7,0.1,0.9c-0.3,0.4-0.2,0.7,0.1,1.1
		c0.1,0.2,0.1,0.4,0.1,0.7c0,0.9-0.9,1.9,0.1,2.8c0.1,0,0,0.2,0,0.4c0,0.7-0.1,1.3-0.2,1.9c0,0.6-0.1,1.2,0,1.8
		c0.1,0.5,0.2,0.9-0.2,1.3c-0.1,0.1,0,0.4,0,0.7c0,0.4,0.3,0.8,0.2,1.1c-0.1,0.6-0.5,1-0.2,1.8c0.3,0.7,0,1.6,0.1,2.4
		c0,0.4,0.3,0.8,0.3,1.3c0,0.4,0,0.7,0,1.1c-0.1,0.3-0.4,0.7-0.4,0.8c0.4,0.8,0.3,1.6,0.3,2.4c0,0.7-0.2,1.4,0,1.9
		c0.3,0.7,0.1,1.1-0.2,1.6c-0.1,0.1,0,0.4,0,0.6c0,0.3,0.2,0.6,0.2,0.8c0.1,0.9-0.1,1.8-0.2,2.6c-0.1,1.4,0.1,2.7,0,4
		c-0.1,1.1,0.3,2.2-0.2,3.3c0,0.1,0.1,0.6,0.3,0.6c0.7,0.1,1.3,0.1,2,0.1c0.6,0,1.3,0.3,1.9-0.2c0,0,0.2,0.1,0.3,0.1
		c0.3,0.2,0.5,0.3,0.8,0.5v-0.2c0.4,0,1-0.3,1.3-0.1c0.5,0.3,0.8,0.1,1.3,0c0.4-0.1,0.5-0.4,0.4-0.7c-0.1-0.2-0.2-0.4-0.3-0.7
		c0.4-0.2,0.7-0.5,0.3-1.1c-0.1-0.1,0-0.4,0.1-0.6c0-0.2,0.1-0.4,0.1-0.5c0-0.5,0-1,0-1.5c0-0.4-0.1-0.7-0.1-1.1
		c-0.1-0.2-0.1-0.5,0-0.7c0.4-1.1-0.5-2.2,0-3.4c0-0.1-0.1-0.2-0.1-0.4c0-0.3-0.1-0.5,0-0.7c0.2-0.8,0.2-1.6-0.3-2.3
		c-0.1-0.1,0-0.4,0-0.5c0.1-0.6,0.4-1.1,0.3-1.7c-0.1-0.7-0.2-1.3,0.2-1.9c0.2-0.3,0.3-0.6-0.1-0.9c-0.2-0.2-0.3-0.7-0.3-1
		c0-0.5,0.3-1,0.4-1.5c0-0.4-0.1-0.9-0.1-1.4c-0.1-0.7-0.2-1.4-0.3-2.1c0.5-0.5,0.3-1-0.1-1.8c-0.1-0.2,0-0.5,0-0.6
		c0.5-0.5,0.4-1.2,0.1-1.5c-0.4-0.5-0.4-0.8-0.1-1.3c0.2-0.3,0.3-0.6,0.3-0.9c0.1-0.7,0.2-1.5,0.3-2.3c0-0.1-0.3-0.2-0.3-0.4
		c-0.1-0.4-0.4-0.8-0.4-1.2c0-0.6,0.1-1.3,0.1-1.9c0-0.7,0.1-1.4,0.1-2.1c0-0.8,0.5-1.6-0.1-2.3c0.1-0.3,0.2-0.6,0.2-0.9
		c0-0.4,0-0.9,0.1-1.4c0-0.6,0.4-1.2-0.3-1.6c-0.2-0.1-0.3-0.4-0.5-0.6c0.8-0.8,0.8-1.8,0.5-2.7c-0.3-1-0.2-1.9,0.3-2.8
		c0.2-0.4,0.2-0.6-0.1-1c-0.3-0.4-0.2-0.9-0.3-1.4c0-0.4,0-0.9,0-1.3c0.1-0.7,0.2-1.4,0.3-2.2c0-0.3-0.2-0.6-0.3-0.9
		c-0.2-1,1.1-1.9,0-3c0,0,0-0.3,0.1-0.4c0-0.1,0.1-0.3,0-0.4c-0.6-1.3,0-2.6,0-3.9c0-0.7,0-1.5-0.2-2.2c0-0.2,0-0.5,0.1-0.6
		c0.5-0.4,0.2-0.7,0.1-1.1c-0.1-0.4-0.1-1-0.1-1.4c0-0.3,0.2-0.7,0.2-1c0-0.3-0.1-0.6-0.2-0.8c0-0.3,0-0.6-0.1-0.9
		c0-0.4,0.1-0.8,0-1.2c0-0.6-0.2-1.2-0.3-1.8c0-0.1,0-0.3,0.1-0.4c0.2-0.8,0.3-1.6,0.5-2.4c0,0,0-0.1,0-0.1c0-0.4-0.1-0.7,0-1.1
		c0.1-0.7,0.3-1.3-0.1-2c-0.3-0.5-0.4-1.2,0-1.8c0.1-0.3,0.2-0.6,0.2-0.9c0-1.1-0.4-1.4-1.2-1.1c-0.3,0.1-0.7,0.1-1.1,0
		c-0.5-0.1-1.1-0.3-1.4,0.2c-0.3,0.4-0.6,0.3-0.9,0.1c-0.9-0.6-1.9-0.2-2.9-0.2c-0.1,0-0.2,0.2-0.3,0.3c-0.4,1.2-0.7,2.4-0.1,3.6
		c0,0.1,0.1,0.3,0.1,0.4c-0.6,0.8-0.2,1.7-0.2,2.6c0,0.4-0.4,0.7-0.3,1c0.3,0.9,0.2,1.9,0.3,2.8c0,0.7,0.1,1.5-0.3,2.2
		c-0.2,0.4-0.2,0.7,0.3,0.9c0.6,0.4,0.6,0.8,0.2,1.5c-0.2,0.2-0.2,0.6-0.2,0.9c0.1,0.7,0.3,1.3-0.3,1.8c-0.1,0.1-0.1,0.4-0.1,0.4
		c0.8,0.7,0.3,1.6,0.4,2.5c0.2,1.4-0.3,2.7,0.1,4.1c0.1,0.6,0.3,1.3-0.1,1.9c-0.2,0.3-0.2,0.7-0.2,1.1c0,0.7,0.2,1.4,0.3,2.1
		c0.1,1-0.5,1.9,0,2.9c0.3,0.6,0.4,1.2,0.2,1.9C113.7,38.4,113.9,38.8,114.1,39.1 M179.2,89.7c0-0.8,0.6-1.7,0.2-2.8
		c-0.3-0.7,0.1-1.7-0.1-2.5c-0.2-0.7,0-1.2,0.3-1.8c0.1-0.2,0.1-0.4,0.1-0.6c-0.1-0.5-0.3-0.9-0.4-1.4c-0.1-0.7-0.2-1.5-0.2-2.2
		c0-0.4,0-0.7,0.1-1.1c0.1-0.6,0.4-1.1,0.6-1.6c0-0.1,0-0.2-0.1-0.3c-0.7-0.4-0.4-0.9-0.4-1.5c0-0.4,0-0.8,0-1.2
		c0-0.4,0-0.8,0.2-1.1c0.1-0.3,0.2-0.5,0-0.8c-0.4-0.7-0.8-1.4-0.1-2.2c0.2-0.2,0.3-0.9,0.2-1c-0.7-0.7-0.1-1.5-0.5-2.2
		c0.8-0.9-0.1-1.9,0.3-2.8c0.2-0.5-0.3-1.3-0.1-1.8c0.2-0.7,0.1-1.2,0-1.8c0-0.1,0-0.2,0-0.4c0-0.4,0-0.7,0-1.1c0-0.4,0-0.7-0.1-1.1
		c0-0.9,1.1-1.8,0.1-2.8v-0.1c0-1.2-0.1-2.4,0-3.7c0-0.8,0.1-1.6,0.3-2.4c0.1-0.4,0.4-0.8-0.2-1.1c-0.1,0-0.1-0.3-0.1-0.4
		c0-0.9,0.6-1.9-0.1-2.9c0,0,0-0.2,0-0.3c0.1-0.6,0.3-1.1,0.4-1.7c0.1-0.4,0.3-0.6-0.2-0.9c-0.2-0.1-0.3-0.5-0.3-0.8
		c0-0.6,0.1-1.2,0.4-1.8c0.1-0.3,0-0.7,0-1.1h-0.1v-3.2c0-0.4,0-0.7,0-1.1c0-0.6-0.1-1.2-0.1-1.8c0-0.5-0.3-1,0.2-1.4
		c0,0,0-0.2,0-0.4c0-1.2,0.2-2.4,0.2-3.6c0-0.8,0.2-1.8-0.2-2.3c-0.4-0.5-0.3-0.8-0.2-1.3c0.1-0.9,0.2-1.8,0.3-2.6
		c0.2-1.4-0.6-2.7-0.1-4.1c0-0.1,0-0.4,0-0.5c-0.6-0.7,0-1.4,0-2c0-0.3,0.2-0.6,0.3-0.9c0-0.2,0-0.4-0.2-0.6
		c-0.3-0.4-0.5-0.7-0.4-1.4c0.2-0.7,0.2-1.5,0-2.2c-0.3-0.7-0.2-1.3,0.2-1.8c0.1-0.1,0-0.5-0.1-0.7c-0.2-0.4-0.9-0.6-0.4-1.4
		c0.3-0.4-0.4-1.2-0.7-1c-0.6,0.5-1.2,0.4-1.8,0c0,0-0.2,0-0.4,0c-0.9,0.1-1.8,0.4-2.7,0.3c-0.8-0.1-1.2-0.1-1.3,0.8
		c0,0.1,0,0.2,0,0.2c-0.6,0.5-0.4,1-0.1,1.5c0.1,0.2,0.1,0.5,0,0.6c-0.5,0.6-0.6,1.2-0.3,1.9c0.1,0.2,0.1,0.4,0.1,0.6
		c-0.2,1.4,0.2,2.7-0.1,4c-0.3,1.2,0.5,2.5-0.1,3.7c0,0.1,0.1,0.3,0.2,0.4c0.1,0.5,0.4,1.1,0.2,1.5c-0.2,0.7-0.4,1.3-0.3,2.1
		c0.1,0.4,0.2,0.7,0.2,1.1c0,0.4-0.1,0.7-0.1,1.1c0,0.7-0.3,1.5,0,2.1c0.3,0.5,0.3,0.9,0.3,1.5c0,0.8,0,1.6,0,2.5
		c-0.2,0.3-0.4,2.2-0.2,2.8c0.2,0.6,0.5,1.4,0.3,1.9c-0.4,1.2-0.3,2.3-0.1,3.5c0,0.3,0,0.6,0.1,0.8c0.4,0.5,0.2,0.8-0.1,1.2
		c-0.2,0.2-0.4,0.7-0.3,0.7c0.5,0.5,0.2,1.1,0.2,1.6c0,1.1-0.2,2.2-0.4,3.3c0.2,0.2,0.4,0.4,0.5,0.5c-0.1,0.6-0.4,1.1-0.4,1.5
		c0.1,1,0.6,2,0.1,3c0,0.1,0,0.2,0,0.3c0.1,0.6,0.4,1.1-0.1,1.7c-0.1,0.1,0,0.3,0.1,0.5c0.1,0.8,0.2,1.5,0.2,2.3
		c0.1,0.4,0.3,0.8,0.2,1.1c-0.2,0.7-0.5,1.4-0.7,2.1c0,0.1,0.1,0.4,0.2,0.5c0.3,0.4,0.7,0.8,0.2,1.3c-0.1,0.1,0,0.2,0,0.4
		c-0.1,0.7-0.1,1.3-0.2,1.9c-0.1,0.4-0.3,0.8,0.4,1c0.1,0,0.1,0.4,0.1,0.6c-0.1,1.5-0.3,2.9-0.2,4.3c0.1,1.1-1.1,2.4,0.4,3.3v0.1
		c-0.2,0.3-0.6,0.6-0.6,0.9c0,0.6,0.2,1.2,0.4,1.8c0,0.2,0,0.4,0,0.6c0,0.5-0.3,1.1-0.2,1.6c0.2,0.7,0.1,1.3-0.3,1.9
		c-0.1,0.1,0,0.4,0.1,0.6c0.2,0.5,0.6,0.9,0.1,1.5c-0.1,0.1,0,0.4,0,0.6c0,0.2,0.1,0.4,0.2,0.7c0.1,0.4,0.1,0.8,0.2,1.2
		c0,0.3,0,0.6,0,0.9c0,0.4-0.3,0.8-0.3,1.2c0,0.7,0.4,1.6,0.1,1.9c-0.7,0.7,0.2,1.3,0,1.9v0.1c-0.1,0.7-0.2,1.3-0.3,2
		c0.4,0,1,0.2,1.4,0c0.4-0.2,0.6-0.2,0.9,0c0.4,0.3,0.9,0.4,1.4,0.3c0.3-0.1,0.5,0,0.8,0c0.6,0,1.2,0.1,1.8,0.1
		C178.1,90,178.6,89.9,179.2,89.7 M134.5,83.9c0-0.5,0.1-1.1,0.1-1.8c0-0.5-0.3-1.1,0.2-1.5c0.1,0,0-0.3,0-0.4v-1.3
		c0-0.2,0.2-0.6,0.1-0.7c-0.8-0.6-0.1-1.2-0.1-1.8c0-0.4,0-0.7-0.1-1c-0.2-0.5-0.4-0.9-0.1-1.5c0.3-0.7,0.4-1.4,0-2.1
		c-0.1-0.2-0.3-0.4-0.3-0.6c0.1-1.3,0.3-2.6,0.3-3.9c0-0.7-0.2-1.3,0-2c0.1-0.8,0.1-1.7,0-2.5c0-0.5,0.2-1.1-0.3-1.6
		c-0.2-0.2,0-0.8,0-1.2c0-0.3,0.4-0.6,0.4-0.9c0-0.8-0.2-1.5,0.3-2.3c0.1-0.1,0.1-0.4,0-0.5c-0.6-0.6-0.6-1.4-0.4-2.2
		c0.1-0.6,0.5-1.1,0-1.6c0,0,0-0.1,0-0.2c0.3-0.5,0.3-1,0.1-1.7c-0.3-1-0.1-2.1-0.1-3.1c0-0.1,0.1-0.3,0-0.4
		c-0.4-0.6-0.3-1.1,0.1-1.8c0.1-0.1,0.1-0.4,0-0.4c-0.5-0.6-0.1-1.1,0-1.6c0.1-0.3,0-0.7,0-1c-0.1-0.5-0.4-0.9-0.1-1.5
		c0.4-0.7,0.5-1.4,0.2-2.3c-0.3-0.7-0.2-1.7-0.3-2.5c0-0.5,0.1-1,0.2-1.7c0.4-0.3,0.5-1.1,0.2-1.7c-0.1-0.3-0.2-0.6-0.1-0.9
		c0.1-0.3,0.3-0.6,0.4-0.9c-0.2-0.4-0.2-0.7-0.3-1c0-0.3-0.1-0.6-0.1-0.8c0-0.9-0.2-1.9,0.1-2.7c0.2-0.6,0.1-1,0-1.5
		c-0.2-0.8-0.4-1.6-0.1-2.5c0.2-0.6,0.1-1.2,0.1-1.9c0-1.2-0.7-2.4-0.1-3.7c0.2-0.4,0.4-1-0.3-1.2c0,0,0-0.3,0-0.4
		c0.2-1.1,0.4-2.2,0.4-3.3c0-0.6-0.1-1.1,0.1-1.7c0-0.1-0.1-0.3-0.1-0.3c-0.7-0.4-0.4-0.9-0.3-1.5c0.2-0.8,0.4-1.6,0.2-2.4
		c-0.1-0.5-0.6-0.9,0-1.4c0,0,0-0.2,0-0.4c-0.1-0.5-1.1-1.3-1.6-1.2c-0.5,0-1,0.2-1.5,0.2c-0.2,0-0.5,0-0.7,0C131.1,3,131,3,130.7,3
		c-1.1,0-2.2,0.7-3.3,0c0,0-0.1,0-0.1,0.1c0,0.3,0,0.5-0.1,0.8c-0.1,0.5-0.3,1.1-0.3,1.6c0,1,0.1,2,0.2,3.1c0,1,0,1.9,0,2.9
		c0,1.1-0.1,2.2-0.1,3.3c0,1-0.3,2,0,2.9c0.5,1.8-0.1,3.5,0.2,5.2c0.1,0.7-0.7,1.5,0,1.9c0,0.7,0,1.1,0,1.6c-0.1,0.8,0,1.6-0.1,2.4
		c-0.2,0.7-0.3,1.6,0.2,2.4c0.1,0.2,0.1,0.4,0,0.7c-0.2,0.7-0.4,1.5-0.6,2.2c0,0.1-0.1,0.4,0,0.4c0.5,0.8,0.5,1.7,0.4,2.6
		c0,0.5-0.3,0.9-0.3,1.4c0,1,0.1,2,0.1,3c0,0.3,0,0.6,0,1.1c0,0-0.3,0.3-0.2,0.4c0.2,0.8,0.2,1.6,0.1,2.4c-0.1,0.7,0,1.4,0,2
		c-0.1,1.8-0.2,3.7,0.1,5.5c0.1,0.9,0,1.8,0,2.7c0,1.1,0.1,2.3-0.3,3.4c-0.1,0.5-0.4,1.2-0.2,1.5c0.6,0.6,0.2,1.2,0.2,1.8
		c0,1.1-0.1,2.2-0.2,3.3c0,0.1,0,0.3,0,0.4c0.6,0.3,0.4,0.7,0.2,1.2c-0.1,0.4-0.2,0.9-0.2,1.4c0,1.3,0,2.5-0.1,3.8
		c0,0.5-0.2,1-0.4,1.5c0.1,0.1,0.3,0.2,0.4,0.4c0.3,0.4,0.4,1.4,0.1,1.5c-0.6,0.4-0.4,0.8-0.3,1.3c0.2,0.5,0.3,1.1,0,1.6
		c-0.2,0.5-0.7,1.2,0.1,1.7c-0.6,1-0.5,1.3,0.1,1.7c-0.2,0.4-0.5,0.7-0.4,0.9c0.5,1,0.4,1.9,0,2.8c-0.1,0.1,0,0.4,0,0.5
		c0.3,0.6,0.2,1.1,0,1.6c-0.1,0.2,0,0.5,0,0.7c0.4,1.1,1.5,1.1,2.3,1.1c1.3,0,2.6-0.1,4-0.2c0.8-0.1,1.6,0,2.4,0
		c1.5,0,2.9,0.1,4.3,0.2c1.4,0,2.7,0.1,4.1,0c0.9,0,1.8-0.2,2.7-0.4c0-1.7,0-3.3,0-4.9c0-0.7-0.4-0.7-0.8-0.7c-1.7,0-3.3,0.1-5,0.1
		C138.1,84,136.2,83.9,134.5,83.9 M155,56.3c0.1,0,0.1-0.1,0.2-0.1c0-0.3-0.1-0.7-0.2-1c0-0.2,0-0.4,0-0.5c0.4-0.4,0.6-0.7,0-1.1
		c-0.1,0-0.1-0.2-0.1-0.4c0.1-0.8,0.3-1.7,0.3-2.6c0-0.8-0.4-1.6,0-2.5c0,0-0.1-0.1-0.1-0.2c0-0.2-0.1-0.4-0.1-0.7
		c0-0.5,0.4-1.1,0.2-1.6c-0.2-0.6-0.3-1.1-0.1-1.7c0.1-0.4,0.3-0.9,0.1-1.2c-0.4-0.8-0.3-1.5,0.2-2.2c0-0.1,0.1-0.3,0.1-0.4
		c-0.3-0.9-0.6-1.7,0-2.6c0-0.1,0-0.3-0.1-0.5c-0.3-0.5-0.7-1,0-1.5c0.1-0.1,0.1-0.3,0.1-0.4c-0.4-1,0-2,0-2.9
		c0-0.5,0.1-0.9-0.4-1.1c0.2-0.9,1-1.8,0.1-2.6c0,0,0-0.1,0-0.1c0-0.5,0.2-1.1,0.2-1.6c0-0.7-0.1-1.4-0.2-2.1
		c0.1-0.2,0.3-0.5,0.3-0.8c0-0.4-0.2-0.9-0.2-1.3c0-0.5,0.2-1,0.2-1.5c0-0.7,0.3-1.4-0.3-1.9c-0.1,0,0-0.2,0-0.4
		c0.1-1.3,0.2-2.6,0.3-4c0-0.7,0.1-1.5-0.2-1.9c-0.4-0.4-0.2-0.7-0.2-1.1c0-1.1,0.8-2.2,0.1-3.4c0-0.1,0-0.3,0-0.4
		c0.2-1.1,0.2-2.1-0.1-3.1c-0.1-0.3-0.3-0.7-0.3-1c-0.1-0.7-0.6-1.1-1.3-0.9c-0.8,0.2-1.5,0.6-2.5,0.3c-0.4-0.2-1-0.1-1.5-0.1
		c-0.4,0-0.8,0.2-1.1,0.1c-0.6-0.2-0.8,0.1-0.8,0.5c-0.1,0.7-0.1,1.4-0.1,2c0,0.6,0.1,1.2,0,1.8c-0.3,1.1-0.2,2.2,0.1,3.3
		c0.1,0.4-0.2,0.8-0.2,1.2c0,0.8-0.7,1.6,0.1,2.4c0,0,0,0.1,0,0.2c0,0.5,0,1,0,1.5c-0.1,0.9,0.5,1.7,0.3,2.6c0,0.2,0.1,0.5,0.2,0.7
		c0.2,0.4,0.4,0.6,0,1c-0.2,0.3-0.5,0.7-0.4,0.9c0.2,0.7,0.2,1.2-0.2,1.8c-0.1,0.1-0.1,0.4,0,0.5c0.8,0.6,0.4,1.3,0.1,1.9
		c-0.1,0.3-0.2,0.6,0.2,0.8c0.2,0.1,0.4,0.5,0.4,0.8c-0.1,0.7-0.4,1.5-0.4,2.2c0,0.7,0.1,1.5-0.3,2.2c0,0,0,0.2,0,0.2
		c0.6,0.7,0.2,1.3,0.1,2c0,0.2,0,0.4,0,0.5c0.1,0.4,0.3,0.7,0.3,1.1c0,0.8,0,1.7,0,2.6c0,0.6,0.1,1.2,0.1,1.8c0,0.1-0.1,0.2-0.1,0.3
		c-0.1,0.3-0.3,0.6-0.2,0.9c0.1,0.7,0,1.4-0.2,2.1c-0.1,0.2,0,0.5,0,0.8c0.2,0.5,0.4,1.1,0.6,1.6c0,0.1-0.1,0.4-0.2,0.5
		c-0.2,0.6-0.5,1.2-0.7,1.8c0,0.1,0.2,0.2,0.2,0.4c0.2,0.6,0.7,1.5,0.4,1.8c-0.6,0.7-0.3,1.5-0.4,2.3c-0.1,0.5,0,1,0,1.5
		c0,0.3,0.2,0.7,0.2,1c0,0.5-0.3,0.9-0.3,1.4c0,0.5,0.2,0.9,0.4,1.4c0,0.1,0,0.2,0,0.4c-0.1,0.4-0.2,0.8-0.2,1.2
		c0,0.6,0.2,1.1,0.1,1.7c0,0.4-0.2,0.7-0.3,1.1c-0.1,0.7-0.3,1.4-0.2,2c0.1,0.7,0,1.4-0.2,2.1c0,0,0.1,0.2,0.1,0.3
		c0.5,1.2,0.5,2.5,0.3,3.7c-0.1,0.8-0.7,1.6,0,2.4c0.1,0.2,0.1,0.5,0.1,0.8c-0.1,1-0.2,1.9-0.3,2.9c0,0,0,0.1,0.1,0.2
		c0.1,0.4,0.3,0.8,0.3,1.2c0,0.5-0.2,1-0.3,1.5c-0.3,1,0.3,1.7,0.9,2.3c-0.6,0.3-0.8,0.8-0.7,1.5c0.2,1.4,0.2,2.8,0.1,4.2
		c0,0.4,0,0.9,0.2,1.4c0.2,0.4,0.5,0.8,0.7,1.3c0.3-0.4,0.7-0.4,1.1-0.1c0.1,0.1,0.2,0.1,0.4,0.1c1.5-0.1,2.9,0.5,4.4,0
		c0.1,0,0.3,0.1,0.4,0.2c0.1,0,0.3,0.2,0.4,0.2c0.5-0.2,1-0.4,1.5-0.1c0.2,0.1,0.6-0.4,0.7-0.3c1.1,0.6,2.2-0.4,3.3,0.2
		c0.2,0.1,0.5,0,0.8-0.1c0.4,0,0.7-0.1,1,0c0.7,0.2,1.3,0.6,1.9,0c0.1-0.1,0.3,0,0.5,0c0.3,0,0.6,0.1,0.8,0.1c0.4,0,0.7,0,1.1,0.1
		c0.6,0.2,1.6-0.1,1.8-0.7c0.6-1.5,0.7-3.1,0.7-4.6c0-0.3-1-1.1-1.3-1.1c-1.5,0-2.9,0-4.3,0c-2.4,0-4.8,0-7.1-0.1
		c-0.1,0-0.4-0.1-0.4-0.3c-0.4-0.5-0.3-1-0.3-1.6c0-1-0.1-2.1-0.1-3.1c0-0.7-0.1-1.3-0.1-2c0.2-1.5,0.5-3-0.2-4.5
		c-0.1-0.1-0.1-0.3-0.1-0.5c0-0.8-0.1-1.6-0.1-2.4c0-0.1,0-0.2,0-0.3c1-1-0.1-2.3,0.4-3.3c0-0.1-0.2-0.3-0.2-0.4
		c-0.1-0.3-0.4-0.7-0.4-0.9c0.3-1.1,0.3-2.3,0.2-3.4c0-0.4,0.1-0.8,0.1-1.2c0-0.1,0.1-0.3,0-0.4c-0.6-0.6-0.1-1.1,0-1.7
		C155.5,56.9,155.6,56.5,155,56.3 M247.2,52.5c-0.2,0.3-0.4,0.5-0.5,0.7c-0.1,0.4-0.1,0.8-0.1,1.2c0,0.1,0.1,0.3,0.1,0.4
		c0.1,0.4,0.2,0.7,0.2,1.1c0,0.5-0.3,1.1-0.1,1.6c0.3,0.7,0.4,1.3,0,1.9c-0.1,0.2-0.2,0.5-0.1,0.7c0.5,0.7,0.6,1.4,0.4,2.2
		c0,0.1-0.1,0.3-0.1,0.4c0.3,0.9-0.7,1.8,0,2.8c0,0-0.1,0.2-0.1,0.3c0,0.1-0.1,0.4,0,0.4c0.5,0.4,0.1,0.7,0.2,1.1
		c0.1,1.5-0.2,3-0.1,4.5c0,0.2,0.2,0.4,0.2,0.7c0,0.1,0,0.3-0.1,0.5c-0.1,0.7-0.3,1.5-0.4,2.3c0,0.1,0.2,0.2,0.3,0.3
		c0.2,0.2,0.4,0.4,0,0.7c-0.1,0.1,0,0.4-0.1,0.5c-0.3,0.7,0,1.2,0.2,1.8c0.1,0.3,0.1,0.8-0.1,1c-0.6,0.7-0.1,1.1,0.2,1.5
		c0.1,0.2,0.2,0.4,0.1,0.6c-0.2,0.6-0.4,1.1-0.6,1.7c0,0.1,0,0.4,0,0.5c0.1,0.4,0.2,0.8,0.3,1.2c0,0.9,0,1.8,0,2.6v2.5
		c0.3,0,0.6,0,1,0c1.1-0.2,2.2-0.5,3.2,0.1c0.1,0,0.2,0,0.4-0.1c0.3-0.1,0.6-0.3,0.9-0.3c0.5,0,1.1,0.1,1.6,0.2
		c0.5,0.1,0.9,0,1.1-0.5c0.2-0.7,0.4-1.3,0.4-2c0-0.8,0-1.7,0-2.5c0-1.8,0-3.7,0-5.5c0-1.4,0.1-2.8,0.1-4.2c0-1.5,0.1-2.9,0.1-4.4
		c0-0.7-0.1-1.5-0.1-2.3c0-1.5,0.3-3,0.8-4.4c0.4-1.1,0.8-2.2,1.2-3.3c0.5-1.5,0.9-2.9,1.4-4.4c0.1-0.4,0.2-0.8,0.4-1.2
		c0.4-1.2,0.9-2.4,1.4-3.6c0.1-0.4,0.2-0.9,0.3-1.4c0.5-1.5,1-3,1.5-4.5c0.4-1.1,0.7-2.2,1-3.3c0.3-0.8,0.5-1.6,0.7-2.4
		c0.3-1,0.6-1.9,0.8-2.9c0.3-1.2,0.9-2.4,0.8-3.7c0-0.1,0.1-0.2,0.2-0.3c0.2-0.2,0.5-0.5,0.5-0.7c0-0.5,0.1-0.8,0.4-1.3
		c0.5-0.9,0-2,0.8-2.9c0,0,0-0.1,0-0.1c-0.3-1.1,0.1-1.9,0.8-2.7c0.1-0.2,0.2-0.5,0.1-0.7c-0.1-0.7,0-1.3,0.3-1.9
		c0.1-0.2,0.2-0.4,0.3-0.6c0.2-0.6,0.4-1.2,0.6-1.8c0-0.2,0.1-0.3,0.2-0.5c0-0.5,0.1-1,0.1-1.5c0-0.4,0.1-0.9,0.2-1.3
		c0-0.3,0-0.7,0.1-0.9c0.8-0.7,0.6-1.7,0.8-2.5c0.1-0.6,0-1.2,0.1-1.8c0.1-0.7,0.4-1.5,0.6-2.2c0.5-1.6,1-3.2,1.4-4.8
		c0.1-0.5,0-1.1-0.3-1.6c-0.1-0.4-0.5-0.7-0.8-1.1c-0.1-0.1-0.3-0.4-0.5-0.4c-0.4,0-0.7,0.1-1,0.3c-1.1,0.6-2.2,0.3-3.2,0
		c-1.2-0.3-1.7-0.1-2.2,1.1c-0.1,0.3-0.2,0.7-0.1,0.9c0.5,0.5,0.1,1,0,1.4c-0.3,0.8-1,1.6-0.8,2.6c0.1,0.5-0.1,1-0.6,1.3
		c-0.1,0.1-0.2,0.4-0.3,0.6c0,0.5,0.2,1.1,0,1.6c-0.3,0.9-0.7,1.8-1.1,2.7c-0.1,0.2-0.1,0.4-0.1,0.6c0,0.3,0.2,0.7,0.1,0.9
		c-0.5,0.6-0.1,1.5-0.7,2.1c-0.3,0.3,0,1,0,1.6c-0.2,0.4-0.4,0.9-0.6,1.4c-0.2,0.5-0.3,1.1-0.4,1.6c-0.1,0.5-0.7,1-0.1,1.5
		c0,0,0,0.3-0.1,0.5c-0.2,0.3-0.4,0.5-0.5,0.7c-0.2,0.3-0.4,0.6-0.1,1.1c0.2,0.4,0.3,1.1,0.1,1.5c-0.4,1-0.5,1-0.6,2.1
		c0,0.2-0.2,0.4-0.3,0.6c-0.1,0.2-0.3,0.4-0.4,0.5c-0.4,0.4-0.2,0.8-0.3,1.2c-0.2,1.1-0.6,2-1,3c0,0.1-0.2,0.4-0.1,0.4
		c0.5,0.5,0,0.8-0.2,1.1c-0.5,0.8-0.4,1.8,0.3,2.2c-0.4,0.8-0.9,1.5-1.2,2.3c-0.1,0.4-0.1,0.8-0.1,1.3c-0.3,0.1-0.4,0.3-0.4,0.8
		c0.1,0.5,0.3,1.2-0.4,1.6c-0.1,0-0.1,0.3-0.1,0.4c0,0.4,0.1,0.7,0.2,1.1c-0.2,0.1-0.4,0.3-0.7,0.4c0-0.8,0-1.6,0.1-2.3
		c0-0.4,0.1-0.9,0.1-1.4c0-0.2,0-0.4,0-0.5c0-0.3-0.2-0.5-0.2-0.7c-0.1-0.6-0.1-1.3-0.1-1.9c0-0.8-0.3-1.7,0.2-2.5
		c0.2-0.4,0.2-1,0-1.3c-0.3-0.5-0.4-0.8,0-1.2c0.4-0.5,0.4-1-0.1-1.5c-0.1-0.1-0.2-0.2-0.3-0.3c0.1-0.2,0.3-0.4,0.3-0.6
		c0.1-1.8,0.2-3.6,0.3-5.4c0-0.1-0.1-0.2-0.1-0.4c-0.1-0.4-0.4-0.9-0.3-1.3c0.2-0.7,0.9-1.4-0.1-2.1c0.3-0.8-0.5-1.7,0.3-2.5
		c0.1-0.1,0-0.3,0-0.5c0-0.3-0.1-0.5-0.1-0.8c0-1-0.3-2.1,0.1-3.1v-0.1c0-0.9,0.1-1.8,0.2-2.7c0-0.2,0-0.5-0.1-0.7
		c0-0.1-0.2-0.3-0.2-0.4c0.1-0.9,0.2-1.8,0.3-2.7c0.1-0.6-0.4-1.2,0-1.8c0,0,0-0.1,0-0.1c0-0.3-0.2-0.7-0.1-0.9
		c0.1-0.6,0.4-1.1-0.4-1.5c0.1-0.7,0.2-1.2,0.3-1.8c-0.3-0.1-0.4-0.2-0.7-0.3c0.4-1,0.1-1.7-0.6-1.6c-1.4,0.2-2.7-1-4.1-0.1
		c0,0-0.2,0-0.2,0c-0.9-0.4-1.5,0.1-2,0.7c-0.5,0.5-0.8,1.8-0.6,2.3c0.1,0.3,0.3,0.6,0.3,0.9c0,0.4-0.2,0.8-0.2,1.2
		c0,0.7-0.3,1.5,0.2,2.3c0.2,0.4,0.1,1,0.1,1.5c0,0.9-0.1,1.8-0.2,2.8c0,0.6,0.2,1.2,0.1,1.8c-0.4,1.7-0.2,3.4-0.3,5.1
		c0,0.1,0,0.1,0,0.2c0.5,1.1,0.4,2.2,0.1,3.3c0.2,0.1,0.4,0.3,0.4,0.4c0,0.7-0.1,1.4-0.2,2c-0.1,0.4-0.4,0.9-0.4,1.4
		c0,0.3,0.1,0.7,0.2,1c0.1,0,0.1,0,0.2,0c-0.1,0.3-0.2,0.6-0.3,0.9c-0.1,0.8-0.3,1.6-0.4,2.4c0,0.1,0.2,0.2,0.3,0.3
		c0.7,0.7,0.7,1.1,0,1.9c-0.1,0.1,0,0.4,0,0.7c0.1,0.4,0.3,1,0.2,1.3c-0.3,1.1-0.1,2.1-0.1,3.1c0,0.4-0.1,0.9-0.1,1.4
		c0,0.2,0,0.4,0.1,0.5c0.6,0.4,0.4,0.9,0.4,1.4c0,1.2-0.9,2.3-0.4,3.7c0.2,0.5-0.1,1.3-0.2,2c0,0.2-0.1,0.4-0.1,0.7
		c0,0.4,0.2,0.9,0.1,1.3s-0.1,0.6,0.2,0.9C247,52.1,247.1,52.3,247.2,52.5 M243.2,78.9c0.1-0.3,0.3-0.6,0.2-0.7
		c-0.7-1.3,0-2.6-0.2-3.9c-0.1-0.5-0.1-1,0-1.5c0.3-0.7,0-1.3-0.1-1.9c0-0.2-0.3-0.5-0.2-0.6c0.7-1.2-0.3-2.6,0.4-3.7v-0.1
		c0-1-0.9-2-0.2-3c0,0,0-0.1,0-0.2c0-0.4,0-0.7,0-1.1c0-0.9,0.1-1.8-0.1-2.7c-0.3-0.8-0.1-1.5,0-2.2c0-0.4,0.2-0.7-0.1-1.1
		c-0.2-0.3-0.1-0.8-0.1-1.3c0-0.6,0.2-1.1,0.1-1.7c-0.1-0.9-0.3-1.7-0.4-2.6c0-0.2,0.2-0.4,0.2-0.5c0-0.4,0.1-0.7,0-1
		c-0.1-0.6-0.7-1-0.2-1.7c0-0.1,0-0.2,0-0.4v-1.7c0-0.8,0-1.5,0-2.3c0-0.2-0.2-0.4-0.4-0.5c0.3-0.7,0.4-1.5,0.4-2.2
		c0-1.1,0-2.3,0-3.4c0-0.4-0.2-0.9-0.3-1.3c0-0.3,0-0.6,0-0.8v-2.6c0.3-0.3,0.3-0.3,0.1-0.9c0-0.1,0-0.3,0-0.4
		c0.1-0.7,0.2-1.4,0.2-2.1c0-1-0.1-2-0.1-3c0-0.4-0.1-0.9-0.1-1.4s0.1-0.8,0.1-1.3c0-0.7-0.1-1.4-0.1-2.1c0-0.8,0-1.7,0.1-2.6
		c0.2-0.9-0.6-1.8,0.1-2.6v-0.1c-0.5-0.4-0.2-0.9-0.1-1.4c0-0.3-0.1-0.5-0.2-0.7c0-0.4-0.1-0.7-0.1-1.1c0.1-1,0.3-2,0.3-3
		c0-0.8-0.3-1.6-0.3-2.4c0-0.9,0.4-1.8,0-2.7c0,0,0.1-0.2,0.1-0.3c0-0.3,0.1-0.8-0.1-0.9c-0.4-0.3-1.1-0.7-1.4-0.5
		c-0.6,0.3-0.9,0-1.3-0.3c-0.4-0.4-0.7-0.5-1.2,0c-0.2,0.2-0.6,0.2-0.9,0.2c-0.5,0-1-0.1-1.5-0.1c-0.8-0.1-0.8,0.5-0.9,1.1
		c0,0,0,0,0,0c-0.7,0.4-0.4,1-0.3,1.4c-0.3,0.6-0.6,1-0.7,1.4c-0.3,1-0.6,2-0.8,2.9c0,0-0.1,0.1-0.1,0.1c0,0.3-0.1,0.6-0.2,0.8
		c-0.4,0.7,0.2,1.5-0.5,2.1c-0.5,0.4-0.5,1-0.5,1.5c0,0.8-0.4,1.4-0.6,2c-0.3,0.9-0.4,1.8-0.5,2.7c0,0.3-0.1,0.6-0.2,0.8
		c0,0.3-0.1,0.5-0.2,0.8c-0.1,0.6-0.6,1.1-0.6,1.7c0,0.9-0.8,1.6-0.4,2.6c0,0-0.2,0.2-0.3,0.3c-0.1,0.2-0.3,0.4-0.2,0.6
		c0.4,0.6-0.1,1-0.4,1.5c-0.1,0.2-0.2,0.5-0.1,0.7c0.1,0.6,0.6,1.3-0.4,1.6c-0.1,0-0.2,0.3-0.2,0.4c0,0.4,0,0.7,0,1.1
		c-0.1,0.5-0.3,0.9-0.4,1.4c-0.3,1.2-0.1,2.6-1,3.7c-0.1,0.1-0.1,0.3-0.1,0.5c0,0.3-0.1,0.5-0.2,0.7c-0.1,0.3-0.5,0.6-0.4,0.7
		c0.3,0.6-0.1,1-0.4,1.5c-0.1,0.3-0.3,0.6-0.2,0.8c0.4,0.8,0,1.3-0.4,1.9c-0.2,0.3-0.4,0.6,0,1c0.2,0.2,0.4,0.6,0.3,0.7
		c-0.6,1-1.3,2-1,3.3c0,0.1,0,0.2,0,0.3c-0.4,0.7-0.1,1.6-1,2.1c-0.1,0,0,0.4-0.1,0.6c-0.1,0.8,0,1.6-0.2,2.4
		c-0.2,0.7-1,1.3-0.6,2.2c0,0.1-0.1,0.3-0.2,0.4c-0.7,0.8-0.7,1.3,0,2.2c-0.1,0.1-0.2,0.2-0.3,0.4c-0.7,1.5-1.2,2.9-1.2,4.6
		c0,0.4-0.1,0.9-0.3,1.2c-0.7,1.1-0.9,2.2-0.8,3.1c-0.2,0.5-0.4,0.9-0.5,1.2c-0.1,0.3,0,0.6-0.1,0.8c-0.3,1.1-1.1,2-1.2,3.2
		c0,0.6-0.2,1.1-0.3,1.7c0.1,0.1,0,0.1,0,0.2c-0.3,0.8-0.5,1.5-0.7,2.3c0,0.1,0,0.3,0,0.4c-0.6,0.9-0.7,1.9-0.9,2.9
		c-0.1,0.4,0,0.8,0,1.3c0,0.2-0.1,0.4-0.2,0.5c-0.1,0.2-0.4,0.3-0.4,0.5c-0.3,0.9-0.5,1.8-0.8,2.6c-0.3,0.7,0,1.4-0.5,2
		c-0.4,0.4-0.4,0.9,0.1,1.3c-0.9,1-1.4,2-1,3.3c2.8,0.1,5.6,0.2,8.1,0.3c0.3-0.4,0.5-0.8,0.7-1.2c0.1-0.2,0.3-0.4,0.3-0.7
		c0-0.6-0.1-1.1-0.1-1.7c0-0.2,0.1-0.4,0.2-0.5c0.2-0.3,0.4-0.6,0.4-0.9c0.2-0.6,0.4-1.2,0.5-1.8c0.1-0.5,0.2-1,0.3-1.5
		c0.3-0.6,0.5-1.5,0.4-2.2c-0.1-0.6,0.8-1.6,1.3-1.3c1,0.5,2,0,2.9,0c0.8,0,1.5-0.2,2.2,0.3c0.1,0,0.4,0,0.4,0
		c0.5-0.7,1.4-0.4,1.7-0.3c0.7,0.4,1.3-0.1,1.9,0c-0.5,1.5,0.6,2.9,0,4.4c0,0.1,0,0.3,0,0.4c0.6,0.9,0.2,1.9,0.4,2.8
		c0,0.1-0.1,0.2-0.1,0.4c0,0.3-0.1,0.5-0.1,0.7c0,0.8,0.2,1.6,0.2,2.4c0,0.3-0.1,0.5-0.1,0.9c0.5,0,0.8,0,1.2-0.1c0.7,0,1.3,0,1.9,0
		c0.7-0.1,1.5-0.2,2.3-0.2c0.6,0,1.3-0.5,1.7-0.3c0.9,0.4,1.3,0.5,1.5-0.6c0-0.1,0.2-0.2,0.3-0.3c0.1-0.1,0.2-0.3,0.1-0.4
		c-0.1-0.5-0.4-0.9-0.5-1.4c-0.1-0.3-0.2-0.7-0.1-0.9c0.2-0.7,0.4-1.3,0.2-1.9c0-0.1,0-0.3,0-0.4c0.1-0.8,0.3-1.6,0.4-2.4
		c0.1-0.8-0.7-1.6-0.1-2.5C243.5,79.3,243.3,79,243.2,78.9 M184.3,33c-0.2,0.5-0.5,0.8-0.5,1.1c0,1,0.1,2,0.1,3
		c0,1.1,0.6,2.4-0.4,3.4c0,0,0,0.3,0.1,0.4c0.6,0.7,0.5,1.4,0,2c-0.1,0.1,0,0.5,0,0.7c0.1,0.6,0.4,1.3,0.2,1.8
		c-0.2,1-0.5,1.9,0.1,2.8c0.1,0.1,0,0.6,0,0.6c-0.6,0.1-0.4,0.7-0.4,0.9c0.3,0.5,0.2,0.9-0.2,1.3c-0.1,0,0,0.4,0.2,0.6
		c0.3,0.4,0.4,0.7,0,1.1c-0.3,0.3-0.3,0.5-0.1,1c0.2,0.4,0,0.9,0,1.4c-0.1,0.6-0.5,1.4-0.3,1.8c0.4,0.7,0.3,1.3,0,1.9
		c0,0.1,0.1,0.3,0.2,0.4c0.3,0.6,0.7,1.2-0.1,1.8c-0.1,0,0,0.5,0,0.7c0.4,0.5,0.5,1.1,0.2,1.7c-0.1,0.4-0.4,0.8-0.3,1.1
		c0.4,1.3,0.4,2.6-0.3,3.7c-0.3,0.4-0.1,0.8,0.3,1.1c0.2,0.1,0.3,0.4,0.3,0.7c0,0.3,0,0.7,0,1c0,0.1,0.1,0.3,0,0.4
		c-0.6,1.3-0.6,2.6-0.5,4c0,0.1,0,0.4,0,0.4c0.7,0.7,0.3,1.5,0,2c-0.2,0.5-0.3,0.9-0.1,1.4c0,0.2,0,0.4,0,0.6c0,0.6-0.1,1.2,0.1,1.7
		c0.2,0.4,0.2,0.7-0.1,1.1c-0.6,0.8-0.5,1.2,0.1,2c0.1,0.1,0.2,0.4,0.1,0.5c-0.5,1.4-0.7,2.9-0.4,4.4c0.2,0,0.4,0.1,0.5,0.1
		c0.8-0.3,1.6,0.4,2.4-0.1c0.1-0.1,0.5,0,0.6,0.1c0.4,0.5,0.8,0.2,1.2,0.1c0.1,0,0.3-0.1,0.4-0.1c0.9,0.1,1.8,0.3,2.7,0.4
		c0.2-0.6,0.3-1.2,0.5-1.7c0.4-0.8,0.8-1.5,0.3-2.4c0.7-0.3,0.9-0.7,0.7-1.4c-0.1-0.5,0-1.2,0.1-1.8c0.1-0.5,0.4-1,0.5-1.5
		c0.2-0.7,0.4-1.5,0.5-2.2c0.1-0.8,0.9-1.4,0.5-2.3c-0.3-0.8,0.1-1.3,0.6-1.9c0.2-0.2,0.2-0.5,0.3-0.8c0-0.6,0-1.3,0.1-1.9
		c0.1-0.8,0.9-1.5,0.7-2.5c0-0.4,0-0.8,0.1-1.2c0.2-0.9,0.5-1.8,0.7-2.8c0.3-1.2,0.7-2.5,0.9-3.7c0-0.3-0.1-0.6-0.1-0.9
		c0.3-0.6,0.5-1.5,1-2.2c0.5-0.8,0.4-1.7,0.5-2.6c0-0.3,0.2-0.7,0.1-0.9c-0.3-0.4-0.4-0.7,0.1-0.9c0.1-0.1,0.2-0.3,0.2-0.4
		c0.3-1,0.7-2,0.9-2.9c0-0.2,0-0.5,0-0.7c0-0.3-0.2-0.7-0.1-0.8c0.6-0.4,0.4-1,0.4-1.6c0-0.3,0-0.7,0.1-0.8c0.6-0.5,0.6-1.2,0.7-1.9
		c0.1-0.6,0.4-1.2,0.4-1.8c0-0.9,0.3-1.7,0.4-2.5c0.1-0.7,0.6-1.4,0.5-2.2c0-0.4,0.3-0.9,0.4-1.4c0.1,0,0.2,0,0.3,0.1
		c0,0.7-0.1,1.4-0.2,2.1c0,0.4-0.2,1,0,1.2c0.5,0.5,0.1,0.9,0,1.3c0,0.1-0.1,0.4,0,0.5c0.7,0.5,0.3,1.1,0.3,1.7
		c0,0.6-0.4,1.1-0.4,1.7c0,0.8-0.3,1.7,0.3,2.5c0,0-0.1,0.2-0.1,0.3c0,0.7-0.3,1.4,0,1.9c0.3,0.5,0.2,0.8-0.1,1.2
		c-0.1,0.1-0.1,0.4-0.1,0.5c0,0.2,0.1,0.5,0,0.7c-0.3,0.9-0.6,1.8,0,2.6c-0.1,0.4-0.3,0.9-0.2,1.2c0.3,0.7,0.2,1.2,0,1.8
		c0,0.1-0.2,0.4-0.1,0.4c0.6,1.1,0.3,2.2,0,3.1c-0.3,0.8,0.1,1.5,0,2.2c-0.3,1.2-0.2,2.4-0.4,3.6c0,0.4-0.4,0.7,0.1,1
		c0.1,0.1,0.2,0.6,0.1,0.7c-0.7,0.4-0.1,1-0.2,1.5c0,0.4,0.1,0.8,0,1.2c0,0.7-0.1,1.4-0.1,2.1c0,0.3,0,0.5-0.1,0.8
		c-0.1,0.6-0.4,1.1,0.3,1.6c0.1,0,0,0.3,0,0.4c-0.1,0.4-0.4,0.9-0.5,1.3c-0.1,0.6,0,1.2,0,1.9c0,0.4,0,0.7,0,1.1
		c0,0.7,0.2,1.6-0.2,2.2c-0.4,0.8-0.2,1.4,0,2.1c0,0.1,0.1,0.3,0.1,0.4c-0.1,0.6-0.5,1.1-0.1,1.8c0.2,0.4,0,1.1,0,1.6
		c0,0.6,0.3,0.5,0.7,0.4c0.2-0.1,0.5-0.2,0.7-0.2c0.8,0.1,1.6,0.3,2.5,0.3c0.4,0,0.8-0.4,1.1-0.3c0.7,0.1,1.5,0.4,2.2,0.5
		c0.5,0.1,1.3-0.4,1.2-0.8c-0.1-1,0-1.8,0.6-2.6c0,0-0.1-0.2-0.1-0.4c0-0.1-0.1-0.4,0-0.4c0.6-0.5,0.2-1,0-1.5
		c0.5-0.2,1-0.5,0.5-1.1c-0.1-0.1,0-0.4,0-0.6c0.2-0.7,0.6-1.5,0.7-2.2c0.1-0.7,0.6-1.5,0.3-2.3c0-0.1,0.1-0.4,0.2-0.5
		c0.2-0.3,0.4-0.6,0.5-0.8c0.3-0.5,0.5-1.1,0.7-1.7c0-0.2,0-0.4,0-0.7c0-0.4-0.2-0.8,0-1.1c0.3-0.6,0-1.4,0.7-1.8c0,0,0-0.2,0-0.3
		c0.1-0.7,0.1-1.4,0.3-2.1c0.2-0.8,0.3-1.7,0.6-2.5c0.4-1,0.7-1.9,1.1-2.9c0-0.1,0.1-0.3,0-0.4c-0.3-0.9,0.2-1.7,0.5-2.5
		c0.2-0.4,0.6-0.7,0.1-1.2c0,0,0-0.3,0-0.4c0.3-0.7,0.6-1.4,0.9-2.1c0.2-0.4,0.4-0.7,0-1.1c-0.1-0.1-0.2-0.5-0.1-0.6
		c0.6-0.4,0.4-0.8-0.1-1.3c0.3-0.3,0.6-0.5,0.9-0.7c0.1-0.1,0.3-0.3,0.3-0.4c-0.3-0.7-0.1-1.2,0.2-1.9c0.2-0.4,0.1-1,0.2-1.5
		c0-0.4,0.2-0.7,0.3-1c0.1-0.4,0.3-0.7,0.4-1.1c0.4-1.1,0.9-2.2,0.8-3.6c0-0.4,0.3-0.9,0.4-1.4c0.2-0.5,0.5-1,0.4-1.5
		c-0.3-1.1,0.2-2,0.3-2.9c0.1-0.8,0.9-1.5,0.7-2.5c0-0.1,0.1-0.2,0.2-0.3c0.4-0.4,0.9-0.8,0.5-1.5c0,0,0.1-0.2,0.1-0.3
		c0.3-0.3,0.5-0.6,0.1-1c-0.1-0.1-0.1-0.3-0.1-0.4c0.3-0.8,0.3-1.6,0.7-2.4c0.3-0.5,1-1.2,0.2-1.9c0,0,0.1-0.3,0.2-0.4
		c0.3-0.6,0.6-1.2,0.8-1.8c0.1-0.2-0.3-0.5-0.2-0.7c0.3-0.8,0.3-1.7,1-2.3c0.1-0.1,0.2-0.5,0-0.7c-0.2-0.5-0.6-0.9,0.1-1.2
		c0.1,0,0.1-0.2,0.1-0.3c0-0.8,0-1.5,0.6-2.2c0.4-0.6,0.4-1.5,0.5-2.3c0.1-0.6,0-1.2,0.6-1.7c0.1,0,0-0.4,0-0.6v-1.2
		c0-0.4,0.7-0.8,0.1-1.4c0,0,0-0.2,0-0.2c0.3-0.5,0.6-0.9,0.8-1.4c0.3-0.6,0.5-1.3,0.7-1.9c0-0.1-0.1-0.2-0.1-0.4
		c0-0.2-0.1-0.4-0.1-0.6c0.2-0.8,0.4-1.7,0.6-2.2c-0.2-1-0.4-1.7-0.4-2.2c-0.5,0-0.9,0-1.3,0h-0.5c-0.9,0-1.7-0.4-2.6,0
		c-0.1,0-0.3,0-0.4-0.2c-0.5-0.6-1-0.2-1.5,0c-0.3,0.2-0.7,0.3-1,0.4c0,0-0.1-0.1-0.2-0.2c0,0.4-0.1,0.9-0.2,1.4c0,0.5,0,1,0,1.5
		c-0.1,0.6,0.3,1.4-0.5,1.8c-0.2,0.1-0.2,0.5-0.2,0.8c0,0.5,0,0.8-0.4,1.3c-0.4,0.5-0.8,1.1-0.4,1.8c0,0.1,0,0.2,0,0.3
		c-0.4,0.6-0.4,1.3-0.6,2c-0.2,0.9-0.5,1.7-0.6,2.6c0,0.3,0.2,0.7,0.1,1c-0.1,0.4-0.4,0.7-0.7,1c0,0,0,0.1,0,0.1
		c-0.1,0.7-0.2,1.3-0.3,2c-0.1,0.6-0.4,1.2-0.3,1.9c0.1,0.5-0.1,1.1-0.3,1.5c-0.4,0.8-0.9,1.6-0.6,2.6c0,0.2-0.2,0.5-0.3,0.8
		c-0.1,0.3-0.4,0.7-0.4,1c0.2,1.4-0.4,2.5-1,3.6c-0.1,0.1-0.1,0.4,0,0.5c0.5,0.8,0.1,1.6-0.2,2.4c-0.2,0.6-0.7,1.1-0.9,1.6
		c0,0.1,0,0.3,0.1,0.5c0.1,0.5,0.3,1-0.3,1.4c-0.1,0.1-0.2,0.5-0.1,0.7c0.1,0.6,0.4,1.2-0.3,1.7c-0.2,0.2-0.4,0.8-0.3,1
		c0.6,0.8-0.1,1.2-0.4,1.7c-0.1,0.2-0.4,0.4-0.4,0.7c0.1,1-0.2,1.9-0.6,2.8c-0.1,0.2-0.1,0.5,0,0.7c0.2,0.5,0.1,0.9-0.2,1.2
		c-0.1,0.2-0.3,0.4-0.3,0.6c-0.1,1.1-0.2,2.2-0.3,3.4c0,0.1-0.1,0.2-0.2,0.3c-0.1,0.3-0.3,0.5-0.4,0.8c-0.1,0.6-0.2,1.2-0.4,1.8
		c-0.1,0.4-0.4,0.8-0.5,1.2c-0.2-0.9-0.4-1.8,0-2.7c0-0.1,0-0.2,0-0.3c-0.1-0.6-0.3-1.1-0.3-1.7c0-0.6,0.3-1.2,0.4-1.9
		c-0.3-0.2-0.5-0.4-0.6-0.4c0.2-0.4,0.4-0.6,0.3-0.7c-0.5-0.8,0.4-1.8-0.4-2.6c0,0,0-0.2,0.1-0.4c0.1-0.9,0.1-1.7,0.2-2.6
		c0-0.7,0-1.5,0.1-2.2c0-0.7,0.4-1.5,0.2-2.1c-0.2-0.7,0-1.4,0-2c0-0.7-0.5-1.3-0.1-2c-0.7-0.4-0.3-1.2-0.2-1.5
		c0.5-1.4-0.2-2.8,0.2-4.1c0.2-0.6-0.1-1.3-0.1-1.9c0-1.2,0.2-2.4,0.1-3.5c-0.1-1.3,0.7-2.6,0-4c0,0,0-0.1,0-0.1
		c0.2-0.8-0.4-1.7,0.2-2.5v-0.1v-4.4c0-0.5,0.1-1.1,0.1-1.6c0-0.4-0.1-0.9,0-1.3c0.2-0.7,0.5-1.4,0.7-2.1c0-0.2,0-0.4,0-0.5
		c0-0.4-0.1-0.7,0-1c0.2-0.7,0.7-1.3,0.1-2c-0.2-0.3-0.2-0.9-0.4-1.3c-0.2-0.4-0.4-0.7-0.7-1c-0.1-0.1-0.5,0.2-0.9,0.4
		c-0.5-0.1-1.2-0.3-1.9-0.3c-0.6,0-1.3-0.2-1.8,0.5c0,0.1-0.4,0-0.6,0c-0.3,0-0.5-0.2-0.6-0.2c-0.4,0.4-0.7,0.7-0.9,1.1
		c-0.1,0.1-0.1,0.4-0.1,0.5c-0.2,1,0,2-0.6,2.9c-0.3,0.4-0.4,0.8-0.3,1.4s-0.1,1.4-0.4,1.8c-0.4,0.6-0.4,1-0.3,1.6
		c0,0.4,0,0.9-0.1,1.4c-0.1,0.5-0.5,1-0.5,1.5c0,0.7-0.4,1.2-0.7,1.8c-0.2,0.4-0.5,0.9-0.3,1.2c0.5,1-0.1,2-0.3,2.9
		c-0.2,1.1-0.9,2-0.7,3.2c0,0.1,0,0.2,0,0.3c-0.5,0.6-0.7,1.3-0.5,2c0,0.1-0.1,0.3-0.2,0.4c-0.1,0.4-0.4,0.7-0.4,1.1
		c-0.1,0.6-0.1,1.1-0.2,1.7c0,0.4-0.1,0.7-0.1,1c-0.4,0.6-0.8,1.2-0.7,1.8c0.2,1.1-0.5,2-0.6,3c-0.1,0.9-0.9,1.6-0.6,2.6
		c0.1,0.3,0.2,0.6,0.3,0.8c-0.2,0.3-0.4,0.4-0.5,0.7c-0.2,0.4-0.4,0.8-0.6,1.2c-0.1,0.3-0.3,0.7-0.2,0.9c0.1,0.3-0.1,0.6,0,0.7
		c0.2,1,0.1,1.8-0.5,2.6c-0.2,0.3-0.1,0.7-0.2,1.1c-0.1,0.6-0.3,1.1-0.4,1.7c-0.1,0.6-0.1,1.3-0.4,1.8c-0.3,0.4-0.3,0.7-0.2,1.1
		c0.3,0.9,0.2,1-0.5,1.1c-0.2-0.3-0.4-0.6-0.5-0.8c0.7-0.4,0.7-0.4,0.4-1.3c-0.1-0.2-0.2-0.5-0.1-0.7c0.4-0.9,0.4-1.8,0.3-2.7
		c0-0.3-0.2-0.6-0.3-1c0-0.2,0.2-0.5,0.2-0.8c0-0.6,0-1.2,0.1-1.8c0.2-1,0.1-2.1,0.1-3.1c0-0.7,0-1.3,0.1-2c0-0.4,0.3-1.1,0.2-1.2
		c-0.9-0.5-0.4-1.1-0.2-1.8c0-0.1,0-0.3,0-0.4c0.1-1,0.3-1.9,0.4-2.9c0-0.2,0-0.6-0.2-0.7c-0.3-0.3-0.2-0.5-0.2-0.8
		c0.1-1,1.1-2.1-0.1-3c0,0,0-0.1,0-0.1c0.2-0.3,0.4-0.6,0.4-1c0-0.5-0.1-1,0-1.5c0-0.5,0.3-1.1-0.4-1.4c0.5-0.7,0.5-0.7,0.2-1.5
		c0-0.1,0-0.4,0-0.6c0.5-0.9,0.4-1.9,0.4-2.9c0-0.7-0.2-1.5,0-2.2c0.1-0.8,0.3-1.5,0.3-2.4c0-1-0.6-1.7-0.4-2.7
		c0.6-0.3,0.7-0.7,0.1-1.2C192,8.9,192,8.8,192,8.7c0.2-0.8,0.4-1.7,0.6-2.5c0-0.1-0.1-0.3-0.2-0.4c-0.2-0.4-0.5-0.9-0.1-1.5
		c0.1-0.1,0.1-0.4,0-0.5c-0.2-0.3-0.5-0.5-0.8-0.8c-0.3-0.4-1.9-1.1-2.4-1c-0.1,0.2-0.2,0.4-0.3,0.6c-0.5-0.1-1-0.2-1.4-0.4
		c-0.5,0.5-1.1,0.3-1.7,0.2c-0.1,0-0.4,0-0.5,0c-0.3,0.7-0.6,1.5-0.8,2.2c-0.1,0.3,0,0.7,0.1,1c0,0.3,0.1,0.7,0.2,1
		c0.1,0.4,0.1,0.8,0.1,1.2c0,0.3,0,0.7-0.2,0.8c-0.7,0.4-0.3,0.9-0.2,1.4c0,0.2,0.2,0.5,0.2,0.7c0,0.7-0.2,1.3-0.2,1.9
		c0,0.4,0,0.9-0.1,1.4c0,0.5-0.6,0.9,0,1.4c0,0-0.1,0.2-0.1,0.3c0,0.2,0,0.4,0,0.7s0.1,0.4,0,0.7c-0.1,1-0.3,2-0.5,3V20
		c0.5,0.4,0.3,1,0.3,1.5c0,0.4,0.1,0.7,0.2,1c-0.3,0.9-0.6,1.7-0.2,2.7c0.2,0.5,0.2,1.1,0.2,1.7c-0.1,1.2-0.3,2.4-0.4,3.6
		c0,0.2,0,0.4,0,0.7C183.7,31.9,183.4,32.6,184.3,33 M108.1,12.1h-0.3c0-0.6,0.2-1.2,0.2-1.8c0-1,0-1.9-0.1-2.9
		c-0.1-1.2,0.7-2.4,0-3.7c-0.2-0.1-0.6-0.3-1-0.5v0.2c-1.1,0-2.1,0-3.2,0c-0.5,0-1.1,0.2-1.6,0.3c-0.2,0-0.4,0.2-0.6,0.1
		c-0.6-0.1-1.1-0.3-1.7-0.4c0,0.1-0.1,0.3-0.1,0.4c-0.1,0.7,0,1.4-0.7,1.9C99,5.8,99,6,99,6.2c0,0.3,0.2,0.7,0,1
		c-0.7,0.9-0.7,1.8-0.4,2.7c-0.2,0.4-0.4,0.7-0.5,1.1c-0.1,0.3-0.2,0.5-0.4,0.8c-0.2,0.4-0.9,0.7-0.4,1.5c0,0.1-0.1,0.3-0.1,0.5
		c0,0.3,0,0.6,0,0.8c0,0.1,0.1,0.3,0,0.4c-0.8,0.5,0.3,1.7-0.8,2V17c0,1.1-0.5,1.9-0.9,2.8c-0.1,0.3,0,0.7,0,1c0,0.3-0.5,0.7-0.4,1
		c0.3,0.6,0,1-0.2,1.5c-0.1,0.5-0.2,1.1-0.3,1.6c0,0.3-0.1,0.6-0.3,0.8c-0.4,0.6-1,1.1-0.3,1.9c0.1,0.1,0,0.3,0,0.4
		c0,0.5-0.3,1.1-0.4,1.5c-0.1,0.6-0.4,1.1-0.7,1.5c-0.2,0.3-0.5,0.8-0.4,1.1c0.2,0.6,0,1-0.3,1.5c-0.2,0.4-0.3,0.8-0.4,1.2
		c-0.1,0.5-0.1,1.1-0.1,1.6c-0.1,0.6-0.2,1.2-0.3,1.8c0,0.1-0.1,0.3-0.2,0.4c-0.4,0.6-0.8,1.2-0.7,2.1c0,0.3-0.2,0.6-0.3,0.9
		c-0.2,0.4-0.6,0.9-0.4,1.2c0.3,0.7-0.1,1.1-0.4,1.5c-0.2,0.3-0.2,0.7-0.3,1c0.1,0,0.2,0,0.2,0.1c-0.5,0.4-0.7,0.7-0.4,1.3
		c0.1,0.2,0,0.4-0.1,0.7c-0.1,0.3-0.4,0.5-0.4,0.8c-0.1,0.6-0.1,1.2-0.2,1.8c0,0.8-0.4,1.4-0.9,2c-0.3,0.3-0.5,0.6-0.1,1.1
		c0.2,0.4,0.1,1.1,0,1.5c-0.1,0.4-0.6,0.8-1,1.3c-0.1-0.3-0.4-0.5-0.4-0.7c0-0.4,0.2-0.8,0.3-1.3c0.2-0.6,0.7-1.2,0-1.9
		c-0.2-0.1-0.1-0.7,0-1c0.4-1.1,0.8-2.1-0.1-3.1c0,0,0-0.3,0-0.4c0.3-0.5,0.3-1-0.1-1.5c-0.1-0.1-0.1-0.5,0-0.6
		c0.6-0.6,0.4-1.4,0.7-2c0,0-0.2-0.2-0.3-0.3c-0.1-0.3-0.4-0.6-0.4-0.8c0.1-0.6,0.3-1.2,0.5-1.8c0.2-0.5,0.3-0.9-0.3-1.2
		c0.1-0.4,0.4-0.8,0.4-1.2c0-0.5-0.2-1-0.5-1.5c-0.3-0.4-0.1-0.7,0-1.1c0.3-0.6,0.8-1.2,0.3-2c-0.5-0.9-0.4-1.8,0.2-2.7
		c0.1-0.1,0-0.4,0-0.7c-0.1-0.6-0.3-1.2-0.3-1.8c0-0.6,0.4-1.4,0.2-1.9c-0.2-0.7-0.1-1.2,0-1.8c0-0.3,0.2-0.8,0.1-0.9
		c-0.5-0.5-0.2-1-0.2-1.5c0-0.3,0-0.7,0-1c0-0.8-0.5-1.6,0.2-2.3c0.1-0.1,0-0.4,0-0.4c-0.3-0.5-0.5-1-0.3-1.6c0.2-0.5,0-1.1,0-1.7
		c0-0.7,0-1.4,0.2-2c0.3-0.9,0.1-1.9-0.5-2.5c0.5-0.8,1.2-1.6,0.4-2.6c-0.1-0.1,0-0.4,0-0.6c0-0.7,0.6-1.3,0.2-2
		c-0.1-0.2-0.2-0.5-0.1-0.7c0-0.6-0.5-0.8-0.8-0.7c-0.5,0.2-0.8,0-1.2-0.2c-0.2-0.1-0.5-0.2-0.7-0.1c-0.4,0-0.8,0.3-1.2,0.3
		c-0.8,0-1.6-0.1-2.5-0.2c-0.1,0-0.3,0.1-0.4,0.1c-0.4,0.1-0.7,0.2-1.1,0.2c-0.2,0-0.5,0-0.5,0c-0.1,0.2,0,0.4,0,0.7
		c0,0.4,0,0.8-0.1,1.2c-0.2,0.5-0.6,1-0.6,1.5c0,1-0.3,1.8-0.8,2.7c-0.3,0.4-0.4,1-0.4,1.5c0.1,0.8-0.2,1.4-0.4,2.1
		c-0.3,0.9-1.3,1.6-0.7,2.7c0,0,0,0.1,0,0.2c-0.2,0.7-0.6,1.3-0.7,1.9c-0.1,0.9-1.1,1.7-0.4,2.7c0,0,0,0.1-0.1,0.2
		c-0.4,1.1-0.7,2.1-1.1,3.2c-0.2,0.7-0.7,1.3-0.7,1.9c0,0.8-1.1,1.4-0.4,2.3c0,0,0,0.2-0.1,0.3c-0.7,0.7-0.8,1.7-1,2.6
		c-0.2,0.6-0.1,1.3-0.3,2c-0.2,0.7-0.6,1.2-0.8,1.9c-0.2,0.6-0.1,1.3-0.4,1.9c-0.1,0.2,0,0.5,0,0.8c-0.1,0.2-0.3,0.4-0.4,0.6
		c-0.2,0.6-0.4,1.3-0.6,1.9c0,0.1-0.1,0.3,0,0.4c0.3,0.7,0,1.3-0.4,1.9c-0.4,0.7-1.1,1.3-0.4,2.2c0.2,0.2,0.3,0.7-0.1,0.8
		c-1,0.3-0.6,1.4-1,2c-0.3,0.4-0.3,1-0.4,1.5c0,0.2-0.2,0.4-0.2,0.5c0.1,0.4,0.1,0.8-0.4,1.1c-0.1,0-0.1,0.3-0.1,0.4
		c-0.2,1-0.4,1.9-0.5,2.9c0,0-0.1,0.1-0.2,0.1c-0.4,0.2-0.4,0.5-0.2,0.9c0.2,0.4,0.4,0.9-0.4,1.1c-0.1,0-0.3,0.4-0.3,0.6
		c-0.1,0.4,0.1,1.1-0.1,1.3c-0.5,0.5-0.4,1-0.3,1.5c0.1,0.6,0,1-0.6,1.1c-0.2,0-0.4,0.4-0.4,0.6c0.1,0.9,0.1,1.8-0.3,2.6
		c-0.3,0.4-0.5,0.9-0.7,1.4c-0.3,0.7-0.4,1.5-0.7,2.2c0,0.2-0.2,0.4-0.2,0.5c0.2,0.5-0.1,0.7-0.4,1.1c-0.2,0.3-0.3,0.6-0.4,0.9
		c0.1,0,0.1,0.1,0.2,0.1c-0.4,0.4-0.7,0.7-0.4,1.2c0.1,0.1-0.2,0.5-0.3,0.7c-0.1,0.2-0.4,0.5-0.3,0.6c0.4,0.7,0,1.5-0.2,2.2
		c-0.4,1.6-1,3.2-1.5,4.8c0,0.1-0.1,0.2-0.2,0.2c-0.4,0.5-0.1,1.4-0.8,1.8v0.1c0.3,0.5,0,0.9-0.1,1.4c-0.1,0.8-0.2,1.5-0.6,2.3
		c-0.5,0.9-0.7,2-1.1,3c0,0.2,0,0.7,0.2,0.7c0.2,0.1,0.7,0.1,0.8,0c0.3-0.5,0.7-0.5,1.2-0.4c0.6,0.1,1.1,0.4,1.6-0.1
		c0,0,0.2,0,0.3,0.1c0.8,0.3,1.6,0.6,2.4,0.7c0.5,0,1.2-0.2,1.5-0.5c0.5-0.8,1-1.7,1-2.6c0-0.7,0.2-1.2,0.4-1.8
		c0.1-0.3,0.3-0.5,0.4-0.7c0.1-0.2,0.1-0.4,0-0.6c-0.2-0.7-0.5-1.3,0.4-1.8c0.1,0,0.1-0.2,0.2-0.3c0.3-1.2,0.4-2.5,1.1-3.6
		c0.1-0.2,0-0.4,0.1-0.6c0-0.2,0-0.5,0-0.6c0.7-0.4,0.4-0.9,0.2-1.2c0.3-0.6,0.5-1,0.6-1.5c0.1-0.3,0-0.7,0.1-1
		c0.3-1,0.6-1.9,1.2-2.7c0.2-0.2,0.3-0.6,0.2-0.7c-0.4-0.8-0.3-1.3,0.4-1.8c0.1-0.1,0-0.4,0-0.7c0-0.3,0-0.9,0-0.9
		c0.6-0.1,0.4-0.7,0.4-1c0-0.4,0-0.8,0.5-1c0.1,0,0.2-0.4,0.1-0.6c-0.3-0.6-0.1-1,0.4-1.3c0.7-0.5,0.3-1.5,0.9-2.1
		c0,0-0.1-0.2-0.2-0.4c-0.4-0.7-0.4-0.9,0.3-1.4c0.4-0.2,0.4-0.4,0.2-0.8c-0.2-0.3-0.3-0.5,0.1-0.8c0.4-0.3,0.9-1,0.8-1.2
		c-0.5-0.8,0.1-1.5,0.1-2.2c0-0.2,0-0.4,0-0.5c0.1-0.4,0.3-0.8,0.4-1.2c0.1-0.2,0.3-0.3,0.4-0.4c0.2-0.8,0.4-1.7,0.4-2.5
		c0-1.4,1.4-2.2,1.5-3.7c0-0.7,0.2-1.4,0.7-1.9c0,0,0-0.2,0-0.3c0-0.3-0.2-0.6-0.1-0.8c0.1-0.7,0.3-1.3,0.5-1.9
		c0.1-0.3,0.1-0.6,0.2-0.8c0.4-1,0.8-1.9,1.2-2.9c0-0.1,0-0.3,0-0.4c-0.6-0.9,0.2-1.3,0.5-1.9c0.2,0.8,0.3,1.5,0.5,2.4
		c-0.4,0.4-0.4,0.8,0.2,1.5c-0.3,0.5-0.7,1-0.4,1.7c0.2,0.4,0.4,0.9,0.2,1.3c-0.4,1-0.6,1.9-0.4,3c0,0.2-0.1,0.5-0.1,0.7
		c0,0.7,0.7,1.3,0,2c0,0,0,0.2,0,0.4c0,0.5,0,1.1,0,1.6c0,0.1,0,0.3,0.1,0.4c0.1,0.3,0.3,0.6,0.2,0.8c-0.2,1.3-0.4,2.6-0.6,3.8v0.1
		c0.7,0.7,0,1.4,0,2.1c0,0.3,0.1,0.6,0.2,0.9h0.2c0,0.1-0.1,0.2-0.1,0.4c-0.1,0.5-0.5,1.2-0.4,1.4c0.4,0.4,0.1,0.7,0,1.1
		c0,0.4-0.3,0.7,0.2,1c0.1,0.1,0.1,0.5,0.1,0.7c0,1.2,0,2.4,0.1,3.5c0,0.3,0,0.5,0,0.8c0,0.7-0.1,1.3-0.1,2c0,0.2,0,0.4,0,0.7
		c-0.4,0.9-0.4,1.8-0.2,2.8c0.1,0.7,0.6,1.6-0.2,2.3c0,0,0,0.2,0,0.3c0.5,0.7,0.3,1.5,0,2.1c-0.3,0.8,0,1.6,0.2,2.3
		c0.2,0.6,0.3,1.1-0.2,1.7c-0.1,0.1-0.2,0.6-0.1,0.6c1.2,0.8-0.3,2.1,0.4,2.9c0,0-0.1,0.1-0.1,0.2c-0.1,0.2-0.3,0.4-0.3,0.7
		c0,0.5-0.8,1.1,0,1.6c-0.6,0.5,0,0.9,0.2,1.3c0,0.1,0,0.3,0,0.4c-0.9,0.8,0.2,1.5,0.1,2c0.5,0,0.8,0.1,1.2,0.1
		c0.7,0,1.4,0.4,2.1-0.1c0.3-0.2,0.7-0.2,1.1,0.1c0.4,0.2,1,0.7,1.4,0c0-0.1,0.4,0,0.5,0c1.1,0.3,1.5,0.1,1.8-0.9
		c0.1-0.5,0.1-1.1,0.2-1.6c0-0.3,0.1-0.5,0.2-0.7c0.1-0.3,0.4-0.6,0.4-0.9c0.3-0.9,0.5-1.8,0.7-2.8c0-0.1,0-0.2,0-0.3
		c-0.7-0.7,0-1.4,0.4-1.8c0.4-0.5,0.6-0.8,0.2-1.1c0.2-0.3,0.6-0.6,0.6-0.8c0-0.6,0.6-1.1,0.2-1.7c0,0,0.3-0.3,0.4-0.4
		c0.1-0.2,0.2-0.4,0.2-0.6c0-0.8,0-1.6,0-2.5c0,0,0-0.1,0.1-0.1c1.1-0.9,1-2.1,1-3.3c0-0.4,0.2-0.9,0.3-1.4c0.1-0.4,0.4-0.8,0.5-1.3
		c0.2-0.8,0.4-1.7,0.6-2.6c0.2-0.9,0.4-1.8,0.6-2.8c0.1-0.6,0.4-1.1,0.6-1.6c0.1-0.4,0.4-0.8,0.4-1c-0.4-0.6,0-1.1,0.2-1.5
		c0.4-0.7,1.1-1.3,0.4-2.2c0,0,0-0.1,0-0.2c0.5-0.1,0.6-0.5,0.5-1c0-0.5,0-1,0.2-1.4c0.1-0.4,0.4-0.7,0.6-1c0.2-0.3,0.3-0.5,0-0.8
		c-0.2-0.2-0.2-0.7,0-0.9c0.6-0.7,0.7-1.3,0.3-2.1c0.7-0.1,0.8-0.4,0.7-1.1c-0.1-0.8-0.4-1.7,0.5-2.3c0,0,0.1-0.1,0.1-0.2
		c0.1-0.9-0.2-1.9,0.6-2.6c0,0,0-0.1,0-0.2c0-0.4,0.1-0.7,0.2-1.1c0-0.4,0.1-0.7,0.2-1.1c0.2-0.7,0.3-1.5,0.6-2.2
		c0.2-0.5,0.5-0.9,0-1.4c0.3-0.2,0.5-0.4,0.7-0.5c0.2,1.2,0.4,2.5,0.6,3.7c0,0.1,0.1,0.4,0,0.4c-0.6,0.5-0.3,1.2-0.3,1.8
		c0.1,1.1-0.8,2-0.2,3.1c0.1,0.1,0,0.4,0,0.5c0,0.3,0.1,0.5,0.2,0.7c-0.1,0.4,0,0.7,0,1.1c0,0.2,0.1,0.4,0,0.5
		c-0.6,0.7-0.3,1.5,0.1,2.2c0.2,0.4,0.4,0.9,0,1.4c-0.1,0.1-0.2,0.4-0.2,0.6c0,0.7-0.4,1.3,0.2,1.9c0.1,0,0,0.3-0.1,0.5
		c-0.1,0.5-0.3,1-0.3,1.4c0,0.6,0.4,1.1,0.4,1.7c0,0.5-0.7,0.8-0.2,1.5c0.2,0.4-0.1,1.1-0.3,1.7c-0.1,0.5,0,0.9,0.3,1.4
		c0.5,1.1-0.5,2.3,0.2,3.5c0,0,0,0.1,0,0.1c-0.1,0.7-0.2,1.4-0.2,2.1c0,0.2,0.2,0.4,0.3,0.7c-0.4,0.6-0.4,1.2,0,1.9
		c0.1,0.2,0,0.5,0,0.7c-0.1,0.3-0.4,0.6-0.4,0.9c0,0.6,0,1.2,0,1.8c0,0.3,0.2,0.6,0.4,0.9c-0.4,0.2-0.2,0.5-0.1,1
		c0.2,0.7,0.4,1.5,0.1,2.3c-0.3,0.8-0.8,1.8-0.1,2.7c0,0,0,0.1,0,0.1c0,1,0.6,2.1-0.2,3c0,0.1,0,0.3,0,0.4c0.1,0.4,0.4,0.9,0.3,1.3
		c-0.3,0.9,0.6,1.9-0.3,2.8v0.1c0,0.7,1.1,1.5,2,1.4c0.5,0,1.1,0.1,1.6,0.1c0.3,0,0.5,0,0.7,0c0.8-0.1,1.6-0.3,2.4-0.4
		c0.4,0,0.8,0.1,1,0.1c0.1-0.4,0.1-0.7,0.2-0.9c0.2-0.4,0.4-0.7,0-1.1c-0.2-0.1-0.3-0.4-0.3-0.5c0.1-0.4,0.2-0.6,0.2-0.8
		c-0.1-1.1-0.2-2.1-0.3-3.1c0-0.1,0-0.2,0-0.4c0.1-0.6,0-1.2,0.3-1.8c0.3-0.6-0.3-1-0.2-1.5c0.2-1,0.2-1.9,0-2.9
		c-0.1-0.8,0.2-1.6,0.2-2.4c0-1.1-0.3-2.3-0.2-3.5c0-1.4,0.3-2.8,0.4-4.3c0-0.3-0.1-0.6-0.1-0.8c-0.1-0.6-0.4-1.4-0.1-1.8
		c0.6-1.1,0-2-0.1-2.9c0-0.4-0.7-1.1,0.2-1.5c0.1,0,0.1-0.5,0-0.7c-0.2-0.5-0.4-1-0.6-1.5c0.6-0.3,0.9-0.5,0.6-1.2
		c-0.3-0.7-0.1-1.5-0.1-2.3c0-0.5,0.2-1,0.3-1.5c0-0.1,0.1-0.3,0.1-0.4c0-0.7,0-1.5-0.1-2.2c0-0.2,0-0.4,0-0.6
		c-0.4-0.8-0.5-1.6-0.1-2.4c0.2-0.4,0.3-0.8,0.3-1.3c0-0.6-0.4-1.3-0.2-1.7c0.3-0.7-0.1-1.1-0.4-1.7c0.4-0.5,0.5-2.8,0.2-3.2
		c0.1-0.4,0.2-0.7,0.2-1c0-0.7-0.1-1.5,0-2.2c0.2-1.1-0.4-2-0.3-3c0.1-0.7,0.1-1.4,0.3-2.1c0.2-0.8-0.1-1.8-0.4-2.7
		c-0.1-0.4-0.2-0.6,0-1c0.1-0.3,0.3-0.7,0.3-1c0-1-0.2-1.9-0.3-2.9c0.1-0.2,0.4-0.4,0.4-0.6c0.1-0.5,0.1-1.1,0.1-1.7
		c0-0.1-0.1-0.4-0.2-0.4c-0.4-0.2-0.4-0.5-0.2-0.8c0.4-0.7,0.4-1.1-0.4-1.7c0.6-0.7,0.7-1.5,0.3-1.8c-0.7-0.4-0.4-0.9-0.2-1.4
		c0.1-0.5,0.4-1.1,0.5-1.6C108.3,12.8,108.2,12.4,108.1,12.1"/>
	<path class="st2" d="M108.1,12.1c0.1,0.3,0.3,0.6,0.2,0.9c-0.1,0.5-0.4,1.1-0.5,1.6c-0.1,0.4-0.4,0.9,0.2,1.4
		c0.4,0.3,0.3,1.2-0.3,1.8c0.7,0.7,0.8,1,0.4,1.7c-0.2,0.3-0.3,0.6,0.2,0.8c0.1,0,0.2,0.3,0.2,0.4c0,0.6,0,1.1-0.1,1.7
		c0,0.3-0.3,0.4-0.4,0.6c0.1,1,0.2,1.9,0.3,2.9c0,0.3-0.1,0.7-0.3,1c-0.2,0.4-0.1,0.6,0,1c0.3,0.8,0.6,1.8,0.4,2.7
		c-0.2,0.7-0.2,1.4-0.3,2.1c-0.1,1.1,0.4,2,0.3,3c-0.1,0.7,0,1.5,0,2.2c0,0.3-0.1,0.6-0.2,1c0.3,0.4,0.2,2.6-0.2,3.2
		c0.3,0.5,0.7,0.9,0.4,1.7c-0.2,0.4,0.2,1.1,0.2,1.7c0,0.4-0.1,0.9-0.3,1.3c-0.4,0.8-0.3,1.6,0.1,2.4c0.1,0.2,0,0.4,0,0.6
		c0,0.7,0,1.5,0.1,2.2c0,0.1,0,0.3-0.1,0.4c-0.1,0.5-0.3,1-0.3,1.5c0,0.8-0.2,1.7,0.1,2.3c0.3,0.7,0,0.9-0.6,1.2
		c0.2,0.5,0.4,0.9,0.6,1.5c0.1,0.2,0.1,0.7,0,0.7c-0.9,0.4-0.2,1.1-0.2,1.5c0.1,1,0.7,1.8,0.1,2.9c-0.3,0.5,0,1.2,0.1,1.8
		c0,0.3,0.1,0.6,0.1,0.8c-0.1,1.4-0.3,2.8-0.4,4.3c0,1.1,0.2,2.3,0.2,3.5c0,0.8-0.3,1.6-0.2,2.4c0.2,1,0.2,1.9,0,2.9
		c-0.1,0.4,0.4,0.8,0.2,1.5c-0.2,0.5-0.2,1.1-0.3,1.8c0,0.1-0.1,0.3,0,0.4c0.1,1.1,0.2,2.1,0.3,3.1c0,0.2-0.1,0.5-0.2,0.8
		c0,0.1,0.1,0.4,0.3,0.5c0.4,0.4,0.2,0.7,0,1.1c-0.1,0.2-0.1,0.5-0.2,0.9c-0.3,0-0.7-0.2-1-0.1c-0.8,0.1-1.6,0.2-2.4,0.4
		c-0.3,0-0.5,0-0.7,0c-0.5,0-1.1-0.2-1.6-0.1c-0.8,0.1-1.9-0.6-2-1.4c0,0,0-0.1,0-0.1c0.9-0.8,0-1.8,0.3-2.8
		c0.1-0.4-0.2-0.8-0.3-1.3c0-0.1-0.1-0.3,0-0.4c0.7-1,0.2-2,0.2-3c0,0,0-0.1,0-0.1c-0.8-0.9-0.2-1.9,0.1-2.7c0.3-0.9,0-1.6-0.1-2.3
		c-0.1-0.5-0.3-0.8,0.1-1c-0.1-0.4-0.3-0.6-0.4-0.9c0-0.6-0.1-1.2,0-1.8c0-0.3,0.3-0.6,0.4-0.9c0.1-0.3,0.1-0.6,0-0.7
		c-0.4-0.7-0.4-1.4,0-1.9c-0.1-0.3-0.3-0.5-0.3-0.7c0-0.7,0.1-1.4,0.2-2.1c0,0,0-0.1,0-0.1c-0.7-1.1,0.4-2.4-0.2-3.5
		c-0.2-0.5-0.4-0.8-0.3-1.4c0.2-0.6,0.5-1.3,0.3-1.7c-0.5-0.7,0.2-1.1,0.2-1.5c0-0.6-0.4-1.1-0.4-1.7c0-0.4,0.2-0.9,0.3-1.4
		c0-0.2,0.1-0.4,0.1-0.5c-0.6-0.6-0.2-1.3-0.2-1.9c0-0.2,0-0.5,0.2-0.6c0.5-0.5,0.3-0.9,0-1.4c-0.4-0.7-0.7-1.4-0.1-2.2
		c0.1-0.1,0-0.4,0-0.5c0-0.4,0-0.7,0-1.1c0-0.3-0.1-0.5-0.2-0.7c0-0.2,0-0.4,0-0.5c-0.6-1.1,0.3-2,0.2-3.1c0-0.6-0.3-1.3,0.3-1.8
		c0.1,0,0-0.3,0-0.4c-0.2-1.2-0.4-2.5-0.6-3.7c-0.2,0.1-0.4,0.3-0.7,0.5c0.5,0.5,0.2,0.9,0,1.4c-0.3,0.7-0.4,1.5-0.6,2.2
		c-0.1,0.4-0.1,0.7-0.2,1.1c0,0.4-0.1,0.7-0.2,1.1c0,0.1,0,0.2,0,0.2c-0.8,0.7-0.5,1.7-0.6,2.6c0,0.1,0,0.2-0.1,0.2
		c-1,0.6-0.6,1.5-0.5,2.3c0.1,0.7,0,1-0.7,1.1c0.4,0.8,0.3,1.5-0.3,2.1c-0.2,0.2-0.1,0.7,0,0.9c0.3,0.4,0.1,0.6,0,0.8
		c-0.2,0.3-0.5,0.6-0.6,1c-0.1,0.4-0.2,1-0.2,1.4c0,0.5,0,0.9-0.5,1c0,0.1,0,0.2,0,0.2c0.6,0.9,0,1.5-0.4,2.2
		c-0.3,0.5-0.6,0.9-0.2,1.5c0.1,0.2-0.2,0.7-0.4,1c-0.2,0.5-0.4,1.1-0.6,1.6c-0.2,0.9-0.4,1.8-0.6,2.8c-0.2,0.9-0.4,1.7-0.6,2.6
		c-0.1,0.4-0.4,0.8-0.5,1.3c-0.1,0.4-0.3,0.9-0.3,1.4c-0.1,1.2,0,2.4-1,3.3c0,0-0.1,0.1-0.1,0.1c0,0.8,0,1.6,0,2.5
		c0,0.2,0,0.4-0.2,0.6c-0.1,0.2-0.4,0.4-0.4,0.4c0.4,0.6-0.2,1.1-0.2,1.7c0,0.3-0.4,0.5-0.6,0.8c0.4,0.3,0.2,0.7-0.2,1.1
		c-0.4,0.5-1.1,1.1-0.4,1.8c0,0,0,0.2,0,0.3c-0.2,0.9-0.4,1.8-0.7,2.8c-0.1,0.3-0.3,0.6-0.4,0.9c-0.1,0.2-0.2,0.5-0.2,0.7
		c-0.1,0.5,0,1.1-0.2,1.6c-0.3,1.1-0.7,1.3-1.8,0.9c-0.2,0-0.5-0.1-0.5,0c-0.4,0.7-1.1,0.3-1.4,0c-0.4-0.3-0.8-0.4-1.1-0.1
		c-0.7,0.5-1.4,0.1-2.1,0.1c-0.4,0-0.7-0.1-1.2-0.1c0.1-0.5-1-1.1-0.1-2c0,0,0-0.3,0-0.4c-0.2-0.4-0.7-0.7-0.2-1.3
		c-0.8-0.5,0-1.1,0-1.6c0-0.2,0.2-0.4,0.3-0.7c0,0,0.1-0.1,0.1-0.2c-0.7-0.9,0.8-2.1-0.4-2.9c-0.1,0,0-0.5,0.1-0.6
		c0.4-0.5,0.4-1.1,0.2-1.7c-0.2-0.7-0.5-1.5-0.2-2.3c0.3-0.7,0.5-1.4,0-2.1c0,0,0-0.2,0-0.3c0.8-0.7,0.4-1.6,0.2-2.3
		c-0.2-1-0.2-1.8,0.2-2.8c0.1-0.2,0-0.4,0-0.7c0-0.7,0.1-1.3,0.1-2c0-0.3,0-0.5,0-0.8c0-1.2,0-2.4-0.1-3.5c0-0.3,0-0.7-0.1-0.7
		c-0.4-0.3-0.2-0.7-0.2-1c0-0.4,0.4-0.6,0-1.1c-0.2-0.2,0.2-0.9,0.4-1.4c0-0.1,0.1-0.2,0.1-0.4h-0.2c0-0.3-0.2-0.6-0.2-0.9
		c0-0.7,0.7-1.4,0-2.1c0,0,0-0.1,0-0.1c0.2-1.3,0.4-2.6,0.6-3.8c0-0.3-0.1-0.6-0.2-0.8c0-0.1-0.1-0.3-0.1-0.4c0-0.5,0-1.1,0-1.6
		c0-0.1-0.1-0.3,0-0.4c0.7-0.7,0-1.3,0-2c0-0.2,0.1-0.5,0.1-0.7c-0.1-1.1,0.1-2,0.4-3c0.1-0.4,0-0.9-0.2-1.3
		c-0.4-0.7,0.1-1.1,0.4-1.7c-0.6-0.7-0.6-1-0.2-1.5c-0.2-0.9-0.4-1.6-0.5-2.4c-0.3,0.6-1,1-0.5,1.9c0,0.1,0,0.3,0,0.4
		c-0.4,1-0.8,1.9-1.2,2.9c-0.1,0.3-0.2,0.6-0.2,0.8c-0.2,0.7-0.4,1.3-0.5,1.9c0,0.3,0.1,0.6,0.1,0.8c0,0.1,0.1,0.2,0,0.3
		c-0.5,0.6-0.7,1.2-0.7,1.9c-0.1,1.4-1.5,2.2-1.5,3.7c0,0.8-0.3,1.7-0.4,2.5c0,0.2-0.3,0.3-0.4,0.4c-0.2,0.4-0.3,0.8-0.4,1.2
		c0,0.1,0,0.3,0,0.5c-0.1,0.7-0.7,1.4-0.1,2.2c0.1,0.2-0.4,0.9-0.8,1.2c-0.4,0.3-0.3,0.5-0.1,0.8c0.3,0.4,0.1,0.6-0.2,0.8
		C71,59.1,71,59.3,71.5,60c0.1,0.1,0.2,0.3,0.2,0.4c-0.6,0.5-0.2,1.5-0.9,2.1c-0.4,0.3-0.6,0.8-0.4,1.3c0,0.1,0,0.5-0.1,0.6
		c-0.5,0.2-0.5,0.6-0.5,1c0,0.3,0.2,0.8-0.4,1c-0.1,0,0,0.6,0,0.9c0,0.2,0.1,0.6,0,0.7c-0.7,0.5-0.9,1.1-0.4,1.8
		c0.1,0.2-0.1,0.5-0.2,0.7c-0.7,0.8-1,1.7-1.2,2.7c-0.1,0.3,0,0.7-0.1,1c-0.1,0.4-0.4,0.9-0.6,1.5c0.2,0.3,0.5,0.7-0.2,1.2
		c-0.1,0,0,0.4,0,0.6c0,0.2,0,0.4-0.1,0.6c-0.7,1.1-0.8,2.3-1.1,3.6c0,0.1-0.1,0.3-0.2,0.3c-0.9,0.4-0.5,1.1-0.4,1.8
		c0,0.2,0,0.4,0,0.6c-0.1,0.3-0.3,0.5-0.4,0.7c-0.3,0.6-0.4,1.1-0.4,1.8c-0.1,0.9-0.5,1.8-1,2.6c-0.2,0.4-1,0.6-1.5,0.5
		c-0.8-0.1-1.6-0.5-2.4-0.7c-0.1,0-0.2-0.1-0.3-0.1c-0.5,0.5-1.1,0.2-1.6,0.1c-0.5-0.1-0.9-0.1-1.2,0.4c-0.1,0.1-0.6,0.2-0.8,0
		c-0.2-0.1-0.3-0.5-0.2-0.7c0.3-1,0.6-2.1,1.1-3c0.4-0.7,0.4-1.5,0.6-2.3c0.1-0.5,0.4-0.9,0.1-1.4V82c0.7-0.4,0.3-1.3,0.8-1.8
		c0-0.1,0.1-0.1,0.2-0.2c0.5-1.6,1-3.2,1.5-4.8c0.2-0.7,0.5-1.4,0.2-2.2c0-0.1,0.2-0.4,0.3-0.6c0.1-0.3,0.4-0.6,0.3-0.7
		c-0.4-0.6,0-0.9,0.4-1.2c-0.1,0-0.1-0.1-0.2-0.1c0.1-0.3,0.2-0.7,0.4-0.9c0.2-0.4,0.6-0.6,0.4-1.1c0-0.1,0.1-0.4,0.2-0.5
		c0.2-0.7,0.4-1.5,0.7-2.2c0.2-0.5,0.4-0.9,0.7-1.4c0.5-0.8,0.4-1.7,0.3-2.6c0-0.2,0.2-0.5,0.4-0.6c0.7-0.2,0.7-0.6,0.6-1.1
		c-0.1-0.5-0.3-1.1,0.3-1.5c0.2-0.2,0-0.8,0.1-1.3c0-0.2,0.2-0.6,0.3-0.6c0.7-0.2,0.6-0.7,0.4-1.1c-0.2-0.4-0.3-0.7,0.2-0.9
		c0,0,0.1-0.1,0.2-0.1c0.2-1,0.4-1.9,0.5-2.9c0-0.1,0-0.4,0.1-0.4c0.4-0.3,0.5-0.6,0.4-1.1c0-0.1,0.1-0.4,0.2-0.5
		c0.1-0.5,0.1-1.1,0.4-1.5c0.4-0.6,0-1.7,1-2c0.5-0.1,0.3-0.6,0.1-0.8c-0.7-0.9,0-1.6,0.4-2.2c0.4-0.6,0.7-1.1,0.4-1.9
		c0-0.1,0-0.2,0-0.4c0.2-0.7,0.4-1.3,0.6-1.9c0.1-0.2,0.3-0.4,0.4-0.6c0-0.3-0.1-0.6,0-0.8c0.3-0.6,0.3-1.3,0.4-1.9
		c0.2-0.7,0.6-1.2,0.8-1.9c0.2-0.6,0.1-1.3,0.3-2c0.3-0.9,0.3-1.8,1-2.6c0.1,0,0.2-0.2,0.1-0.3c-0.6-0.9,0.4-1.5,0.4-2.3
		c0-0.7,0.5-1.3,0.7-1.9c0.4-1.1,0.7-2.1,1.1-3.2c0-0.1,0.1-0.2,0.1-0.2c-0.7-1,0.2-1.8,0.4-2.7c0.1-0.7,0.4-1.3,0.7-1.9
		c0,0,0.1-0.1,0-0.2c-0.6-1.1,0.4-1.8,0.7-2.7c0.2-0.7,0.5-1.3,0.4-2.1C76.8,11,77,10.4,77.3,10c0.6-0.8,0.8-1.7,0.8-2.7
		c0-0.5,0.5-0.9,0.6-1.5c0.1-0.4,0.1-0.8,0.1-1.2c0-0.2,0-0.5,0-0.7c0-0.1,0.4,0,0.5,0c0.4,0,0.7-0.1,1.1-0.2c0.1,0,0.3-0.1,0.4-0.1
		c0.8,0,1.6,0.2,2.5,0.2c0.4,0,0.8-0.2,1.2-0.3c0.2,0,0.5,0,0.7,0.1c0.2,0.4,0.5,0.5,1.1,0.4c0.4-0.1,0.9,0,0.8,0.7
		c0,0.2,0,0.5,0.1,0.7c0.4,0.7-0.2,1.3-0.2,2c0,0.2-0.1,0.4,0,0.6c0.8,1.1,0.1,1.8-0.4,2.6c0.7,0.5,0.8,1.6,0.5,2.5
		c-0.2,0.6-0.2,1.3-0.2,2c0,0.6,0.1,1.2,0,1.7c-0.2,0.7,0,1.1,0.3,1.6c0.1,0.1,0.1,0.4,0,0.4c-0.7,0.7-0.2,1.6-0.2,2.3
		c0,0.3,0,0.7,0,1c0,0.5-0.3,1,0.2,1.5c0.1,0.1,0,0.6-0.1,0.9c-0.1,0.6-0.2,1.1,0,1.8c0.2,0.5-0.2,1.2-0.2,1.9
		c0,0.6,0.2,1.2,0.3,1.8c0,0.2,0.1,0.5,0,0.7c-0.7,0.9-0.7,1.8-0.2,2.7c0.5,0.8-0.1,1.4-0.3,2c-0.2,0.4-0.4,0.7,0,1.1
		c0.3,0.4,0.4,1,0.5,1.5c0,0.4-0.2,0.7-0.4,1.2c0.5,0.3,0.5,0.7,0.3,1.2c-0.2,0.6-0.4,1.2-0.5,1.8c0,0.3,0.2,0.6,0.4,0.8
		c0.1,0.1,0.3,0.3,0.3,0.3c-0.4,0.7-0.1,1.5-0.7,2c-0.1,0.1,0,0.4,0,0.6c0.4,0.5,0.4,1,0.1,1.5c0,0.1-0.1,0.3,0,0.4
		c0.9,1,0.5,2,0.1,3.1c-0.1,0.3-0.2,0.8,0,1c0.7,0.7,0.3,1.3,0,1.9c-0.1,0.4-0.3,0.8-0.3,1.3c0,0.2,0.2,0.4,0.4,0.7
		c0.4-0.5,0.8-0.8,1-1.3c0.2-0.5,0.3-1.2,0-1.5c-0.4-0.5-0.1-0.8,0.1-1.1c0.5-0.6,0.8-1.2,0.9-2c0-0.6,0.1-1.2,0.2-1.8
		c0-0.3,0.3-0.5,0.4-0.8c0.1-0.2,0.2-0.5,0.1-0.7c-0.3-0.6-0.2-1,0.4-1.3c-0.1,0-0.2,0-0.2-0.1c0.1-0.4,0.1-0.7,0.3-1
		c0.3-0.5,0.7-0.9,0.4-1.5c-0.1-0.3,0.3-0.8,0.4-1.2c0.1-0.3,0.4-0.6,0.3-0.9c-0.1-0.8,0.2-1.5,0.7-2.1c0.1-0.1,0.1-0.3,0.2-0.4
		c0.1-0.6,0.2-1.2,0.3-1.8c0.1-0.5,0-1.1,0.1-1.6c0.1-0.4,0.2-0.8,0.4-1.2c0.2-0.5,0.5-0.8,0.3-1.5c-0.1-0.3,0.2-0.8,0.4-1.1
		c0.4-0.5,0.6-1,0.7-1.5c0.1-0.5,0.4-1,0.4-1.5c0-0.1,0-0.3,0-0.4c-0.7-0.7-0.1-1.3,0.3-1.9c0.1-0.3,0.2-0.6,0.3-0.8
		c0.1-0.5,0.2-1.1,0.3-1.6c0.1-0.5,0.4-0.9,0.2-1.5c-0.1-0.2,0.4-0.6,0.4-1c0-0.4-0.1-0.7,0-1c0.5-0.9,0.9-1.8,0.9-2.8v-0.1
		c1.1-0.3,0-1.6,0.8-2c0,0,0-0.2,0-0.4c0-0.3,0-0.6,0-0.8c0-0.2,0.2-0.4,0.1-0.5c-0.6-0.7,0.1-1,0.4-1.5c0.1-0.3,0.2-0.5,0.4-0.8
		c0.1-0.3,0.3-0.7,0.5-1.1C98.5,8.9,98.6,8,99.3,7c0.1-0.2,0-0.7,0-1c0-0.2-0.1-0.5,0-0.6c0.7-0.5,0.6-1.2,0.7-1.9
		c0-0.2,0.1-0.4,0.1-0.4c0.6,0.2,1.1,0.4,1.7,0.4c0.2,0,0.4-0.1,0.6-0.1c0.5-0.1,1.1-0.3,1.6-0.3c1.1,0,2.1,0,3.2,0V3
		c0.4,0.2,0.7,0.4,1,0.5c0.7,1.4-0.2,2.6,0,3.7c0.1,1,0.1,1.9,0.1,2.9c0,0.7-0.1,1.2-0.2,1.8C107.9,12.1,108,12.1,108.1,12.1"/>
	<path class="st2" d="M184.3,33c-0.8-0.4-0.5-1.1-0.3-1.8c0.1-0.2,0-0.4,0-0.7c0.1-1.2,0.3-2.4,0.4-3.6c0-0.6,0-1.2-0.2-1.7
		c-0.4-1,0-1.8,0.2-2.7c-0.1-0.3-0.2-0.7-0.2-1c0-0.5,0.2-1.1-0.3-1.5c0,0,0-0.1,0-0.1c0.2-1,0.3-2,0.5-3c0-0.2,0-0.4,0-0.7
		s0-0.4,0-0.7c0-0.1,0.1-0.3,0.1-0.3c-0.6-0.5,0-0.9,0-1.4c0-0.4,0-0.9,0.1-1.4c0.1-0.7,0.2-1.3,0.2-1.9c0-0.2-0.1-0.5-0.2-0.7
		c-0.1-0.5-0.4-1,0.2-1.4c0.2-0.1,0.2-0.6,0.2-0.8c0-0.4,0-0.8-0.1-1.2c0-0.3-0.1-0.7-0.2-1c0-0.3-0.2-0.7-0.1-1
		c0.2-0.7,0.5-1.5,0.8-2.2c0,0,0.4,0,0.5,0.1c0.6,0.1,1.2,0.3,1.7-0.2c0.4,0.1,0.9,0.2,1.4,0.4c0.1-0.2,0.2-0.4,0.3-0.6
		c0.5-0.1,2.1,0.6,2.4,1c0.2,0.3,0.6,0.5,0.8,0.8c0.1,0.1,0.1,0.4,0,0.5c-0.4,0.6-0.1,1.1,0.2,1.5c0.1,0.1,0.2,0.3,0.2,0.4
		c-0.2,0.8-0.4,1.7-0.6,2.5c0,0.1,0,0.3,0.1,0.4c0.5,0.5,0.4,1-0.1,1.2c-0.2,1,0.4,1.8,0.4,2.7c0,0.8-0.2,1.6-0.3,2.4
		c-0.1,0.7,0,1.5,0,2.2c0,1,0.1,2-0.4,2.9c-0.1,0.2-0.1,0.4,0,0.6c0.4,0.8,0.4,0.8-0.2,1.5c0.7,0.3,0.5,0.8,0.4,1.4
		c0,0.5,0.1,1,0,1.5c0,0.4-0.2,0.7-0.4,1c0,0,0,0.1,0,0.1c1.2,0.9,0.3,2,0.1,3c0,0.4-0.1,0.6,0.2,0.8c0.2,0.1,0.2,0.5,0.2,0.7
		c-0.1,1-0.3,1.9-0.4,2.9c0,0.1,0,0.3,0,0.4c-0.2,0.6-0.7,1.2,0.2,1.8c0.1,0.1-0.2,0.8-0.2,1.2c0,0.7-0.1,1.3-0.1,2
		c0,1,0.1,2.1-0.1,3.1c-0.1,0.6-0.1,1.2-0.1,1.8c0,0.3-0.1,0.7-0.2,0.8c0.1,0.4,0.3,0.7,0.3,1c0.1,0.9,0.1,1.8-0.3,2.7
		c-0.1,0.2,0,0.4,0.1,0.7c0.3,0.8,0.3,0.8-0.4,1.3c0.2,0.3,0.3,0.5,0.5,0.8c0.7-0.1,0.7-0.2,0.5-1.1c-0.1-0.4-0.2-0.7,0.2-1.1
		c0.4-0.4,0.3-1.1,0.4-1.8c0.1-0.6,0.3-1.1,0.4-1.7c0.1-0.4,0-0.8,0.2-1.1c0.6-0.8,0.7-1.7,0.5-2.6c0-0.2,0.2-0.4,0-0.7
		c-0.1-0.2,0.1-0.6,0.2-0.9c0.2-0.4,0.4-0.8,0.6-1.2c0.1-0.2,0.3-0.4,0.5-0.7c-0.1-0.2-0.2-0.5-0.3-0.8c-0.4-1,0.5-1.7,0.6-2.6
		c0.1-1,0.8-1.9,0.6-3c-0.1-0.6,0.4-1.2,0.7-1.8c0-0.4,0.1-0.7,0.1-1c0-0.6,0.1-1.1,0.2-1.7c0.1-0.4,0.3-0.7,0.4-1.1
		c0-0.1,0.2-0.3,0.2-0.4c-0.2-0.7,0-1.4,0.5-2c0-0.1,0-0.2,0-0.3c-0.2-1.2,0.5-2.2,0.7-3.2c0.2-0.9,0.7-1.8,0.3-2.9
		c-0.1-0.3,0.1-0.8,0.3-1.2c0.3-0.6,0.6-1.1,0.7-1.8c0-0.5,0.4-1,0.5-1.5c0.1-0.4,0.2-0.9,0.1-1.4c-0.1-0.6-0.1-1,0.3-1.6
		c0.4-0.5,0.6-1.3,0.4-1.8c-0.1-0.6,0-1,0.3-1.4c0.7-0.9,0.4-2,0.6-2.9c0-0.2,0-0.4,0.1-0.5c0.3-0.4,0.6-0.7,0.9-1.1
		c0.1,0,0.3,0.1,0.6,0.2c0.2,0,0.6,0.1,0.6,0c0.4-0.7,1.2-0.4,1.8-0.5c0.7,0,1.4,0.2,1.9,0.3c0.4-0.2,0.8-0.5,0.9-0.4
		c0.3,0.3,0.6,0.6,0.7,1c0.2,0.4,0.1,0.9,0.4,1.3c0.6,0.7,0.1,1.4-0.1,2c-0.1,0.3,0,0.7,0,1c0,0.2,0,0.4,0,0.5
		c-0.3,0.7-0.6,1.4-0.7,2.1c-0.1,0.4,0,0.9,0,1.3c0,0.5-0.1,1.1-0.1,1.6v4.4v0.1c-0.6,0.8,0,1.7-0.2,2.5c0,0,0,0.1,0,0.1
		c0.7,1.3,0,2.6,0,4c0.1,1.1-0.1,2.3-0.1,3.5c0,0.7,0.3,1.3,0.1,1.9c-0.4,1.4,0.3,2.7-0.2,4.1c-0.1,0.3-0.6,1.1,0.2,1.5
		c-0.4,0.7,0.1,1.3,0.1,2c0,0.7-0.3,1.3,0,2c0.2,0.6-0.1,1.4-0.2,2.1c0,0.7,0,1.5-0.1,2.2c0,0.9-0.1,1.7-0.2,2.6
		c0,0.1-0.1,0.3-0.1,0.4c0.7,0.7-0.2,1.8,0.4,2.6c0,0.1-0.2,0.4-0.3,0.7c0.1,0.1,0.3,0.2,0.6,0.4c-0.1,0.7-0.4,1.3-0.4,1.9
		c0,0.6,0.2,1.1,0.3,1.7c0,0.1,0,0.2,0,0.3c-0.5,0.9-0.3,1.8,0,2.7c0.2-0.4,0.4-0.8,0.5-1.2c0.2-0.6,0.2-1.2,0.4-1.8
		c0.1-0.3,0.2-0.5,0.4-0.8c0-0.1,0.2-0.2,0.2-0.3c0.1-1.1,0.2-2.2,0.3-3.4c0-0.2,0.2-0.4,0.3-0.6c0.4-0.4,0.4-0.7,0.2-1.2
		c-0.1-0.2-0.1-0.5,0-0.7c0.4-0.9,0.7-1.8,0.6-2.8c0-0.2,0.3-0.4,0.4-0.7c0.3-0.5,1-0.9,0.4-1.7c-0.1-0.2,0.1-0.8,0.3-1
		c0.7-0.5,0.4-1.1,0.3-1.7c0-0.2,0-0.6,0.1-0.7c0.5-0.4,0.4-0.9,0.3-1.4c0-0.2-0.1-0.4-0.1-0.5c0.3-0.6,0.7-1.1,0.9-1.6
		c0.3-0.7,0.7-1.5,0.2-2.4c-0.1-0.1-0.1-0.4,0-0.5c0.7-1.1,1.2-2.2,1-3.6c0-0.3,0.2-0.7,0.4-1c0.1-0.3,0.4-0.6,0.3-0.8
		c-0.3-1,0.2-1.8,0.6-2.6c0.3-0.4,0.4-1.1,0.3-1.5c-0.1-0.7,0.2-1.3,0.3-1.9c0.1-0.7,0.2-1.3,0.3-2v-0.1c0.2-0.3,0.6-0.6,0.7-1
		c0.1-0.3-0.1-0.7-0.1-1c0.2-0.9,0.5-1.7,0.6-2.6c0.1-0.7,0.2-1.4,0.6-2c0-0.1,0-0.2,0-0.3c-0.4-0.7,0-1.3,0.4-1.8
		c0.3-0.4,0.4-0.8,0.4-1.3c0-0.3,0-0.7,0.2-0.8c0.8-0.5,0.4-1.2,0.5-1.8c0.1-0.5,0-1,0-1.5c0-0.5,0.1-0.9,0.2-1.4
		c0,0,0.1,0.1,0.2,0.2c0.3-0.1,0.7-0.3,1-0.4c0.5-0.3,1-0.6,1.5,0c0.1,0.1,0.3,0.2,0.4,0.2c0.9-0.3,1.8,0.1,2.6,0h0.5
		c0.4,0,0.8,0,1.3,0c0.1,0.5,0.2,1.2,0.4,2.2c-0.1,0.5-0.4,1.4-0.6,2.2c0,0.2,0,0.4,0.1,0.6c0,0.1,0.1,0.3,0.1,0.4
		c-0.2,0.7-0.4,1.3-0.7,1.9c-0.2,0.5-0.5,0.9-0.8,1.4c0,0,0,0.2,0,0.2c0.6,0.5-0.1,0.9-0.1,1.4v1.2c0,0.2,0.1,0.5,0,0.6
		c-0.7,0.4-0.5,1.1-0.6,1.7c-0.2,0.8,0,1.8-0.5,2.3c-0.6,0.7-0.5,1.5-0.6,2.2c0,0.1,0,0.3-0.1,0.3c-0.7,0.4-0.4,0.7-0.1,1.2
		c0.1,0.2,0.1,0.6,0,0.7c-0.7,0.6-0.7,1.5-1,2.3c-0.1,0.2,0.3,0.5,0.2,0.7c-0.2,0.6-0.6,1.2-0.8,1.8c-0.1,0.1-0.2,0.4-0.2,0.4
		c0.8,0.7,0.1,1.5-0.2,1.9c-0.4,0.8-0.4,1.6-0.7,2.4c0,0.1,0,0.4,0.1,0.4c0.4,0.4,0.2,0.7-0.1,1c-0.1,0.1-0.2,0.3-0.1,0.3
		c0.4,0.7-0.1,1.1-0.5,1.5c-0.1,0.1-0.2,0.2-0.2,0.3c0.3,1-0.5,1.7-0.7,2.5c-0.1,1-0.6,1.9-0.3,2.9c0.1,0.4-0.3,1-0.4,1.5
		c-0.1,0.4-0.4,0.9-0.4,1.4c0.1,1.3-0.5,2.4-0.8,3.6c-0.1,0.4-0.3,0.7-0.4,1.1c-0.1,0.3-0.2,0.7-0.3,1c-0.1,0.5,0,1.1-0.2,1.5
		c-0.4,0.7-0.5,1.2-0.2,1.9c0,0.1-0.1,0.3-0.3,0.4c-0.3,0.3-0.6,0.4-0.9,0.7c0.5,0.5,0.7,0.9,0.1,1.3c-0.1,0,0,0.5,0.1,0.6
		c0.4,0.4,0.2,0.7,0,1.1c-0.3,0.7-0.6,1.4-0.9,2.1c0,0.1,0,0.3,0,0.4c0.5,0.5,0,0.8-0.1,1.2c-0.3,0.8-0.8,1.6-0.5,2.5
		c0,0.1,0,0.3,0,0.4c-0.4,1-0.7,2-1.1,2.9c-0.3,0.8-0.4,1.7-0.6,2.5c-0.1,0.7-0.2,1.4-0.3,2.1c0,0.1,0,0.3,0,0.3
		c-0.7,0.4-0.4,1.2-0.7,1.8c-0.1,0.3,0,0.7,0,1.1c0,0.2,0.1,0.4,0,0.7c-0.2,0.6-0.4,1.1-0.7,1.7c-0.1,0.3-0.4,0.6-0.5,0.8
		c-0.1,0.2-0.2,0.4-0.2,0.5c0.4,0.8-0.1,1.6-0.3,2.3c-0.1,0.7-0.5,1.5-0.7,2.2c0,0.2-0.1,0.4,0,0.6c0.5,0.7,0,0.9-0.5,1.1
		c0.3,0.5,0.7,1,0,1.5c0,0,0,0.3,0,0.4c0,0.1,0.1,0.3,0.1,0.4c-0.6,0.8-0.7,1.7-0.6,2.6c0,0.5-0.7,0.9-1.2,0.8
		c-0.7-0.2-1.5-0.4-2.2-0.5c-0.4,0-0.7,0.3-1.1,0.3c-0.8,0-1.6-0.2-2.5-0.3c-0.3,0-0.5,0.1-0.7,0.2c-0.4,0.2-0.7,0.2-0.7-0.4
		c0-0.5,0.2-1.1,0-1.6c-0.4-0.7,0-1.2,0.1-1.8c0-0.1,0-0.2-0.1-0.4c-0.2-0.7-0.4-1.3,0-2.1c0.3-0.6,0.1-1.5,0.2-2.2
		c0-0.4,0-0.7,0-1.1c0-0.6-0.1-1.3,0-1.9c0-0.4,0.3-0.9,0.5-1.3c0-0.1,0-0.4,0-0.4c-0.7-0.4-0.4-1.1-0.3-1.6c0-0.3,0.1-0.5,0.1-0.8
		c0-0.7,0.1-1.4,0.1-2.1c0-0.4-0.1-0.8,0-1.2c0-0.5-0.4-1,0.2-1.5c0.1,0,0-0.6-0.1-0.7c-0.5-0.4-0.2-0.7-0.1-1
		c0.2-1.2,0.1-2.4,0.4-3.6c0.2-0.7-0.3-1.4,0-2.2c0.4-0.9,0.7-2.1,0-3.1c0-0.1,0.1-0.3,0.1-0.4c0.3-0.6,0.4-1.2,0-1.8
		c-0.1-0.4,0-0.8,0.2-1.2c-0.6-0.9-0.2-1.8,0-2.6c0-0.2,0-0.4,0-0.7c0-0.2,0-0.4,0.1-0.5c0.3-0.4,0.4-0.7,0.1-1.2
		c-0.3-0.5,0-1.2,0-1.9c0-0.1,0.2-0.3,0.1-0.3c-0.6-0.7-0.3-1.6-0.3-2.5c0-0.6,0.4-1.1,0.4-1.7c0-0.6,0.4-1.2-0.3-1.7
		c-0.1,0,0-0.3,0-0.5c0.1-0.4,0.5-0.8,0-1.3c-0.2-0.2,0-0.8,0-1.2c0-0.7,0.1-1.4,0.2-2.1c-0.1,0-0.2,0-0.3-0.1
		c-0.2,0.4-0.5,0.9-0.4,1.4c0.1,0.8-0.4,1.5-0.5,2.2c-0.1,0.8-0.4,1.6-0.4,2.5c0,0.6-0.3,1.2-0.4,1.8c-0.1,0.7-0.2,1.4-0.7,1.9
		c-0.2,0.1-0.2,0.6-0.1,0.8c0.1,0.6,0.3,1.1-0.4,1.6c-0.1,0.1,0.1,0.6,0.1,0.8s0.1,0.5,0,0.7c-0.3,1-0.6,2-0.9,2.9
		c0,0.2-0.1,0.4-0.2,0.4c-0.5,0.3-0.4,0.5-0.1,0.9c0.1,0.2-0.1,0.6-0.1,0.9c-0.1,0.9,0,1.8-0.5,2.6c-0.4,0.7-0.7,1.5-1,2.2
		c0,0.4,0.2,0.7,0.1,0.9c-0.3,1.2-0.6,2.5-0.9,3.7c-0.3,0.9-0.5,1.8-0.7,2.8c-0.1,0.4-0.1,0.8-0.1,1.2c0.1,1-0.7,1.6-0.7,2.5
		c-0.1,0.6,0,1.3-0.1,1.9c0,0.3-0.1,0.6-0.3,0.8c-0.6,0.5-0.9,1.1-0.6,1.9c0.4,0.9-0.4,1.5-0.5,2.3c-0.1,0.7-0.3,1.5-0.5,2.2
		c-0.1,0.5-0.4,1-0.5,1.5c-0.1,0.6-0.3,1.2-0.1,1.8c0.2,0.7,0,1.1-0.7,1.4c0.6,0.9,0.2,1.7-0.3,2.4c-0.3,0.5-0.4,1.1-0.5,1.7
		c-0.9-0.1-1.8-0.3-2.7-0.4c-0.1,0-0.3,0.1-0.4,0.1c-0.4,0.1-0.8,0.4-1.2-0.1c-0.1-0.1-0.5-0.2-0.6-0.1c-0.8,0.5-1.6-0.1-2.4,0.1
		c-0.1,0-0.4,0-0.5-0.1c-0.3-1.5-0.1-2.9,0.4-4.4c0-0.1,0-0.4-0.1-0.5c-0.6-0.8-0.7-1.2-0.1-2c0.3-0.4,0.3-0.7,0.1-1.1
		c-0.2-0.5,0-1.1-0.1-1.7c0-0.2,0-0.4,0-0.6c-0.1-0.5-0.1-0.9,0.1-1.4c0.3-0.6,0.7-1.4,0-2c-0.1-0.1,0-0.3,0-0.4
		c0-1.4-0.1-2.7,0.5-4c0-0.1,0-0.3,0-0.4c0-0.3,0.1-0.7,0-1c0-0.2-0.1-0.5-0.3-0.7c-0.4-0.3-0.6-0.7-0.3-1.1
		c0.7-1.2,0.7-2.4,0.3-3.7c-0.1-0.3,0.1-0.7,0.3-1.1c0.3-0.6,0.2-1.1-0.2-1.7c-0.1-0.2-0.1-0.6,0-0.7c0.8-0.6,0.4-1.2,0.1-1.8
		c0-0.1-0.2-0.3-0.2-0.4c0.3-0.7,0.4-1.2,0-1.9c-0.2-0.4,0.2-1.2,0.3-1.8c0-0.5,0.2-1,0-1.4c-0.2-0.4-0.2-0.7,0.1-1
		c0.4-0.4,0.3-0.7,0-1.1c-0.1-0.2-0.3-0.6-0.2-0.6c0.4-0.4,0.5-0.8,0.2-1.3c-0.1-0.2-0.2-0.7,0.4-0.9c0,0,0.1-0.4,0-0.6
		c-0.6-0.9-0.4-1.8-0.1-2.8c0.1-0.6-0.1-1.2-0.2-1.8c0-0.3-0.1-0.6,0-0.7c0.5-0.7,0.7-1.3,0-2c-0.1-0.1-0.2-0.4-0.1-0.4
		c0.9-1.1,0.4-2.3,0.4-3.4c0-1-0.1-2-0.1-3C183.8,33.8,184,33.4,184.3,33"/>
	<path class="st2" d="M247.2,52.5c-0.1-0.2-0.2-0.4-0.4-0.6c-0.3-0.3-0.3-0.5-0.2-0.9c0.1-0.4-0.1-0.8-0.1-1.3c0-0.2,0-0.4,0.1-0.7
		c0.1-0.7,0.5-1.5,0.2-2c-0.6-1.4,0.4-2.4,0.4-3.7c0-0.5,0.2-1-0.4-1.4c-0.1-0.1-0.1-0.4-0.1-0.5c0-0.4,0.1-0.9,0.1-1.4
		c0-1.1-0.2-2.1,0.1-3.1c0.1-0.4-0.1-0.9-0.2-1.3c0-0.2-0.1-0.5,0-0.7c0.6-0.9,0.7-1.2,0-1.9c-0.1-0.1-0.3-0.2-0.3-0.3
		c0.1-0.8,0.2-1.6,0.4-2.4c0-0.3,0.2-0.6,0.3-0.9c-0.1,0-0.1,0-0.2,0c-0.1-0.4-0.3-0.7-0.2-1c0-0.4,0.3-0.9,0.4-1.4
		c0.1-0.7,0.2-1.4,0.2-2c0-0.1-0.3-0.3-0.4-0.4c0.3-1.1,0.4-2.2-0.1-3.3c0-0.1,0-0.1,0-0.2c0.1-1.7-0.1-3.4,0.3-5.2
		c0.1-0.6-0.1-1.2-0.1-1.8c0-0.9,0.1-1.8,0.2-2.8c0-0.5,0.1-1.1-0.1-1.5c-0.5-0.7-0.2-1.5-0.2-2.3c0-0.4,0.2-0.8,0.2-1.2
		c0-0.3-0.1-0.6-0.3-0.9c-0.2-0.4,0.1-1.8,0.6-2.3c0.6-0.5,1.1-1.1,2-0.7c0,0,0.2,0,0.2,0c1.4-0.9,2.7,0.3,4.1,0.1
		c0.7-0.1,1,0.6,0.6,1.6c0.2,0.1,0.4,0.2,0.7,0.3c-0.1,0.6-0.2,1.1-0.3,1.8c0.7,0.3,0.5,0.8,0.4,1.5c-0.1,0.3,0.1,0.6,0.1,0.9
		c0,0,0,0.1,0,0.1c-0.4,0.6,0,1.2,0,1.8c-0.1,0.9-0.2,1.8-0.3,2.7c0,0.1,0.1,0.2,0.2,0.4c0,0.2,0.1,0.5,0.1,0.7
		c0,0.9-0.1,1.8-0.2,2.7v0.1c-0.4,1,0,2.1-0.1,3.1c0,0.3,0.1,0.5,0.1,0.8c0,0.2,0.1,0.4,0,0.5c-0.8,0.7,0,1.7-0.3,2.5
		c1,0.6,0.3,1.3,0.1,2.1c-0.1,0.4,0.2,0.8,0.3,1.3c0,0.1,0.1,0.2,0.1,0.4c-0.1,1.8-0.2,3.6-0.3,5.4c0,0.2-0.2,0.4-0.3,0.6
		c0.1,0.1,0.1,0.2,0.3,0.3c0.5,0.5,0.5,1,0.1,1.5c-0.3,0.4-0.2,0.8,0,1.2c0.2,0.4,0.2,1,0,1.3c-0.5,0.8-0.3,1.7-0.2,2.5
		c0,0.6,0.1,1.3,0.1,1.9c0,0.3,0.2,0.5,0.2,0.7c0,0.2,0,0.4,0,0.5c0,0.4-0.1,0.9-0.1,1.4c0,0.7-0.1,1.5-0.1,2.3
		c0.3-0.2,0.5-0.3,0.7-0.4c0-0.4-0.1-0.7-0.2-1.1c0-0.1,0-0.4,0.1-0.4c0.7-0.4,0.5-1.1,0.4-1.6c-0.1-0.6,0.1-0.8,0.4-0.8
		c0-0.5,0-1,0.1-1.3c0.4-0.8,0.8-1.5,1.2-2.3c-0.7-0.4-0.8-1.4-0.3-2.2c0.2-0.4,0.7-0.7,0.2-1.1c0,0,0.1-0.3,0.1-0.4
		c0.4-1,0.7-2,1-3c0.1-0.4-0.1-0.8,0.3-1.2c0.2-0.2,0.3-0.3,0.4-0.5c0.1-0.2,0.3-0.4,0.3-0.6c0.1-1.1,0.2-1.1,0.6-2.1
		c0.2-0.4,0.1-1.1-0.1-1.5c-0.3-0.5-0.1-0.7,0.1-1.1c0.2-0.2,0.4-0.5,0.5-0.7c0.1-0.1,0.2-0.4,0.1-0.5c-0.6-0.6,0-1,0.1-1.5
		c0.1-0.5,0.2-1.1,0.4-1.6c0.2-0.5,0.4-1,0.6-1.4c0-0.6-0.2-1.3,0-1.6c0.6-0.6,0.3-1.5,0.7-2.1c0.1-0.2-0.1-0.6-0.1-0.9
		c0-0.2,0-0.4,0.1-0.6c0.4-0.9,0.8-1.8,1.1-2.7c0.1-0.5,0-1.1,0-1.6c0-0.2,0.1-0.5,0.3-0.6c0.4-0.4,0.6-0.7,0.6-1.3
		c-0.1-1,0.5-1.8,0.8-2.6c0.2-0.4,0.5-0.9,0-1.4c-0.1-0.1,0-0.6,0.1-0.9c0.5-1.2,1-1.4,2.2-1.1c1.1,0.3,2.1,0.6,3.2,0
		c0.3-0.1,0.7-0.3,1-0.3c0.1,0,0.4,0.2,0.5,0.4c0.3,0.4,0.7,0.7,0.8,1.1c0.2,0.5,0.4,1.1,0.3,1.6c-0.4,1.6-0.9,3.2-1.4,4.8
		c-0.2,0.7-0.5,1.5-0.6,2.2c-0.1,0.6,0,1.2-0.1,1.8c-0.2,0.8,0,1.8-0.8,2.5c-0.2,0.1-0.1,0.6-0.1,0.9c0,0.4-0.1,0.9-0.2,1.3
		c0,0.5-0.1,1-0.1,1.5c0,0.2-0.1,0.3-0.2,0.5c-0.2,0.6-0.4,1.2-0.6,1.8c-0.1,0.2-0.1,0.4-0.3,0.6c-0.4,0.6-0.5,1.2-0.3,1.9
		c0,0.2,0,0.6-0.1,0.7c-0.7,0.8-1.1,1.6-0.8,2.7c0,0,0,0.1,0,0.1c-0.7,0.8-0.3,2-0.8,2.9c-0.2,0.4-0.4,0.8-0.4,1.3
		c0,0.2-0.3,0.4-0.5,0.7c-0.1,0.1-0.2,0.2-0.2,0.3c0.1,1.3-0.5,2.5-0.8,3.7c-0.3,1-0.5,1.9-0.8,2.9c-0.2,0.8-0.5,1.6-0.7,2.4
		c-0.4,1.1-0.7,2.2-1,3.3c-0.5,1.5-1,3-1.5,4.5c-0.1,0.4-0.1,0.9-0.3,1.4c-0.4,1.2-0.9,2.4-1.4,3.6c-0.1,0.4-0.3,0.8-0.4,1.2
		c-0.5,1.5-0.9,2.9-1.4,4.4c-0.4,1.1-0.7,2.2-1.2,3.3c-0.6,1.4-0.9,2.9-0.8,4.4c0,0.7,0.1,1.5,0.1,2.3c0,1.5,0,2.9-0.1,4.4
		c0,1.4-0.1,2.8-0.1,4.2c0,1.8,0,3.7,0,5.5c0,0.8,0.1,1.7,0,2.5c0,0.7-0.2,1.4-0.4,2c-0.1,0.5-0.5,0.7-1.1,0.5
		c-0.5-0.1-1.1-0.2-1.6-0.2c-0.3,0-0.6,0.2-0.9,0.3c-0.1,0-0.3,0.1-0.4,0.1c-1.1-0.6-2.1-0.3-3.2-0.1c-0.4,0.1-0.7,0-1,0v-2.5
		c0-0.9,0-1.8,0-2.6c0-0.4-0.2-0.8-0.3-1.2c0-0.2-0.1-0.4,0-0.5c0.2-0.6,0.4-1.1,0.6-1.7c0-0.2,0-0.4-0.1-0.6
		c-0.3-0.5-0.8-0.9-0.2-1.5c0.2-0.2,0.2-0.7,0.1-1c-0.2-0.6-0.4-1.1-0.2-1.8c0.1-0.2,0-0.4,0.1-0.5c0.3-0.3,0.2-0.5,0-0.7
		c-0.1-0.1-0.3-0.2-0.3-0.3c0.1-0.7,0.2-1.5,0.4-2.3c0-0.2,0.1-0.3,0.1-0.5c0-0.2-0.2-0.4-0.2-0.7c-0.1-1.5,0.2-3,0.1-4.5
		c0-0.4,0.3-0.8-0.2-1.1c0,0,0-0.3,0-0.4c0-0.1,0.2-0.3,0.1-0.3c-0.7-0.9,0.3-1.8,0-2.8c0-0.1,0-0.3,0.1-0.4
		c0.3-0.8,0.1-1.5-0.4-2.2c-0.1-0.1,0-0.5,0.1-0.7c0.4-0.7,0.4-1.2,0-1.9c-0.2-0.4,0.1-1.1,0.1-1.6c0-0.4-0.1-0.7-0.2-1.1
		c0-0.1-0.1-0.3-0.1-0.4c0-0.4,0-0.8,0.1-1.2C246.7,53,247,52.8,247.2,52.5"/>
	<path class="st2" d="M155,56.3c0.7,0.2,0.5,0.7,0.4,1.1c-0.1,0.6-0.7,1.1,0,1.7c0,0,0,0.2,0,0.4c0,0.4-0.2,0.8-0.1,1.2
		c0.1,1.1,0.1,2.3-0.2,3.4c-0.1,0.3,0.2,0.6,0.4,0.9c0.1,0.1,0.3,0.4,0.2,0.4c-0.5,1.1,0.6,2.3-0.4,3.3c0,0,0,0.2,0,0.3
		c0,0.8,0.1,1.6,0.1,2.4c0,0.2,0,0.4,0.1,0.5c0.7,1.5,0.4,2.9,0.2,4.5c-0.1,0.7,0,1.3,0.1,2c0,1.1,0.2,2.1,0.1,3.1
		c0,0.6,0,1.1,0.3,1.6c0.1,0.1,0.3,0.3,0.4,0.3c2.4,0,4.8,0.1,7.1,0.1c1.5,0,2.9,0,4.3,0c0.3,0,1.3,0.8,1.3,1.1
		c0,1.6-0.1,3.2-0.7,4.6c-0.2,0.6-1.2,0.9-1.8,0.7c-0.4-0.1-0.7-0.1-1.1-0.1c-0.3,0-0.6-0.1-0.8-0.1c-0.2,0-0.4-0.1-0.5,0
		c-0.7,0.5-1.3,0.2-1.9,0c-0.3-0.1-0.7,0-1,0c-0.3,0-0.6,0.2-0.8,0.1c-1.1-0.5-2.2,0.4-3.3-0.2c-0.2-0.1-0.6,0.4-0.7,0.3
		c-0.6-0.3-1.1-0.1-1.5,0.1c-0.1,0-0.2-0.1-0.4-0.2s-0.3-0.2-0.4-0.2c-1.5,0.5-2.9-0.1-4.4,0c-0.1,0-0.3,0-0.4-0.1
		c-0.4-0.3-0.8-0.3-1.1,0.1c-0.3-0.4-0.6-0.8-0.7-1.3c-0.1-0.4-0.2-0.9-0.2-1.4c0.1-1.4,0-2.8-0.1-4.2c-0.1-0.7,0.2-1.2,0.7-1.5
		c-0.7-0.7-1.2-1.3-0.9-2.3c0.1-0.5,0.3-1,0.3-1.5c0-0.4-0.2-0.8-0.3-1.2c0-0.1-0.1-0.1-0.1-0.2c0.1-1,0.2-1.9,0.3-2.9
		c0-0.3,0.1-0.7-0.1-0.8c-0.7-0.8-0.1-1.6,0-2.4c0.2-1.2,0.2-2.5-0.3-3.7c0-0.1-0.2-0.2-0.1-0.3c0.2-0.7,0.4-1.3,0.2-2.1
		c-0.1-0.7,0.1-1.4,0.2-2c0-0.4,0.3-0.7,0.3-1.1c0-0.6-0.1-1.1-0.1-1.7c0-0.4,0.1-0.8,0.2-1.2c0-0.1,0-0.2,0-0.4
		c-0.1-0.5-0.4-0.9-0.4-1.4c0-0.4,0.3-0.9,0.3-1.4c0-0.3-0.2-0.7-0.2-1c0-0.5-0.1-1.1,0-1.5c0.1-0.7-0.1-1.5,0.4-2.3
		c0.2-0.3-0.3-1.2-0.4-1.8c0-0.1-0.3-0.3-0.2-0.4c0.2-0.6,0.4-1.2,0.7-1.8c0-0.2,0.2-0.4,0.2-0.5c-0.2-0.5-0.4-1.1-0.6-1.6
		c-0.1-0.3-0.1-0.5,0-0.8c0.2-0.7,0.4-1.4,0.2-2.1c0-0.3,0.1-0.6,0.2-0.9c0-0.1,0.1-0.2,0.1-0.3c0-0.6-0.1-1.2-0.1-1.8
		c0-0.8,0-1.7,0-2.6c0-0.4-0.2-0.7-0.3-1.1c0-0.2,0-0.4,0-0.5c0.1-0.7,0.5-1.4-0.1-2c0,0-0.1-0.2,0-0.2c0.4-0.7,0.2-1.4,0.3-2.2
		c0-0.7,0.4-1.5,0.4-2.2c0-0.3-0.1-0.7-0.4-0.8c-0.4-0.3-0.3-0.5-0.2-0.8c0.3-0.7,0.7-1.3-0.1-1.9c-0.1,0,0-0.4,0-0.5
		c0.3-0.6,0.4-1.2,0.2-1.8c-0.1-0.3,0.2-0.7,0.4-0.9c0.3-0.4,0.2-0.6,0-1c-0.1-0.2-0.3-0.5-0.2-0.7c0.2-0.9-0.4-1.7-0.3-2.6
		c0.1-0.5,0-1,0-1.5c0-0.1,0-0.2,0-0.2c-0.7-0.7,0-1.6-0.1-2.4c0-0.4,0.3-0.9,0.2-1.2c-0.3-1.1-0.4-2.2-0.1-3.3c0.1-0.6,0-1.2,0-1.8
		c0-0.7,0-1.4,0.1-2c0-0.4,0.3-0.7,0.8-0.5c0.3,0.1,0.7-0.1,1.1-0.1c0.5,0,1-0.1,1.5,0.1c0.9,0.3,1.6-0.1,2.5-0.3
		c0.7-0.1,1.2,0.2,1.3,0.9c0,0.4,0.2,0.7,0.3,1c0.4,1,0.4,2.1,0.1,3.1c0,0.1-0.1,0.3,0,0.4c0.6,1.2-0.1,2.3-0.1,3.4
		c0,0.4-0.2,0.7,0.2,1.1c0.4,0.4,0.3,1.3,0.2,1.9c0,1.3-0.2,2.6-0.3,4c0,0.1,0,0.3,0,0.4c0.6,0.6,0.4,1.3,0.3,1.9
		c0,0.5-0.2,1-0.2,1.5c0,0.4,0.2,0.9,0.2,1.3c0,0.3-0.2,0.6-0.3,0.8c0.1,0.7,0.2,1.4,0.2,2.1c0,0.5-0.1,1.1-0.2,1.6c0,0,0,0.1,0,0.1
		c0.9,0.9,0.1,1.7-0.1,2.6c0.5,0.2,0.4,0.6,0.4,1.1c-0.1,1-0.5,2,0,2.9c0,0.1,0,0.4-0.1,0.4c-0.7,0.5-0.3,1,0,1.5
		c0.1,0.1,0.2,0.4,0.1,0.5c-0.5,0.9-0.2,1.8,0,2.6c0,0.1,0,0.3-0.1,0.4c-0.4,0.7-0.5,1.4-0.2,2.2c0.1,0.4,0,0.8-0.1,1.2
		c-0.2,0.6-0.1,1.1,0.1,1.7c0.2,0.4-0.1,1.1-0.2,1.6c0,0.2,0,0.4,0.1,0.7c0,0.1,0.1,0.2,0.1,0.2c-0.4,0.8,0,1.6,0,2.5
		c0,0.8-0.2,1.7-0.3,2.6c0,0.1,0,0.3,0.1,0.4c0.5,0.4,0.3,0.7,0,1.1c-0.1,0.1-0.1,0.4,0,0.5c0,0.3,0.1,0.7,0.2,1
		C155.1,56.2,155,56.2,155,56.3"/>
	<path class="st2" d="M134.5,83.9h5.4c1.7,0,3.3-0.1,5-0.1c0.5,0,0.8,0.1,0.8,0.7c0,1.6,0,3.3,0,4.9c-0.9,0.1-1.8,0.3-2.7,0.4
		c-1.4,0-2.7,0-4.1,0c-1.5,0-2.9-0.1-4.3-0.2c-0.8,0-1.6,0-2.4,0c-1.3,0.1-2.6,0.2-4,0.2c-0.9,0-1.9,0-2.3-1.1
		c-0.1-0.2-0.1-0.6,0-0.7c0.3-0.5,0.4-1.1,0-1.6c-0.1-0.1-0.1-0.4,0-0.5c0.5-0.9,0.6-1.8,0-2.8c-0.1-0.2,0.3-0.6,0.4-0.9
		c-0.6-0.4-0.7-0.7-0.1-1.7c-0.9-0.5-0.4-1.2-0.1-1.7c0.2-0.6,0.1-1.1,0-1.6c-0.2-0.5-0.3-1,0.3-1.3c0.3-0.2,0.2-1.1-0.1-1.5
		c-0.1-0.1-0.3-0.2-0.4-0.4c0.1-0.5,0.4-1,0.4-1.5c0.1-1.2,0.1-2.5,0.1-3.8c0-0.4,0.1-0.9,0.2-1.4c0.1-0.4,0.4-0.9-0.2-1.2
		c0,0-0.1-0.2,0-0.4c0.1-1.1,0.2-2.2,0.2-3.3c0-0.6,0.4-1.2-0.2-1.8c-0.2-0.2,0-1,0.2-1.5c0.4-1.1,0.3-2.3,0.3-3.4
		c0-0.9,0.2-1.8,0-2.7c-0.3-1.8-0.2-3.7-0.1-5.5c0-0.7,0-1.4,0-2c0.1-0.8,0.1-1.6-0.1-2.4c0-0.1,0.2-0.4,0.2-0.4c0-0.5,0-0.8,0-1.1
		c0-1-0.1-2-0.1-3c0-0.5,0.2-0.9,0.3-1.4c0.1-0.9,0.2-1.8-0.4-2.6c0-0.1,0-0.3,0-0.4c0.2-0.7,0.4-1.5,0.6-2.2c0-0.2,0-0.5,0-0.7
		c-0.5-0.7-0.4-1.7-0.2-2.4c0.2-0.8,0-1.6,0.1-2.4c0-0.4,0-0.9,0-1.6c-0.7-0.4,0.1-1.2,0-1.9c-0.4-1.7,0.2-3.5-0.2-5.2
		c-0.3-0.9,0-2,0-2.9c0-1.1,0.1-2.2,0.1-3.3c0-1,0-1.9,0-2.9c0-1-0.2-2-0.2-3.1c0-0.5,0.2-1.1,0.3-1.6c0-0.3,0-0.5,0.1-0.8
		c0.1,0,0.1-0.1,0.1-0.1c1.1,0.7,2.2,0,3.3,0c0.3,0,0.4,0,0.6,0.1c0.2,0.1,0.5,0.1,0.7,0c0.5,0,1-0.2,1.5-0.2c0.6,0,1.5,0.7,1.6,1.2
		c0,0.1,0,0.3,0,0.4c-0.6,0.5-0.1,0.9,0,1.4c0.1,0.7,0,1.6-0.2,2.4c-0.1,0.6-0.4,1.1,0.3,1.5c0.1,0,0.2,0.2,0.1,0.3
		c-0.2,0.6-0.1,1.1-0.1,1.7c0,1.1-0.3,2.2-0.4,3.3c0,0.1,0,0.4,0,0.4c0.7,0.3,0.5,0.8,0.3,1.2c-0.6,1.3,0,2.5,0.1,3.7
		c0,0.6,0.1,1.3-0.1,1.9c-0.3,0.9-0.1,1.7,0.1,2.5c0.1,0.5,0.2,0.9,0,1.5c-0.3,0.8-0.1,1.8-0.1,2.7c0,0.3,0,0.6,0.1,0.8
		c0,0.4,0,0.7,0.3,1c-0.2,0.3-0.4,0.6-0.4,0.9c0,0.3,0,0.6,0.1,0.9c0.3,0.6,0.2,1.5-0.2,1.7c-0.1,0.7-0.2,1.2-0.2,1.7
		c0,0.8,0,1.7,0.3,2.5c0.3,0.8,0.2,1.6-0.2,2.3c-0.3,0.6,0,1,0.1,1.5c0.1,0.3,0.1,0.7,0,1c-0.2,0.5-0.6,1,0,1.6c0.1,0.1,0,0.3,0,0.4
		c-0.4,0.6-0.4,1.1-0.1,1.8c0,0.1,0,0.2,0,0.4c0,1.1-0.1,2.1,0.1,3.1c0.2,0.7,0.2,1.1-0.1,1.7c0,0-0.1,0.2,0,0.2
		c0.5,0.6,0.1,1.1,0,1.6c-0.2,0.7-0.2,1.5,0.4,2.2c0.1,0.1,0.1,0.4,0,0.5c-0.5,0.7-0.4,1.5-0.3,2.3c0,0.3-0.3,0.6-0.4,0.9
		c-0.1,0.4-0.2,1,0,1.2c0.5,0.5,0.3,1.1,0.3,1.6c0.1,0.8,0.2,1.7,0,2.5c-0.1,0.7,0,1.3,0,2c0,1.3-0.2,2.6-0.3,3.9
		c0,0.2,0.2,0.4,0.3,0.6c0.4,0.7,0.3,1.4,0,2.1c-0.3,0.5-0.1,1,0.1,1.5c0.1,0.3,0.1,0.7,0.1,1c0,0.6-0.7,1.3,0.1,1.8
		c0.1,0.1-0.1,0.4-0.1,0.7v1.3c0,0.1,0,0.4,0,0.4c-0.5,0.5-0.2,1-0.2,1.5C134.7,82.8,134.6,83.4,134.5,83.9"/>
	<path class="st2" d="M114.1,39.1c-0.1-0.4-0.4-0.7-0.3-1c0.1-0.7,0-1.4-0.2-1.9c-0.5-1,0.1-1.9,0-2.9c0-0.7-0.2-1.4-0.3-2.1
		c0-0.4,0-0.8,0.2-1.1c0.4-0.7,0.3-1.4,0.1-1.9c-0.4-1.4,0.1-2.8-0.1-4.1c-0.1-0.8,0.5-1.8-0.4-2.5c0,0,0-0.3,0.1-0.4
		c0.6-0.6,0.4-1.2,0.3-1.8c0-0.3,0-0.7,0.2-0.9c0.4-0.6,0.4-1.1-0.2-1.5c-0.4-0.3-0.4-0.6-0.3-0.9c0.4-0.7,0.3-1.4,0.3-2.2
		c0-1,0-1.9-0.3-2.8c-0.1-0.3,0.3-0.7,0.3-1c0-0.8-0.4-1.7,0.2-2.6c0,0,0-0.2-0.1-0.4c-0.7-1.2-0.4-2.4,0.1-3.6
		c0-0.1,0.2-0.3,0.3-0.3c1,0,1.9-0.4,2.9,0.2c0.3,0.2,0.6,0.4,0.9-0.1c0.4-0.5,0.9-0.4,1.4-0.2c0.4,0.1,0.7,0.1,1.1,0
		c0.8-0.3,1.2,0,1.2,1.1c0,0.3,0,0.7-0.2,0.9c-0.4,0.7-0.3,1.3,0,1.8c0.4,0.7,0.2,1.3,0.1,2c0,0.4,0,0.7,0,1.1c0,0,0,0.1,0,0.1
		c-0.1,0.8-0.3,1.6-0.5,2.4c0,0.1-0.1,0.3-0.1,0.4c0.1,0.6,0.2,1.2,0.3,1.8c0,0.4,0,0.8,0,1.2c0,0.3,0,0.6,0.1,0.9
		c0,0.3,0.2,0.6,0.2,0.8c0,0.3-0.2,0.7-0.2,1c0,0.5-0.1,1,0.1,1.4c0.1,0.4,0.4,0.7-0.1,1.1c-0.1,0.1-0.2,0.4-0.1,0.6
		c0.3,0.7,0.2,1.5,0.2,2.2c0,1.3-0.6,2.6,0,3.9c0,0.1,0,0.3,0,0.4c0,0.1-0.1,0.3-0.1,0.4c1.1,1.1-0.2,2,0,3c0.1,0.3,0.3,0.6,0.3,0.9
		c0,0.7-0.2,1.5-0.3,2.2c0,0.4,0,0.9,0,1.3c0,0.5,0,1,0.3,1.4c0.3,0.4,0.3,0.7,0.1,1c-0.5,0.9-0.5,1.8-0.3,2.8
		c0.3,0.9,0.3,1.9-0.5,2.7c0.1,0.2,0.3,0.5,0.5,0.6c0.7,0.4,0.4,1.1,0.3,1.6c0,0.4,0,0.9-0.1,1.4c0,0.3-0.1,0.6-0.2,0.9
		c0.6,0.7,0.1,1.5,0.1,2.3c0,0.7-0.1,1.4-0.1,2.1c0,0.6-0.1,1.3-0.1,1.9c0,0.4,0.2,0.8,0.4,1.2c0,0.1,0.3,0.3,0.3,0.4
		c0,0.8-0.1,1.5-0.3,2.3c0,0.3-0.2,0.6-0.3,0.9c-0.3,0.5-0.4,0.8,0.1,1.3c0.3,0.3,0.4,1.1-0.1,1.5c-0.1,0.1-0.1,0.4,0,0.6
		c0.4,0.8,0.6,1.2,0.1,1.8c0.1,0.8,0.2,1.5,0.3,2.1c0,0.4,0.2,0.9,0.1,1.4c0,0.5-0.3,1-0.4,1.5c0,0.4,0,0.8,0.3,1
		c0.4,0.3,0.3,0.6,0.1,0.9c-0.4,0.6-0.4,1.2-0.2,1.9c0.1,0.5-0.2,1.1-0.3,1.7c0,0.2-0.1,0.4,0,0.5c0.4,0.7,0.5,1.5,0.3,2.3
		c0,0.2,0,0.5,0,0.7c0,0.1,0.1,0.3,0.1,0.4c-0.4,1.1,0.4,2.2,0,3.4c-0.1,0.2-0.1,0.5,0,0.7c0,0.4,0.1,0.7,0.1,1.1c0,0.5,0,1,0,1.5
		c0,0.2-0.1,0.4-0.1,0.5c0,0.2-0.2,0.5-0.1,0.6c0.4,0.5,0.2,0.8-0.3,1.1c0.1,0.3,0.2,0.5,0.3,0.7c0.1,0.4,0.1,0.6-0.4,0.7
		c-0.4,0.1-0.8,0.3-1.3,0c-0.3-0.2-0.8,0-1.3,0.1v0.2c-0.3-0.2-0.5-0.3-0.8-0.5c-0.1,0-0.2-0.1-0.3-0.1c-0.6,0.5-1.2,0.2-1.9,0.2
		c-0.7,0-1.3,0-2-0.1c-0.1,0-0.3-0.4-0.3-0.6c0.5-1.1,0.1-2.2,0.2-3.3c0.1-1.4-0.2-2.7,0-4c0.1-0.8,0.3-1.8,0.2-2.6
		c0-0.3-0.2-0.6-0.2-0.8c0-0.2-0.1-0.5,0-0.6c0.4-0.5,0.5-1,0.2-1.6c-0.2-0.5,0-1.3,0-1.9c0-0.8,0.1-1.6-0.3-2.4
		c-0.1-0.2,0.2-0.6,0.4-0.8c0-0.4,0.1-0.7,0-1.1c0-0.4-0.3-0.8-0.3-1.3c0-0.8,0.2-1.7-0.1-2.4c-0.3-0.7,0.1-1.2,0.2-1.8
		c0.1-0.4-0.1-0.7-0.2-1.1c0-0.2-0.2-0.5,0-0.7c0.4-0.4,0.3-0.8,0.2-1.3c-0.1-0.6,0-1.2,0-1.8c0-0.7,0.1-1.3,0.2-1.9
		c0-0.1,0-0.3,0-0.4c-1-0.9-0.2-1.8-0.1-2.8c0-0.2,0-0.5-0.1-0.7c-0.3-0.4-0.4-0.6-0.1-1.1c0.1-0.2-0.1-0.6-0.1-0.9
		c0.1-0.8,0.4-1.5,0.3-2.3c0-0.3-0.3-0.5-0.3-0.7c0-0.6,0.2-1.2,0.3-1.8c0-0.1,0.1-0.2,0-0.3c-0.4-0.6-0.4-1.3-0.1-1.9
		c0.1-0.3-0.3-0.7-0.3-1.1c0-0.5,0.3-1.2,0.1-1.6c-0.3-0.7,0.1-1.3,0.1-2C113.7,39.4,114,39.2,114.1,39.1"/>
	<path class="st2" d="M234.2,49.9c-0.1,0.6-0.4,1.2-0.4,1.8c0,0.2,0.1,0.5,0.2,0.7c0,0.1,0.2,0.3,0.2,0.4c-0.1,0.6-0.2,1.2,0.2,1.8
		c0,0.1-0.1,0.4-0.2,0.5c-0.3,0.4-0.6,0.7-0.2,1.3c0.3,0.4,0.1,1.2,0,1.7c-0.4,1,0,1.9,0.2,2.9c0.1,0.7,0.4,1.2-0.1,2
		c-0.3,0.4-0.1,1.2-0.1,1.8c0,0.5-0.1,1-0.2,1.5c0,0.2,0.2,0.4,0.3,0.7c0.1,0.4,0.1,0.7,0.1,1.1c0,0.3-0.2,0.6-0.2,0.9
		c0,0.7-0.8,1.3-1.6,1.1c-0.2-0.1-0.5,0-0.8,0c-0.5,0-1-0.1-1.4-0.3c-0.4-0.1-0.7-0.3-1.2,0.1c-0.4,0.4-2.4,0.2-2.6-0.3
		c-0.1-0.2,0-0.7,0.2-0.8c0.5-0.3,0.6-0.7,0.4-1.2c-0.1-0.6-0.2-1.2,0.4-1.7c0.4-0.4,0.5-0.9,0-1.2c0.5-1.3,1-2.4,1.4-3.6
		c0-0.1,0.1-0.3,0.1-0.3c-0.8-0.7,0.1-1.4,0.2-2.1c0.1-0.7,0.4-1.5,0.7-2.2c0-0.3,0-0.5,0-0.8c0-0.4-0.2-0.9,0-1.1
		c0.4-0.5,0.4-1,0.4-1.5c0.2-0.8,0.4-1.6,0.5-2.4c0-0.1,0-0.2,0.1-0.3c0.9-0.5,0.5-1.3,0.3-1.8c-0.2-0.6,0-1,0.3-1.3
		c0.7-0.6,0.7-1.4,1.1-2.1c0.4-1.1,0.2-2.4,0.4-3.6c0.1-0.5,0.2-1.1,0.4-1.6c0.2-0.6,0.6-1.1,1-1.8c-0.1,0.4-0.2,0.6-0.2,0.7
		c-0.1,0.4-0.1,0.6,0,1.1c0.3,0.7,0.3,1.5,0.3,2.3c0,0.6-0.4,1.2-0.3,1.7c0.2,0.7,0,1.2,0,1.8c0,0.2,0,0.4-0.1,0.6
		c-0.2,0.4-0.3,0.7,0.1,1.1c0.3,0.4,0.6,1,0.2,1.6C234.1,49.2,234.3,49.6,234.2,49.9 M243.1,87.6c-0.1-0.3-0.2-0.7-0.1-0.9
		c0.2-0.7,0.4-1.3,0.2-1.9c0-0.1,0-0.3,0-0.4c0.1-0.8,0.3-1.6,0.4-2.4c0.1-0.8-0.7-1.6-0.1-2.5c0,0-0.2-0.3-0.3-0.4
		c0.1-0.3,0.3-0.6,0.2-0.7c-0.7-1.3,0-2.6-0.2-3.9c-0.1-0.5-0.1-1,0-1.5c0.3-0.7,0-1.3-0.1-1.9c0-0.2-0.3-0.5-0.2-0.6
		c0.7-1.2-0.3-2.6,0.4-3.7v-0.1c0-1-0.9-2-0.2-3c0,0,0-0.1,0-0.2c0-0.4,0-0.7,0-1.1c0-0.9,0.1-1.8-0.1-2.7c-0.3-0.8-0.1-1.5,0-2.2
		c0-0.4,0.2-0.7-0.1-1.1c-0.2-0.3-0.1-0.8-0.1-1.3c0-0.6,0.2-1.1,0.1-1.7c-0.1-0.9-0.3-1.7-0.4-2.6c0-0.2,0.2-0.4,0.2-0.5
		c0-0.4,0.1-0.7,0-1c-0.1-0.6-0.7-1-0.2-1.7c0-0.1,0-0.2,0-0.4v-1.7c0-0.8,0-1.5,0-2.3c0-0.2-0.2-0.4-0.4-0.5
		c0.3-0.7,0.4-1.5,0.4-2.2c0-1.1,0-2.3,0-3.4c0-0.4-0.2-0.9-0.3-1.3c0-0.3,0-0.6,0-0.8V32c0.3-0.3,0.3-0.3,0.1-0.9
		c0-0.1,0-0.3,0-0.4c0.1-0.7,0.2-1.4,0.2-2.1c0-1-0.1-2-0.1-3c0-0.4-0.1-0.9-0.1-1.4c0-0.4,0.1-0.8,0.1-1.3c0-0.7-0.1-1.4-0.1-2.1
		c0-0.8,0-1.7,0.1-2.6c0.2-0.9-0.6-1.8,0.1-2.6v-0.1c-0.5-0.4-0.2-0.9-0.1-1.4c0-0.3-0.1-0.5-0.2-0.7c0-0.4-0.1-0.7-0.1-1.1
		c0.1-1,0.3-2,0.3-3c0-0.8-0.3-1.6-0.3-2.4c0-0.9,0.4-1.8,0-2.7c0,0,0.1-0.2,0.1-0.3c0-0.3,0.1-0.8-0.1-0.9
		c-0.4-0.3-1.1-0.7-1.4-0.5c-0.6,0.3-0.9,0-1.3-0.3c-0.4-0.4-0.7-0.5-1.2,0c-0.2,0.2-0.6,0.2-0.9,0.2c-0.5,0-1-0.1-1.5-0.1
		c-0.8-0.1-0.8,0.5-0.9,1.1c0,0,0,0,0,0c-0.7,0.4-0.4,1-0.3,1.4c-0.3,0.6-0.6,1-0.7,1.4c-0.3,1-0.6,2-0.8,2.9c0,0-0.1,0.1-0.1,0.1
		c0,0.3-0.1,0.6-0.2,0.8c-0.4,0.7,0.2,1.5-0.5,2.1c-0.5,0.4-0.5,1-0.5,1.5c0,0.8-0.4,1.4-0.6,2c-0.3,0.9-0.4,1.8-0.5,2.7
		c0,0.3-0.1,0.6-0.2,0.8c0,0.3-0.1,0.5-0.2,0.8c-0.1,0.6-0.6,1.1-0.6,1.7c0,0.9-0.8,1.6-0.4,2.6c0,0-0.2,0.2-0.3,0.3
		c-0.1,0.2-0.3,0.4-0.2,0.6c0.4,0.6-0.1,1-0.4,1.5c-0.1,0.2-0.2,0.5-0.1,0.7c0.1,0.6,0.6,1.3-0.4,1.6c-0.1,0-0.2,0.3-0.2,0.4
		c0,0.4,0,0.7,0,1.1c-0.1,0.5-0.3,0.9-0.4,1.4c-0.3,1.2-0.1,2.6-1,3.7c-0.1,0.1-0.1,0.3-0.1,0.5c0,0.3-0.1,0.5-0.2,0.7
		c-0.1,0.3-0.5,0.6-0.4,0.7c0.3,0.6-0.1,1-0.4,1.5c-0.1,0.3-0.3,0.6-0.2,0.8c0.4,0.8,0,1.3-0.4,1.9c-0.2,0.3-0.4,0.6,0,1
		c0.2,0.2,0.4,0.6,0.3,0.7c-0.6,1-1.3,2-1,3.3c0,0.1,0,0.2,0,0.3c-0.4,0.7-0.1,1.6-1,2.1c-0.1,0,0,0.4-0.1,0.6
		c-0.1,0.8,0,1.6-0.2,2.4c-0.2,0.7-1,1.3-0.6,2.2c0,0.1-0.1,0.3-0.2,0.4c-0.7,0.8-0.7,1.3,0,2.2c-0.1,0.1-0.2,0.2-0.3,0.4
		c-0.7,1.5-1.2,2.9-1.2,4.6c0,0.4-0.1,0.9-0.3,1.2c-0.7,1.1-0.9,2.2-0.8,3.1c-0.2,0.5-0.4,0.9-0.5,1.2c-0.1,0.3,0,0.6-0.1,0.8
		c-0.3,1.1-1.1,2-1.2,3.2c0,0.6-0.2,1.1-0.3,1.7c0.1,0.1,0,0.1,0,0.2c-0.3,0.8-0.5,1.5-0.7,2.3c0,0.1,0,0.3,0,0.4
		c-0.6,0.9-0.7,1.9-0.9,2.9c-0.1,0.4,0,0.8,0,1.3c0,0.2-0.1,0.4-0.2,0.5c-0.1,0.2-0.4,0.3-0.4,0.5c-0.3,0.9-0.5,1.8-0.8,2.6
		c-0.3,0.7,0,1.4-0.5,2c-0.4,0.4-0.4,0.9,0.1,1.3c-0.9,1-1.4,2-1,3.3c2.8,0.1,5.6,0.2,8.1,0.3c0.3-0.4,0.5-0.8,0.7-1.2
		c0.1-0.2,0.3-0.4,0.3-0.7c0-0.6-0.1-1.1-0.1-1.7c0-0.2,0.1-0.4,0.2-0.5c0.2-0.3,0.4-0.6,0.4-0.9c0.2-0.6,0.4-1.2,0.5-1.8
		c0.1-0.5,0.2-1,0.3-1.5c0.3-0.6,0.5-1.5,0.4-2.2c-0.1-0.6,0.8-1.6,1.3-1.3c1,0.5,2,0,2.9,0c0.8,0,1.5-0.2,2.2,0.3
		c0.1,0,0.4,0,0.4,0c0.5-0.7,1.4-0.4,1.7-0.3c0.7,0.4,1.3-0.1,1.9,0c-0.5,1.5,0.6,2.9,0,4.4c0,0.1,0,0.3,0,0.4
		c0.6,0.9,0.2,1.9,0.4,2.8c0,0.1-0.1,0.2-0.1,0.4c0,0.3-0.1,0.5-0.1,0.7c0,0.8,0.2,1.6,0.2,2.4c0,0.3-0.1,0.5-0.1,0.9
		c0.5,0,0.8,0,1.2-0.1c0.7,0,1.3,0,1.9,0c0.7-0.1,1.5-0.2,2.3-0.2c0.6,0,1.3-0.5,1.7-0.3c0.9,0.4,1.3,0.5,1.5-0.6
		c0-0.1,0.2-0.2,0.3-0.3c0.1-0.1,0.2-0.3,0.1-0.4C243.4,88.5,243.2,88.1,243.1,87.6"/>
	<path class="st3" d="M244.5,98.5c-0.1-0.3-0.3-0.5-0.2-0.7c0.1-0.6,0.3-1.2,0.4-1.8c0-0.1,0.2-0.1,0.3-0.1c0.2-0.1,0.5-0.1,0.7-0.1
		h0.5c0.1,0,0.3,0.1,0.3,0.1c0.5-0.3,1.1-0.3,1.6-0.3c0.1,0,0.3,0,0.5,0.1c0.5,0.1,0.8-0.1,0.8-0.5c0-0.7-0.1-1.5-0.1-2.2
		c0-0.8,0.1-1.6,0.1-2.4c0-0.1-0.1-0.3-0.1-0.3c-0.3-0.3-0.1-0.7-0.1-1c0.1-0.4,0.1-0.8,0-1.2c-0.1-0.9-0.2-1.8-0.1-2.6
		c0-0.1-0.1-0.3-0.2-0.5c0.5-0.3,0.1-0.6,0.1-0.9c-0.1-0.6,0-1.2,0-1.9c0-0.8,0.1-1.5,0.1-2.4v-0.1c-0.5-0.5-0.1-1.1-0.1-1.7
		c0-0.3-0.1-0.5-0.5-0.5c-0.9-0.1-1.8-0.1-2.7-0.2c-0.8-0.1-1.3-0.7-1.5-1.5c-0.1-0.2-0.1-0.3-0.1-0.5c0.3-0.3,0.8-0.5,0.7-1.1
		c0-0.1,0.6-0.2,0.9-0.3c0.2,0,0.4,0,0.5,0.1c0.3,0,0.7,0.1,1,0.1h0.1c0.5,0,1.1-0.1,1.6-0.1h0.7c0.2,0,0.4-0.1,0.6-0.1
		c0.1,0,0.1-0.1,0.2-0.1c1.1-0.1,2.3-0.1,3.4,0.2l0.1,0.1c0.3,0.5,0.6,0.9,0.9,1.3c0.3,0.5,0.6,1.1,0.9,1.7c0.1,0.2,0.2,0.4,0.3,0.6
		c0.1,0.9,0.7,1.5,1.1,2.2c0.3,0.4,0.4,0.9,0.5,1.3c0.1,0.1,0.1,0.3,0.2,0.5c0.6,1,1.2,2,1.8,3c0.4,0.7,0.7,1.5,1,2.2
		c0.2,0.5,0.3,1,0.5,1.4c0.1,0.3,0.4,0.6,0.5,0.9c0.1,0.3,0.1,0.5,0.2,0.9c0.4,0,0.6,0.3,0.7,0.8c0.1,0.5,0.3,0.9,0.6,1.3
		c0.3,0.5,0.5,1.1,0.8,1.7c0.3-0.2,0.5-0.9,0.2-1.3c-0.3-0.4-0.2-0.8-0.1-1.2c0-0.7,0.1-1.4,0.1-2.1c0-0.3-0.1-0.7-0.2-1.1
		c-0.1-0.3,0-0.7-0.1-1v-1.3c0-0.3-0.1-0.7,0-0.9c0.3-0.6,0.1-1.2,0.2-1.9c0-0.3,0.1-0.5,0.1-0.8c0-0.3-0.1-0.6-0.1-0.9v-0.1
		c0.1-0.9,0.3-1.7,0.4-2.6c0.1-0.4,0.1-0.9,0-1.3c0-0.1-0.3-0.1-0.5-0.1c-0.3,0-0.7,0-1.1,0.1h-0.5c-0.3,0-0.5-0.1-0.8-0.1
		c-0.1,0-0.2-0.1-0.3-0.1c-0.6,0.5-0.9-0.1-1.4-0.3c0-0.2-0.1-0.3-0.1-0.5h-0.1c-0.1,0.1-0.1,0.3-0.2,0.5c-0.1-0.1-0.3-0.1-0.3-0.2
		c-0.1-0.4-0.4-0.8-0.4-1.1c0.1-0.5,0.3-0.9,0.6-1.3c0.2-0.3,0.5-0.5,0.9-0.5c0.7,0.1,1.5-0.1,2.2,0.1c0.2,0.1,0.4-0.1,0.6-0.1
		c0.8,0,1.7,0.1,2.5,0.1c0.3,0,0.7-0.1,1.1-0.1c0.7,0,1.5,0.1,2.3,0.1c0.1,0,0.3,0.1,0.4,0c0.7-0.3,1.1,0.1,1.6,0.5
		c0.1,0.1,0.3,0.2,0.4,0.3c-0.1,0.1-0.1,0.3-0.3,0.6c0.3-0.1,0.5-0.2,0.6-0.3c0,0.1,0.1,0.1,0.1,0.2c-0.3,0.7-0.3,1.6-1.3,1.8
		c-0.3,0.1-0.7,0.3-1,0.3c-0.3,0-0.7-0.1-1.1-0.1c-0.2,0-0.4-0.1-0.6-0.1c0.1,0.7,0.1,1.3,0.1,1.9c0,0.1,0,0.3-0.1,0.5
		c-0.3,0.4-0.2,0.9-0.1,1.3c0.1,0.3,0.1,0.6,0,0.8c-0.3,0.7-0.1,1.4-0.1,2.1c0,0.2-0.1,0.3-0.1,0.5v1.3c0,0.3-0.2,0.7-0.1,1
		c0,0.6,0.1,1.3,0.2,1.9c0,0.1,0.1,0.1,0.1,0.2c-0.3,0.8,0,1.5-0.1,2.4c0,0.6,0.1,1.2,0,1.8c0,0.5-0.2,1-0.2,1.5
		c0,0.5,0.1,1.1,0.1,1.6c0,0.5-0.1,1.1-0.1,1.6c0,0.1,0.1,0.3,0.1,0.5c0,0.1,0.1,0.4,0,0.5c-0.3,0.3-0.7,0.6-1.1,0.9
		c-0.1,0.1-0.2,0.1-0.2,0.1c-0.4,0.8-1.1,0.5-1.8,0.4c-0.2-0.1-0.4-0.1-0.5-0.2c-0.3-0.4-0.5-0.8-0.7-1.2c-0.3-0.6-0.7-1.3-1.1-1.9
		c-0.3-0.5-0.7-1.1-1.1-1.6c-0.1-0.1-0.1-0.3-0.1-0.3c-0.1-0.3-0.3-0.5-0.5-0.8c-0.2-0.4-0.5-0.8-0.7-1.1c-0.3-0.7-0.6-1.3-0.9-2
		c-0.3-0.7-0.7-1.5-1-2.2c-0.1-0.3-0.3-0.5-0.5-0.9c-0.1-0.1-0.1-0.1-0.1-0.2c-0.3-1.1-0.9-2-1.5-2.9c-0.3-0.5-0.7-1-0.9-1.7
		c-0.2-0.8-0.8-1.5-1.3-2.3c0-0.1-0.1-0.1-0.1-0.1c-0.2-0.5-0.4-1.1-0.6-1.7H252v1.1c0,0.1,0.1,0.3,0.1,0.5c0,1-0.1,2.1-0.1,3.1
		c0.1,0.5,0,1.1-0.1,1.6c-0.1,0.5,0.1,1,0.1,1.5c0,0.6,0.1,1.2,0.1,1.8c0,0.4-0.1,0.8-0.1,1.2c0,0.6,0.1,1.2,0.1,1.8
		c0.1,0.5,0.1,0.9,0.1,1.3c0,0.3-0.1,0.7-0.1,1.1c0.1,0.4,0.2,0.9,0.2,1.3c0.1,0.5,0.1,0.8,0.7,0.9c1,0.1,2,0.3,3,0.5
		c0.5,0.1,0.9,0.6,1.3,0.9c0.1,0.1,0,0.2,0,0.3c0,0.1-0.2,0.3-0.1,0.3c0.3,0.5-0.3,0.8-0.5,0.9c-0.3,0.3-0.9,0.4-1.3,0.4
		c-0.3,0-0.7-0.3-1-0.3c-0.3-0.1-0.6,0.1-0.9,0.2c-0.8-0.4-1.7-0.3-2.6-0.1c-0.2,0.1-0.4-0.1-0.6-0.1H248c-0.9,0.1-1.8,0.2-2.8,0.2
		c-0.3,0-0.5-0.2-0.7-0.3C244.8,98.8,244.6,98.7,244.5,98.5"/>
	<path class="st3" d="M223.9,95.9c-0.1-0.6-0.3-1-0.3-1.5c0-0.1,0.1-0.3,0.1-0.3c0-0.1,0.1-0.3,0.1-0.5c-0.3-0.7,0.1-1.3,0-2
		c-0.1-0.7-0.2-1.4-0.3-2.2c-0.1-0.4,0.1-0.8,0.1-1.2c0-0.1,0.1-0.2,0.1-0.3c-0.3-0.9-0.1-1.8-0.1-2.7c0-0.9-0.1-1.8-0.1-2.7
		c-0.1-0.6-0.1-1.2-0.1-1.9c0-0.5,0.1-0.9,0.1-1.4v-0.4V78c0,0-0.1-0.1-0.2-0.1h-2.8c-0.5,0-0.8-0.3-0.9-0.7c0-0.2-0.1-0.3-0.1-0.5
		c-0.1-0.3-0.2-0.5,0.1-0.7c0.1-0.1,0.1-0.3,0.1-0.4c0-0.7,0.3-1,1-1c1.1-0.1,2.1-0.2,3.1-0.3h0.1c0.5,0.1,1,0.1,1.6,0.2
		c0.1,0,0.2,0.1,0.3,0c1.1-0.2,2.2-0.2,3.3-0.1c0.7,0.1,1.5,0,2.2,0.1c1,0.2,2-0.3,3-0.2c0.7,0,1.5,0,2.3-0.1
		c0.5-0.1,1.1-0.3,1.7,0.1c0.1,0,0.1,0,0.2-0.1c0.9-0.6,1.7,0,2.5,0.4c0.1,0.1,0.2,0.2,0.1,0.3c-0.1,0.6,0.2,1.2,0.2,1.8
		c0,0.8,0.1,1.5,0.1,2.4c0,0.3-0.1,0.5-0.1,0.8c0,0.3-0.1,0.6,0,0.7c0.3,0.4,0.1,0.7,0.1,1.2c-0.1,0.9,0,1.8,0,2.6
		c-0.3,0.3-0.5,0.7-0.8,0.9c-0.1,0.1-0.3,0.3-0.5,0.3c-0.7,0-1.3-0.3-1.6-1c0-0.1-0.1-0.1-0.1-0.1c-0.6-0.3-0.5-0.7-0.5-1.3
		c0-0.2-0.1-0.5-0.2-0.7c-0.1-0.6,0.3-1.2-0.1-1.9c-0.1-0.2,0.1-0.6,0.1-0.9c0-0.5,0.1-1,0-1.5c0-0.2-0.3-0.5-0.5-0.5
		c-0.5,0-1.1,0.1-1.7,0.2c-0.3,0-0.7,0.1-1.1-0.1c-0.6-0.3-1.1,0.2-1.6,0.2c-0.5,0-1,0.1-1.5,0.1c-0.9,0-1.8-0.1-2.8-0.1h-1.5
		c0.1,0.9,0.1,1.6,0.1,2.4c0,0.3-0.2,0.7-0.2,1.1c0,0.4,0.1,0.8,0.1,1.2v0.7c-0.1,0.4,0.3,0.7,0.6,0.5c0.6-0.2,1.1-0.3,1.8-0.1
		c0.7,0.2,1.4,0.1,2.2,0.1c0.3-0.8,0.4-1.5,0-2.4c-0.2-0.4,0.1-1.1,0.3-1.6c0-0.1,0.3,0,0.3-0.1c0.1-0.1,0.1-0.1,0.1-0.3
		c-0.2,0-0.3,0.1-0.6,0.1c0.1-0.2,0.1-0.4,0.2-0.5c0.3-0.1,0.6-0.3,0.9-0.5c0.2-0.1,0.6-0.1,0.9-0.1c0.3,0.1,0.5,0.3,0.8,0.3
		c0.3,0.1,0.5,0.3,0.5,0.7c0,0.1-0.1,0.4,0.1,0.5c0.5,0.3,0.2,0.7,0.2,1.1c0,0.7,0.1,1.4,0.1,2.2v0.5c0,0.9,0.1,1.7,0.1,2.6
		c0,0.6-0.2,1.3,0,1.8c0.3,0.7-0.2,1.3,0,2c0.2,0.6-0.1,1.2-0.3,1.8c-0.1,0.3-0.1,0.5-0.3,0.7c0,0.1-0.1,0.2-0.1,0.2
		c-0.3,0.1-0.5,0-0.7,0.1c-0.2,0.1-0.3,0.4-0.7,0.1c-0.2-0.3-0.6-0.3-0.9-0.5c-0.5-0.3-0.5-0.8-0.5-1.4c0-0.5,0.3-1.1-0.1-1.5
		c-0.1-0.1,0.1-0.5,0.1-0.8c0-0.3-0.1-0.7-0.1-0.9c-0.4-0.1-0.6-0.1-0.9-0.1c-0.7-0.1-1.3-0.1-2-0.1c-0.3,0-0.6-0.1-0.9,0
		c-0.3,0.1-0.6,0.3-0.7,0.6c-0.2,0.5-0.2,1.1-0.1,1.7c0.1,0.9,0,1.9,0,2.8c0,0.1-0.1,0.1,0,0.1c0.5,0.6,0.2,1.3,0.1,2
		c-0.1,0.7,0.7,1.3,1.5,1.1c0.3-0.1,0.7-0.2,1-0.2c0.6,0,1.2,0.1,1.8,0.1h0.1c0.8-0.3,1.6-0.2,2.4-0.1c0.7,0.1,1.3-0.1,2.1-0.1h0.3
		c0.2-0.1,0.5-0.2,0.5-0.3c0.1-0.9,0.2-1.8,0.3-2.6c0.1-0.7,0.1-1.3,0.1-2c0-0.3-0.1-0.7-0.1-1.1c0-0.2,0.1-0.5,0.3-0.7
		c0.7-0.5,1.3-0.9,2.3-0.7h0.1c0.3,0.4,0.9,0.7,0.9,1.1c0.1,0.9,0,1.8,0.1,2.8c0,0.4,0.1,0.7,0.2,1.1v0.3c-0.6,0.9-0.2,2-0.3,3
		c0,0.2-0.1,0.5-0.1,0.7c-0.1,0.3-0.1,0.6-0.1,0.9c0,0.1,0,0.2-0.1,0.3c-0.3,0.3-0.6,0.7-1,0.9c-0.4,0.1-0.9,0.1-1.3,0
		c-0.5-0.1-1.1-0.3-1.6-0.2c-0.5,0.1-1.2-0.4-1.7,0.3c-0.1,0.1-0.3,0-0.4,0c-0.8-0.1-1.5-0.3-2.4,0c-0.3,0.1-0.7,0-1.1,0h-1.7
		c-0.7,0-1.3,0.1-2,0.1c-0.3,0-0.6,0.2-0.9,0.2c-0.5,0-0.9-0.1-1.3-0.1h-0.7c-0.1,0-0.2,0.1-0.3,0.1c-0.7-0.3-1.5-0.2-2.2,0.1
		c-0.1,0-0.1,0.1-0.2,0.1c-0.7-0.4-1.7-0.4-2.3-1.1c-0.1-0.1-0.3-0.3-0.4-0.5c-0.1-0.1-0.1-0.1-0.1-0.1v-0.3
		c0.2-0.3,0.3-0.8,0.5-1.1c0.7-0.7,1.7-0.7,2.6-0.7C222.7,95.9,223.2,95.9,223.9,95.9"/>
	<path class="st3" d="M201.4,96.1c0.3,0,0.7,0.1,1,0.1c1.2-0.1,2.4-0.2,3.6-0.1c0.5,0.1,1.1-0.1,1.8-0.1c0.1,0,0.3-0.1,0.4,0
		c0.5,0.4,0.9,0.1,1.5-0.1c0.4-0.1,0.8,0.1,1.2,0c0.7-0.1,1.3-0.1,2-0.3c0.1-0.1,0.3-0.3,0.3-0.5c0.1-0.4,0.1-0.8,0.1-1.3
		c0-0.2-0.1-0.5-0.1-0.7v-0.5c0-0.1,0.1-0.1,0.1-0.2c-0.3-0.5,0.1-1.1-0.1-1.5c-0.3-0.7,0.1-1.3,0.2-1.8c0.1-0.5,0.8-0.9,1.5-1
		c0.4-0.1,0.6,0.2,0.8,0.5c0.3,0.5,0.6,0.9,0.9,1.3c0.3,0.5,0.3,1,0.2,1.6c-0.1,0.5,0.1,1,0.1,1.5c0,0.3-0.1,0.6-0.1,0.9
		c0.1,0.8-0.1,1.6,0,2.4c0.1,0.6,0,1.1-0.3,1.5c-0.3,0.4-0.6,0.8-0.9,1.2c-0.1,0.1-0.1,0.1-0.3,0.1c-0.5,0-1.1-0.1-1.6-0.1h-0.2
		c-0.7,0.1-1.5,0.5-2.2,0.4c-0.9-0.1-1.7,0.1-2.6,0c-0.3,0-0.6,0.1-0.9,0.1h-0.3c-0.1,0-0.2-0.1-0.3-0.1c-1,0.3-2.1,0-3.2,0.1
		c-0.5,0.1-1,0.2-1.5,0c-0.3-0.1-0.8,0.1-1.2,0.1c-1.1,0.1-2.4,0.2-3.5,0.2c-0.5,0-1-0.3-1.5-0.4c-0.1-0.5,0.1-1-0.5-1.2
		c-0.1,0-0.1-0.1-0.1-0.1c0.1-0.4,0.3-0.9,0.5-1.3c-0.2-0.1-0.1-0.3,0.2-0.6c0.7-0.7,1.3-1.3,2-2.1c0.3-0.4,0.5-0.8,0.8-1.2
		c0.1-0.3,0.3-0.5,0.5-0.7c0.2-0.2,0.4-0.5,0.6-0.7c0.3-0.4,0.7-0.7,1-1.1c0.6-0.7,1.2-1.3,1.8-2c0.5-0.5,0.9-1.1,1.5-1.7
		c0.2-0.2,0.3-0.5,0.5-0.6c0.8-0.5,1.3-1.2,1.9-2c0.2-0.3,0.3-0.6,0.6-0.9c0.3-0.2,0.3-0.6,0.5-0.8c0.3-0.4,0.7-0.7,1-1.1
		c0.2-0.3,0.4-0.5,0.7-0.8c0.3-0.3,0.5-0.7,0.8-1.1c0.4-0.5,0.7-1.1,1.1-1.5h-2.4c-0.3,0-0.5-0.1-0.8-0.2c-0.3,0-0.6,0.1-0.9,0.1
		c-0.9-0.1-1.8-0.1-2.8,0.1c-0.1,0-0.1,0.1-0.1,0c-1-0.5-2,0-3,0c-0.2,0-0.4-0.1-0.5-0.1c-0.1-0.1-0.3-0.1-0.4-0.1
		c-0.1,0.1-0.1,0.3-0.1,0.5c0,0.3,0.1,0.7,0,0.9c-0.1,0.3-0.2,0.7,0.1,1c0.1,0.2,0.1,0.5,0,0.7c0,0.4-0.1,0.8-0.1,1.2
		c-0.1,0.9-0.1,1.8-0.3,2.6c-0.1,0.5-0.8,0.7-1.2,1.1h-0.1c-0.5-0.3-1.1-0.5-1.5-1c-0.5-0.6-0.7-1.4-0.4-2.2
		c0.3-0.6,0.1-1.1,0.1-1.8c-0.1-0.5,0-1.1-0.1-1.5c-0.1-0.5,0.1-1.1-0.1-1.7c-0.2-0.5,0.1-1.1,0.2-1.7c0.2-0.7,0.7-1.4,1.4-1.8
		c0.1-0.1,0.2-0.1,0.3-0.1c0.9,0.1,1.8,0.2,2.7,0.3c0.7,0.1,1.5,0.1,2.2-0.2c0.1-0.1,0.2-0.1,0.3-0.1c0.5,0.4,0.9-0.1,1.3,0
		c1.1,0.1,2.2,0.2,3.4,0.3c0.5,0.1,1.1,0.1,1.6,0.1c0.4,0,0.8-0.1,1.3-0.1c0.9-0.1,1.8,0,2.6-0.1c0.6-0.1,1.1,0.1,1.7,0.2
		c0.8,0.2,1.5,1.5,1.3,2.4v0.1c-0.4,0.5-0.8,1.1-1.3,1.7c-0.5,0.7-1,1.3-1.5,2c-0.1,0.1-0.1,0.1-0.1,0.1c-0.7,0.2-0.9,0.9-1.4,1.5
		c-0.5,0.7-1,1.4-1.5,2.2c-0.6,0.7-1.2,1.3-1.8,2c-0.3,0.3-0.4,0.7-0.7,1c-0.3,0.3-0.7,0.6-0.9,0.9c-0.3,0.5-1,0.8-1.1,1.4
		c0,0.1-0.2,0.1-0.3,0.2c-0.6,0.5-1.2,0.9-1.5,1.7c-0.1,0.3-0.5,0.5-0.7,0.7c-0.2,0.2-0.4,0.4-0.6,0.6c-0.9,1.1-1.8,2.2-2.6,3.3
		C201.4,96,201.4,96,201.4,96.1"/>
	<path class="st3" d="M177.1,85.3c0,0.3,0,0.4,0.1,0.6c-0.1-0.1-0.3-0.1-0.3-0.1c-0.7-0.5-1-1.3-1.1-2.2c0-0.6,0.1-1.3-0.1-1.9
		c-0.1-0.5,0-0.8,0.1-1.3c0-0.4-0.1-0.8-0.2-1.2c-0.1-0.6,0-1.2,0-1.8c-1.1,0.1-2,0.2-3,0.3c-0.5,0-1.1-0.1-1.6-0.1
		c-0.6-0.1-0.7,0.4-0.7,0.7c-0.1,0.6-0.1,1.2-0.1,1.8c0,1.1,0.1,2.1,0.1,3.2c0,0.6-0.1,1.2-0.1,1.8c0,0.2,0.1,0.3,0.1,0.5
		c0,0.3-0.1,0.5-0.1,0.8v0.6c0,0.4-0.1,0.9-0.1,1.3v0.8c0,0.6-0.1,1.3-0.1,1.9c0,0.7,0,1.3,0.1,2c0.1,0.9,0.3,1.8-0.1,2.9
		c0.7,0,1.2,0.1,1.8,0c0.5-0.1,1-0.2,1.5-0.3h0.1c0.4,0.2,0.8,0.3,1.1,0.5c0.3,0.2,0.3,0.6,0.5,0.9c0.3,0.9,0.1,1.1-0.7,1.5
		c0,0.6-0.1,0.7-0.6,0.6c-0.6-0.1-1.1,0.3-1.6,0.2h-0.1c-0.9-0.3-1.8,0.3-2.6-0.1h-0.3c-0.5,0-1-0.1-1.5,0c-0.3,0-0.7,0.2-1,0.2
		c-0.7,0-1.4-0.1-2.1-0.2c-0.5,0-1,0-1.6,0.1c-0.1,0-0.3,0.1-0.3,0c-0.5-0.4-0.9-0.9-1.3-1.3c-0.2-0.2-0.3-0.6,0.1-0.8
		c0.1-0.1,0.1-0.1,0.1-0.2c-0.3-0.8,0.5-0.9,0.9-1c0.4-0.2,0.9-0.2,1.5-0.2c0.7,0,1.5,0.3,2.3-0.1c0.1-0.1,0.2-0.1,0.3-0.1
		c0.3,0.1,0.3-0.1,0.3-0.4c0-0.5,0.1-1,0.2-1.5v-0.1c-0.4-0.7,0.1-1.6-0.3-2.4c-0.1-0.1-0.1-0.1-0.1-0.2c0.3-0.6,0.1-1.2,0.1-1.8
		c0-0.8,0.3-1.6-0.1-2.4c-0.1-0.1,0.1-0.3,0.1-0.4c0.1-0.8,0.5-1.6,0.1-2.4c0-0.1-0.1-0.1,0-0.1c0.3-0.5,0.1-1,0.1-1.5
		c-0.1-1,0-2,0-3c0-0.5,0.1-1,0.2-1.5c0.1-0.4,0-0.5-0.4-0.5c-0.6-0.1-1.2-0.1-1.9-0.2c-0.1,0-0.3,0.1-0.3,0.1
		c-0.2,0-0.4,0.1-0.7,0.1c-0.3,0.6-0.7,0.1-1,0c-0.4,0.1-0.7,0.1-0.9,0.1c-0.2,0.1-0.3,0.3-0.4,0.4c-0.1,0.1,0,0.3,0,0.4
		c0,0.7,0.1,1.3-0.3,1.9c-0.1,0.1,0,0.3,0,0.4c0.2,0.8,0.4,1.7-0.1,2.5c-0.1,0.2,0.1,0.5,0.1,0.8c0,0.3,0,0.6-0.4,0.7
		c-0.1,0-0.1,0.1-0.1,0.1c-0.1,0.2-0.2,0.5-0.3,0.5c-0.7,0.1-1.3,0-2,0c-0.1,0-0.1-0.2-0.1-0.3c-0.2-0.3-0.5-0.7-0.6-1
		c-0.1-0.3,0.5-0.7,0.1-1.1v-0.1c0.4-1.1,0.2-2.3,0.3-3.5c0-0.5-0.1-1.1,0.1-1.7c0.2-0.7,0.1-1.4,0.1-2.1c0-0.2,0.1-0.5,0.3-0.7
		c0.2-0.3,0.3-0.6,0.6-0.8c0.3-0.2,0.7-0.3,1-0.2c1.1,0.3,2.2,0,3.4,0.1c0.7,0.1,1.5,0,2.4,0.1c0.5,0,1.1,0.1,1.6,0.1
		c0.3,0,0.5-0.1,0.8-0.1c0.2,0,0.3,0.2,0.5,0.2c0.7,0.1,1.5,0.1,2.2,0.1c0.3,0,0.6-0.4,1.1-0.2c0.3,0.1,0.7,0.2,1.1,0.3
		c0.2-0.5,0.7-0.2,1.1-0.2c0.7,0,1.4,0,2.2-0.1c0.1,0,0.1-0.1,0.2-0.2c0.1-0.3,0.5-0.3,0.7-0.4c0.7-0.3,1,0.4,1.5,0.5
		c-0.1,0.7,1,1,0.6,1.9c-0.1,0.3,0,0.6,0,0.9c0,0.5,0.1,1.1,0.1,1.6c0,0.1,0.1,0.2,0.1,0.3c-0.1,0.9-0.1,1.7-0.1,2.6
		c0,0.9,0.1,1.8,0.2,2.6c0,0.3,0.1,0.7-0.4,0.9c-0.1,0-0.2,0.1-0.2,0.2C178.1,85.9,177.8,85.9,177.1,85.3"/>
	<path class="st3" d="M119.6,88c-0.1-0.1-0.2-0.2-0.2-0.3c0.1-0.6-0.2-1.2,0.1-1.8c0.1-0.2,0-0.6,0-0.9c0-0.2-0.1-0.4,0.1-0.5
		c0.3-0.3,0.3-0.7,0.1-1.1c0-0.1-0.1-0.1-0.1-0.1c0.2-0.7,0.4-1.5,0.7-2.2c0.2-0.5,0.8-1.1,0.8-1.5c0-0.8,0.7-1.1,0.9-1.8
		c0.3-0.6,1.1-0.9,1.6-1.3c0.2-0.2,0.3-0.5,0.5-0.7c0.1-0.2,0.3-0.4,0.4-0.5c0.6-0.4,1.2-0.8,1.8-1.1c0.1-0.1,0.3-0.1,0.5-0.1
		c0.5-0.1,0.9-0.2,1.3-0.3c0.3-0.1,0.7-0.1,1.1-0.1h1.6c1,0.1,2,0.1,3,0.1c0.3,0,0.5,0.3,0.8,0.3c0.5,0.1,0.9,0.1,1.2,0.5
		c0.2,0.2,0.4,0.1,0.6-0.1c0.4-0.5,0.9-0.9,1.3-1.4c0.4,0.2,0.7,0.4,0.9,0.5c0.3-0.1,0.7-0.2,0.7-0.1c0.1,0.3,0.3,0.6,0.3,0.9
		c0.1,0.4,0.1,0.9,0.2,1.3c0.1,0.6,0.3,1.1,0,1.8c-0.1,0.1,0,0.4,0.1,0.5c0.3,0.3,0.2,0.6,0.1,0.9c-0.1,0.5-0.3,0.9-0.3,1.5
		c0,0.1,0,0.4,0.1,0.5c0.4,0.4,0.1,0.8,0.1,1.2c0,0.3,0.1,0.5,0.1,0.8v0.3c-0.1,0.4-0.1,0.9-0.3,1.3c-0.2,0.7-0.5,1.1-1.3,1.3
		c-1.1,0.3-1.5,0.1-1.9-1c-0.1-0.2-0.3-0.4-0.3-0.7c-0.1-0.1-0.1-0.2-0.1-0.3c0.3-1,0.1-2,0.1-3c0-0.1,0.1-0.2,0.1-0.2
		c-0.3-0.6-0.9-0.9-1.3-1.5c-0.3-0.5-0.7-1.3-1.4-1.4c-0.7-0.1-1.4-0.4-2.2-0.3c-0.7,0.1-1.4,0-2.2-0.1c-0.5-0.1-1.8,0.5-2.1,0.9
		c-0.1,0.2-0.5,0.3-0.7,0.5c-0.3,0.3-0.6,0.7-0.9,1c-0.2,0.2-0.5,0.4-0.7,0.6c-0.7,0.5-0.7,1.3-1,2.1c-0.1,0.3-0.3,0.7-0.4,1.1
		c-0.1,0.3-0.1,0.7-0.1,1.1c-0.1,1.6-0.1,3.2-0.1,4.8c0,0.3,0.1,0.7,0.2,1.1c0.2,0.9,0.4,1.8,1,2.6c0.1,0.2,0.2,0.5,0.3,0.7
		c0.3,0.5,0.5,1,0.9,1.4c0.3,0.3,0.6,0.5,0.9,0.7c0.1,0.1,0.3,0,0.3,0.1c0.4,0.7,1.2,0.5,1.8,0.7c0.7,0.2,1.4,0.3,2.1,0.2
		c0.5-0.1,1,0.3,1.3-0.3c0.8,0.3,1.1-0.6,1.8-0.6c0.1,0,0.2-0.1,0.2-0.2c0-0.5,0.3-0.6,0.7-0.7c0.1-0.1,0.3-0.3,0.4-0.5
		c0.1-0.3,0.3-0.5,0.5-0.7c0.5-0.7,0.7-1.4,0.7-2.2c0-0.1,0-0.3-0.1-0.5c-0.3-0.7,0-1.5,0.3-2.1c0.1-0.1,0.4-0.3,0.7-0.3
		c0.5,0,1.1,0,1.7,0.2c0.3,0.1,0.6,0.5,0.7,0.7c0.1,0.9,0.3,1.9,0.1,2.8c-0.1,0.8-0.3,1.5-0.6,2.3c-0.2,0.3-0.5,0.6-0.7,0.9
		c-0.1,0.2-0.3,0.4-0.4,0.7c-0.3,0.8-1,1.3-1.6,1.9c-0.6,0.6-1.4,0.7-2,1.3c-0.3,0.3-0.8,0.3-1.2,0.5c-0.3,0.1-0.6,0.3-0.9,0.3
		c-0.8,0.2-1.6,0-2.4,0.1c-0.9,0.1-1.8-0.2-2.7-0.2c-0.5,0-0.9-0.3-1.3-0.5c-0.7-0.3-1.3-0.7-2-1.1c-0.6-0.4-1.1-0.9-1.5-1.5
		c-0.3-0.3-0.4-0.7-0.7-1.1c-0.5-0.5-0.7-1.3-1-1.9c-0.2-0.5-0.9-0.8-0.5-1.5c0,0-0.1-0.1-0.1-0.2c-0.5-0.5-0.4-1.1-0.5-1.7
		c-0.1-0.4-0.3-0.8-0.3-1.3c0-0.4,0.1-0.8,0.1-1.2C119.5,88,119.6,88,119.6,88"/>
	<path class="st3" d="M194.8,75.5c0.5,0.1,0.6,0.5,0.3,0.7c-0.4,0.3-0.9,0.7-1.4,0.9c-0.7,0.3-1.3,0.3-2,0.5
		c-0.1,0.1-0.3-0.1-0.5-0.1c-0.3,0-0.5,0.1-0.7,0.1h-0.5c-0.2,0-0.4-0.1-0.7-0.1c0.5,0.6,0.5,1.1,0.2,1.6c-0.1,0.1,0,0.3,0,0.3
		c0.4,0.3,0.2,0.7,0,0.9c0,0.1-0.1,0.1-0.1,0.1c0.5,0.6-0.3,1.3,0.2,2c0.1,0.1,0,0.3,0,0.4c-0.2,0.7-0.2,1.3-0.1,2.1
		c0.1,0.8-0.1,1.6-0.2,2.5c-0.1,0.7,0,1.3,0,2c0,1,0.1,2,0.1,3c0,0.1-0.1,0.1,0,0.2c0.5,0.8,0.3,1.7,0.2,2.6v0.2c0.7,0,1.3,0.1,2,0
		c0.4-0.1,0.8-0.1,1.2,0.1c0.1,0.1,0.3,0.1,0.5,0.3c0.3,0.3,0.7,0.5,0.9,0.8c0.1,0.3,0.1,0.5,0.1,0.7c-0.1,0.3-0.2,0.5-0.3,0.7
		c-0.2,0.5-0.3,1.1-1.1,0.8c-0.5-0.1-1,0.1-1.5,0.2c-0.4,0.1-0.9,0.1-1.2,0c-0.9-0.3-1.7-0.1-2.6,0.1c-0.6,0.1-1.3-0.1-1.8,0.1
		c-0.8,0.2-1.6-0.3-2.4,0.1c-0.3,0.1-0.7,0.1-1.1,0.1c-0.6,0-0.9-0.5-1.1-0.8c-0.3-0.1-0.7-0.1-0.7-0.1c0-0.3,0-0.7,0.1-1
		c0-0.1,0.1-0.3,0.1-0.4c0.1-0.2-0.1-0.6,0.4-0.5c0.1,0,0.2-0.3,0.3-0.4c0.1-0.2,0.2-0.7,0.6-0.3c0.1,0,0.1,0.1,0.1,0.1
		c0.7-0.4,1.6-0.2,2.4-0.3c0.5-0.1,0.9-0.1,1.3-0.3c0.1-0.1,0.3-0.2,0.3-0.2c-0.1-0.5-0.2-0.9-0.2-1.3c-0.1-0.7-0.1-1.5-0.1-2.2
		c-0.1-0.7,0.1-1.3-0.2-2.1c-0.1-0.4,0.1-0.9,0.1-1.4c0-0.2-0.1-0.5-0.1-0.7c0-0.1-0.1-0.3,0-0.3c0.3-0.9,0.2-1.9,0.1-2.9
		c0-0.6-0.3-1.2,0.1-1.9c0.2-0.5-0.1-1.2-0.1-1.8c0-0.3-0.1-0.7,0-1c0.3-0.6-0.3-1.1-0.1-1.7c-0.7-0.1-1.3-0.1-1.8-0.1
		c-0.3-0.1-0.6-0.1-0.9-0.3c-0.4-0.1-0.7-0.4-1.1-0.3c-0.2,0.1-0.5-0.4-0.7-0.6c-0.3-0.3-0.9-0.5-0.4-1.1v-0.1c0-0.2-0.1-0.5,0-0.7
		c0.4-0.4,0.8-0.9,1.4-0.9c0.5-0.1,1.1,0.1,1.6,0.1c0.4,0.1,0.8,0.2,1.2,0.3c0.5,0.1,0.9,0,1.3,0.1h2.6c0.4,0,0.8-0.1,1.2-0.2
		c0.6-0.1,1.3-0.3,1.9-0.3c0.7,0,1.3,0.2,2,0.4C194.8,74.4,194.9,74.6,194.8,75.5"/>
	<path class="st3" d="M150.7,82.8c0.6,0.3,0.3,0.8,0.3,1.2c-0.1,0.7-0.1,1.3-0.1,2v1.3c0,0.3,0,0.7,0.1,1.1c0.1,0.5-0.1,1-0.1,1.5
		c0,0.2,0,0.4,0.1,0.5c0,0.1,0.1,0.3,0.1,0.3c0,0.3-0.1,0.7-0.1,1c0,0.5-0.1,1.1-0.1,1.7c0,0.7,0.1,1.3,0.1,2
		c0.4,0.1,0.9,0.3,1.3,0.5h0.2c0.5-0.1,1-0.3,1.5-0.4c0.3,0,0.5,0.2,0.8,0.3c0.3,0.2,0.7,0.5,1,0.7c0.1,0.1,0.1,0.1,0.1,0.1
		c0,0.5,0.1,1-0.1,1.3c-0.3,0.5-0.9,0.9-1.3,1.4c-0.5-0.5-0.9-0.5-1.3-0.3c-0.1,0-0.1,0.1-0.1,0.1c-0.6-0.3-1.3-0.1-1.9-0.2
		c-0.1,0-0.3-0.1-0.3-0.1c-0.4,0.3-0.7,0-1.1,0c-0.6-0.1-1.2-0.1-1.8-0.1h-0.5c-0.1,0-0.4-0.1-0.4,0c-0.3,0.5-0.7,0.3-1,0.3
		c-0.4,0-0.9,0.1-1.3,0.1c-0.3,0-0.5-0.1-0.8-0.1c-0.1,0-0.3,0-0.4,0.1c-0.3,0.3-0.5,0.2-0.7-0.1c-0.2-0.2-0.5-0.4-0.7-0.6
		c-0.1-0.1-0.1-0.4-0.1-0.6c0.1-0.4,0.1-0.7,0.2-1.1c0-0.1,0-0.2,0.1-0.2c0.5-0.3,0.9-0.6,1.4-0.7c1-0.2,2-0.3,3-0.4
		c0.7-0.1,0.9-0.9,0.6-1.3c-0.1-0.6,0-1.1-0.1-1.5c-0.3-0.6,0.2-1.2,0.1-1.8c0-0.1,0.1-0.3,0.1-0.3c-0.5-0.9,0.1-2-0.3-3
		c0-0.1,0.1-0.2,0.1-0.3v-1.1c0-0.1-0.1-0.1-0.1-0.2c0.3-0.6-0.1-1.2,0-1.8c0.1-0.8-0.1-1.6,0.3-2.4c0-0.1,0.1-0.1,0-0.2
		c-0.5-0.8-0.1-1.6-0.2-2.4v-0.3c-0.1-0.3-0.1-0.7-0.3-1.1c-0.3-0.1-0.6-0.2-1-0.3c-0.4-0.1-0.7,0.2-1.1,0.3
		c-0.3,0.1-0.7-0.2-1.1-0.2c-0.5,0-1.1-0.3-1.7-0.7c-0.3-0.1-0.3-0.6-0.4-0.9c-0.1-0.3,0.1-0.6,0.2-0.8c0.2-0.3,0.5-0.5,0.7-0.8
		c0.3-0.4,0.6-0.3,1-0.2c0.8,0.1,1.6,0,2.4-0.1c0.1,0,0.3,0,0.4,0.1c0.2,0.1,0.4,0.1,0.6,0.1c0.7-0.1,1.3-0.1,1.9,0.2
		c0.1,0.1,0.3,0.1,0.3,0c0.4-0.4,0.8-0.1,1.3-0.1h0.5h0.6c0.2,0,0.3,0.1,0.5,0c0.7-0.1,1.3,0,1.9,0.1c0.1,0,0.1,0.1,0.1,0.1
		c0.1,0.5,0.3,0.3,0.6,0.2c0.3-0.1,0.6-0.1,0.5,0.3c0,0.1,0.1,0.3,0.1,0.3c0.5,0.3,0.1,0.8,0.3,1.2c0,0.1-0.3,0.2-0.5,0.3
		c0.1,0.1,0.3,0.1,0.3,0.1c0.1,0.1,0.1,0.1,0.2,0.2c-0.1,0.1-0.3,0.1-0.5,0.2c-0.5,0.1-0.9,0.4-1.5,0.5c-0.4,0.1-0.8-0.1-1.3-0.1
		c-0.3,0-0.7,0.3-1.1-0.1c-0.3,0.2-0.6,0.4-0.8,0.7c-0.1,0.2-0.1,0.6,0,0.9c0.2,0.7,0,1.5,0.1,2.2C150.9,82,151.1,82.4,150.7,82.8"
		/>
</g>
</svg>
