<?xml version="1.0" encoding="utf-8"?>
<!-- Generator: Adobe Illustrator 25.2.3, SVG Export Plug-In . SVG Version: 6.00 Build 0)  -->
<svg version="1.1" id="Ebene_1" xmlns="http://www.w3.org/2000/svg" xmlns:xlink="http://www.w3.org/1999/xlink" x="0px" y="0px"
	 viewBox="0 0 437 147" style="enable-background:new 0 0 437 147;" xml:space="preserve">
<style type="text/css">
	.st0{clip-path:url(#SVGID_2_);fill:#59F500;}
	.st1{fill:#141740;}
</style>
<g>
	<defs>
		<rect id="SVGID_1_" x="0.6" width="436.4" height="146.5"/>
	</defs>
	<clipPath id="SVGID_2_">
		<use xlink:href="#SVGID_1_"  style="overflow:visible;"/>
	</clipPath>
	<path class="st0" d="M437,74.9c0,39.6-32.1,71.6-71.6,71.6H72.3c-39.6,0-71.6-32.1-71.6-71.6v-3.3C0.6,32.1,32.7,0,72.3,0h293.1
		C404.9,0,437,32.1,437,71.6V74.9z"/>
</g>
<path class="st1" d="M307.8,92.2v-5.3l-4-0.8V61.4h5.9l0.2,4.1h7V54.3h-35.2v11.2h6.9l0.2-4.1h5.9v24.7l-4,0.8v5.3H307.8z
	 M240.4,92.2v-5.3l-5-0.8V68.5h0.2l15.5,23.8h9V60.5l3.9-0.8v-5.4h-3.9H247v5.4l5,0.8v18.1h-0.2l-15.2-24.3h-9.3h-3.9v5.4l3.9,0.8
	v25.6l-3.9,0.8v5.3H240.4z M204.6,92.2v-5.3l-3.9-0.8V60.5l3.9-0.8v-5.4h-17v5.4l3.9,0.8v25.6l-3.9,0.8v5.3H204.6z M132.3,92.2v-5.3
	l-4.4-0.8v-6.2l-0.6-16.3l0.2,0l10.9,28.7h7.2l10.7-29l0.2,0l-0.2,17.8v4.9l-4.1,0.8v5.3h17v-5.3l-3.9-0.8V60.5l3.9-0.8v-5.4h-17.7
	l-8.9,25h-0.2l-9.2-25h-14h-3.9v5.4l3.9,0.8v25.6l-3.9,0.8v5.3H132.3z"/>
</svg>
