<?xml version="1.0" encoding="utf-8"?>
<!-- Generator: Adobe Illustrator 25.2.3, SVG Export Plug-In . SVG Version: 6.00 Build 0)  -->
<svg version="1.1" id="Ebene_1" xmlns="http://www.w3.org/2000/svg" xmlns:xlink="http://www.w3.org/1999/xlink" x="0px" y="0px"
	 viewBox="0 0 586 224.7" style="enable-background:new 0 0 586 224.7;" xml:space="preserve">
<style type="text/css">
	.st0{clip-path:url(#SVGID_2_);fill:#1688AE;}
	.st1{fill:#FFFFFF;}
</style>
<g>
	<defs>
		<rect id="SVGID_1_" width="586" height="223.3"/>
	</defs>
	<clipPath id="SVGID_2_">
		<use xlink:href="#SVGID_1_"  style="overflow:visible;"/>
	</clipPath>
	<path class="st0" d="M586,114.2c0,60.3-48.9,109.2-109.2,109.2H109.2C48.9,223.3,0,174.4,0,114.2v-5C0,48.9,48.9,0,109.2,0h367.6
		C537.1,0,586,48.9,586,109.2V114.2z"/>
</g>
<g>
	<g>
		<path class="st1" d="M169.7,100.2c-4.3,0-8-1-10.9-2.9c-2.9-1.9-5.1-4.5-6.5-7.8c-1.5-3.3-2.2-7.1-2.2-11.3v-0.6
			c0-4.2,0.8-8,2.3-11.3s3.7-5.9,6.6-7.8s6.3-2.9,10.2-2.9c2.8,0,5.4,0.4,7.7,1.3c2.3,0.9,4.2,2,5.8,3.3v9.3h-4.7l-0.6-6.8
			c-0.6-0.5-1.4-0.9-2.2-1.3c-0.8-0.3-1.7-0.6-2.7-0.8s-2.1-0.3-3.3-0.3c-2.8,0-5.2,0.7-7.2,2.2c-2,1.5-3.5,3.5-4.5,6
			c-1,2.6-1.5,5.5-1.5,8.9v0.7c0,3.6,0.5,6.7,1.6,9.3c1.1,2.6,2.7,4.5,4.7,5.9c2.1,1.4,4.6,2,7.6,2c1.4,0,2.7-0.2,4.1-0.5
			s2.4-0.8,3.3-1.3l0.7-6h4.6V97c-1.6,1-3.6,1.8-5.8,2.4C174.4,99.9,172.1,100.2,169.7,100.2z"/>
		<path class="st1" d="M205.1,100.2c-2.8,0-5.3-0.5-7.5-1.6c-2.2-1.1-4.1-2.6-5.7-4.5c-1.6-2-2.7-4.3-3.6-7
			c-0.8-2.7-1.2-5.6-1.2-8.9v-0.6c0-3.2,0.4-6.2,1.2-8.9c0.8-2.7,2-5,3.6-7c1.6-2,3.4-3.5,5.7-4.6c2.2-1.1,4.7-1.6,7.5-1.6
			c3,0,5.6,0.5,7.8,1.6c2.2,1.1,4.1,2.6,5.6,4.6c1.5,2,2.7,4.3,3.4,7c0.8,2.7,1.2,5.6,1.2,8.9v0.6c0,3.2-0.4,6.2-1.2,8.9
			c-0.8,2.7-1.9,5-3.4,7c-1.5,2-3.4,3.5-5.6,4.5C210.6,99.6,208,100.2,205.1,100.2z M205.1,95.3c2.9,0,5.2-0.7,7-2.1
			c1.8-1.4,3.1-3.4,3.9-6s1.3-5.6,1.3-8.9v-0.7c0-3.4-0.4-6.3-1.3-8.9s-2.2-4.5-3.9-6c-1.8-1.4-4.1-2.2-6.9-2.2
			c-2.6,0-4.8,0.7-6.6,2.2c-1.8,1.4-3.2,3.4-4.1,6c-0.9,2.6-1.4,5.5-1.4,8.9v0.7c0,3.4,0.5,6.3,1.4,8.9c0.9,2.6,2.3,4.6,4.1,6
			C200.3,94.6,202.5,95.3,205.1,95.3z"/>
		<path class="st1" d="M226,99.5v-3.8l4.9-0.8V60.8L226,60v-3.8h4.9h5.9L258,90l0.2-0.1V60.8l-5.3-0.8v-3.8h10.7h4.9V60l-4.9,0.8
			v38.7h-5.4l-21.8-34l-0.2,0.1V95l5.3,0.8v3.8H226z"/>
		<path class="st1" d="M272.9,99.5v-3.8l4.9-0.8V60.8l-4.9-0.8v-3.8h4.9h5.9L304.9,90l0.2-0.1V60.8l-5.3-0.8v-3.8h10.7h4.9V60
			l-4.9,0.8v38.7h-5.4l-21.8-34l-0.2,0.1V95l5.3,0.8v3.8H272.9z"/>
		<path class="st1" d="M319.7,99.5v-3.8l4.9-0.8V60.8l-4.9-0.8v-3.8h32.1v10.4h-4.7l-0.7-5.9h-16v14.1h16v4.6h-16v15.7h17l0.7-6h4.7
			v10.4H319.7z"/>
		<path class="st1" d="M376.5,100.2c-4.3,0-8-1-10.9-2.9s-5.1-4.5-6.5-7.8c-1.5-3.3-2.2-7.1-2.2-11.3v-0.6c0-4.2,0.8-8,2.3-11.3
			s3.7-5.9,6.6-7.8c2.9-1.9,6.3-2.9,10.2-2.9c2.8,0,5.4,0.4,7.7,1.3c2.3,0.9,4.2,2,5.8,3.3v9.3h-4.7l-0.6-6.8
			c-0.6-0.5-1.4-0.9-2.2-1.3c-0.8-0.3-1.7-0.6-2.7-0.8s-2.1-0.3-3.3-0.3c-2.8,0-5.2,0.7-7.2,2.2c-2,1.5-3.5,3.5-4.5,6
			c-1,2.6-1.5,5.5-1.5,8.9v0.7c0,3.6,0.5,6.7,1.6,9.3c1.1,2.6,2.7,4.5,4.7,5.9c2.1,1.4,4.6,2,7.6,2c1.4,0,2.7-0.2,4.1-0.5
			c1.3-0.3,2.4-0.8,3.3-1.3l0.7-6h4.6V97c-1.6,1-3.6,1.8-5.8,2.4C381.2,99.9,378.9,100.2,376.5,100.2z"/>
		<path class="st1" d="M404.8,99.5v-3.8l4.9-0.8V60.6h-9.8l-0.9,6h-4.4V56.2h36v10.4h-4.3l-0.9-6h-9.8V95l4.9,0.8v3.8H404.8z"/>
	</g>
</g>
<g>
	<g>
		<path class="st1" d="M182.3,172.7l-10.1-39.1l-3.7-0.4v-3.8h14.1v3.8l-4.5,0.7l5.7,23.8l1.3,5.6l0.2,0l1.7-5.6l8.7-28.3h5.2
			l8.8,28.3l1.7,5.9h0.2l1.5-5.9l5.6-23.9l-4.9-0.7v-3.8h13.8v3.8l-3.4,0.4l-9.7,39.1h-5.6l-9.4-30l-1.2-4.4h-0.2l-1.2,4.4l-9.4,30
			H182.3z"/>
		<path class="st1" d="M225.6,172.7V169l3.2-0.4l15.2-39.1h5l14.9,39.1l3.2,0.4v3.8h-12.4V169l3.3-0.6l-2.9-8h-17.4l-2.9,8l3.3,0.6
			v3.8H225.6z M239.5,155.5h13.8l-6.4-17.6l-0.4-1h-0.2l-0.4,1L239.5,155.5z"/>
		<path class="st1" d="M271.4,172.7V169l4.9-0.8V134l-4.9-0.8v-3.8h4.9h5.9h4.9v3.8l-4.9,0.8v34.2h15.3l0.7-6.8h4.5v11.3H271.4z"/>
		<path class="st1" d="M307,172.7V169l4.9-0.8V134l-4.9-0.8v-3.8h4.9h5.9h4.9v3.8l-4.9,0.8v34.2h15.3l0.7-6.8h4.5v11.3H307z"/>
		<path class="st1" d="M342.7,172.7V169l4.9-0.8V134l-4.9-0.8v-3.8h32.1v10.4h-4.7l-0.7-5.9h-16V148h16v4.6h-16v15.7h17l0.7-6h4.7
			v10.4H342.7z"/>
		<path class="st1" d="M390.6,172.7V169l4.9-0.8v-34.3h-9.8l-0.9,6h-4.4v-10.4h36v10.4H412l-0.9-6h-9.8v34.3l4.9,0.8v3.8H390.6z"/>
	</g>
</g>
</svg>
