<?xml version="1.0" encoding="utf-8"?>
<!-- Generator: Adobe Illustrator 25.2.3, SVG Export Plug-In . SVG Version: 6.00 Build 0)  -->
<svg version="1.1" id="Ebene_1" xmlns="http://www.w3.org/2000/svg" xmlns:xlink="http://www.w3.org/1999/xlink" x="0px" y="0px"
	 viewBox="0 0 437 147" style="enable-background:new 0 0 437 147;" xml:space="preserve">
<style type="text/css">
	.st0{clip-path:url(#SVGID_2_);fill:#59F500;}
	.st1{fill:#141740;}
</style>
<g>
	<defs>
		<rect id="SVGID_1_" x="0.6" y="0.6" width="436" height="146.4"/>
	</defs>
	<clipPath id="SVGID_2_">
		<use xlink:href="#SVGID_1_"  style="overflow:visible;"/>
	</clipPath>
	<path class="st0" d="M436.6,75.4c0,39.5-32.1,71.6-71.6,71.6H72.2c-39.5,0-71.6-32.1-71.6-71.6v-3.3c0-39.5,32-71.6,71.6-71.6H365
		c39.5,0,71.6,32.1,71.6,71.6V75.4z"/>
</g>
<polygon class="st1" points="252.4,97.6 184.8,97.6 184.8,74.7 177.2,74.7 177.2,105.2 260,105.2 260,74.7 252.4,74.7 "/>
<polygon class="st1" points="192.7,53.5 218.6,79.4 244.5,53.5 230.6,53.5 230.6,42.3 206.6,42.3 206.6,53.5 "/>
</svg>
