<?xml version="1.0" encoding="utf-8"?>
<!-- Generator: Adobe Illustrator 25.2.3, SVG Export Plug-In . SVG Version: 6.00 Build 0)  -->
<svg version="1.1" id="Ebene_1" xmlns="http://www.w3.org/2000/svg" xmlns:xlink="http://www.w3.org/1999/xlink" x="0px" y="0px"
	 viewBox="0 0 52.4 49.2" style="enable-background:new 0 0 52.4 49.2;" xml:space="preserve">
<style type="text/css">
	.st0{clip-path:url(#SVGID_2_);fill:#FFFFFF;}
	.st1{clip-path:url(#SVGID_2_);fill:none;stroke:#171A3D;}
</style>
<g>
	<defs>
		<rect id="SVGID_1_" y="0" width="52.4" height="49.2"/>
	</defs>
	<clipPath id="SVGID_2_">
		<use xlink:href="#SVGID_1_"  style="overflow:visible;"/>
	</clipPath>
	<path class="st0" d="M20,39.8l-5.6,5.6c3.5,2.1,7.6,3.3,12,3.3c13.2,0,23.9-10.8,23.9-24.1c0-4.4-1.2-8.5-3.2-12.1l4.1-4.1H37v14.3
		l4.5-4.5c0.8,2,1.3,4.1,1.3,6.4c0,9.1-7.3,16.5-16.4,16.5C24.1,41.1,22,40.6,20,39.8 M32.8,9.4l5.6-5.6c-3.5-2.1-7.6-3.3-12-3.3
		C13.2,0.5,2.5,11.3,2.5,24.6c0,4,1,7.7,2.7,11l-4,4h14.2V25.4l-4.4,4.5c-0.6-1.7-0.9-3.4-0.9-5.3c0-9.1,7.3-16.5,16.4-16.5
		C28.7,8.1,30.9,8.6,32.8,9.4"/>
	<path class="st1" d="M20,39.8l-5.6,5.6c3.5,2.1,7.6,3.3,12,3.3c13.2,0,23.9-10.8,23.9-24.1c0-4.4-1.2-8.5-3.2-12.1l4.1-4.1H37v14.3
		l4.5-4.5c0.8,2,1.3,4.1,1.3,6.4c0,9.1-7.3,16.5-16.4,16.5C24.1,41.1,22,40.6,20,39.8z M32.8,9.4l5.6-5.6c-3.5-2.1-7.6-3.3-12-3.3
		C13.2,0.5,2.5,11.3,2.5,24.6c0,4,1,7.7,2.7,11l-4,4h14.2V25.4l-4.4,4.5c-0.6-1.7-0.9-3.4-0.9-5.3c0-9.1,7.3-16.5,16.4-16.5
		C28.7,8.1,30.9,8.6,32.8,9.4z"/>
</g>
</svg>
